<?xml version="1.0" standalone="no"?>
<!DOCTYPE svg PUBLIC "-//W3C//DTD SVG 20010904//EN"
 "http://www.w3.org/TR/2001/REC-SVG-20010904/DTD/svg10.dtd">
<svg version="1.0" xmlns="http://www.w3.org/2000/svg"
 width="700.000000pt" height="700.000000pt" viewBox="0 0 700.000000 700.000000"
 preserveAspectRatio="xMidYMid meet">
<metadata>
Created by potrace 1.11, written by Peter Selinger 2001-2013
</metadata>
<g transform="translate(0.000000,700.000000) scale(0.100000,-0.100000)"
fill="#000000" stroke="none">
<path d="M2260 6913 c-19 -2 -346 -4 -727 -5 -445 -2 -695 -7 -702 -13 -5 -5
-12 -37 -17 -70 -8 -65 -12 -6182 -4 -6487 3 -102 8 -189 11 -193 26 -25 256
-27 2599 -27 2552 0 2836 2 2857 17 11 8 16 47 21 175 8 219 8 6244 0 6428 -4
79 -12 149 -17 156 -9 10 -178 13 -793 16 -1086 4 -3186 5 -3228 3z m3785
-176 c11 -5 25 -16 32 -23 10 -10 13 -486 13 -2418 l0 -2406 -22 -25 -22 -25
-2491 0 -2492 0 -21 23 -22 23 0 1589 c0 875 0 1957 0 2407 l0 816 22 25 22
25 2480 0 c1722 0 2487 -3 2501 -11z m-3304 -5164 c0 -10 1 -84 1 -165 l-1
-148 167 0 167 0 0 -180 c0 -112 -4 -180 -10 -181 -5 -1 -80 -2 -165 -3 l-155
-1 -2 -135 c-1 -74 -2 -149 -2 -165 l-1 -31 -182 1 -182 0 0 165 -1 165 -150
1 c-82 1 -157 2 -165 3 -13 1 -15 28 -15 179 l1 177 166 3 166 2 0 153 c0 83
0 158 1 165 1 9 44 12 181 12 164 0 180 -2 181 -17z m2249 -90 c201 -91 205
-374 8 -474 -84 -43 -214 -31 -278 24 -157 137 -129 363 55 452 60 28 149 28
215 -2z m-578 -500 c74 -34 121 -90 142 -170 33 -123 -30 -252 -147 -307 -54
-25 -142 -28 -198 -6 -156 58 -219 250 -127 389 73 112 208 151 330 94z"/>
<path d="M2285 5949 c-225 -17 -412 -206 -439 -444 -6 -48 -12 -206 -20 -530
-7 -249 -38 -314 -207 -437 -124 -89 -151 -129 -152 -231 -2 -101 10 -117 183
-244 135 -101 169 -181 176 -428 10 -361 14 -482 19 -510 3 -16 8 -46 11 -65
13 -79 78 -197 139 -253 48 -44 115 -84 185 -109 l65 -23 1335 0 1336 0 79 40
c159 79 261 222 280 390 3 28 8 64 12 80 3 17 6 147 8 290 1 143 5 274 8 290
4 17 9 45 12 63 9 56 51 137 91 176 22 21 71 60 109 86 85 58 108 83 130 138
23 56 16 162 -12 200 -11 15 -59 57 -109 94 -120 90 -164 140 -191 219 -30 86
-34 131 -38 412 -6 346 -15 421 -67 527 -73 149 -217 247 -392 266 -77 9
-2442 11 -2551 3z m308 -231 c49 -19 67 -83 41 -147 -16 -41 -28 -50 -79 -58
-49 -7 -119 -32 -140 -51 -68 -58 -84 -120 -90 -362 -9 -287 -15 -365 -41
-453 -31 -112 -97 -192 -224 -274 -91 -59 -96 -63 -84 -69 36 -16 165 -110
202 -146 77 -76 123 -200 136 -373 4 -38 8 -156 11 -261 9 -320 43 -387 213
-414 72 -12 100 -39 106 -100 8 -87 -36 -122 -152 -121 -188 1 -325 92 -382
254 -21 59 -24 103 -35 482 -3 99 -7 191 -9 205 -19 147 -89 249 -238 350 -75
49 -88 67 -90 125 -2 62 14 87 90 138 93 62 164 132 192 186 44 88 50 146 65
638 2 89 10 162 20 197 16 56 75 154 100 169 8 4 20 14 28 21 63 63 269 100
360 64z m2195 -10 c103 -38 162 -90 209 -183 19 -37 25 -57 38 -125 3 -14 7
-119 10 -235 3 -115 7 -254 10 -308 11 -192 69 -294 233 -405 86 -59 102 -82
99 -147 -4 -64 -11 -74 -102 -135 -128 -87 -197 -174 -211 -267 -3 -21 -7 -45
-9 -53 -9 -30 -15 -149 -20 -382 -6 -252 -16 -319 -60 -393 -37 -65 -94 -116
-164 -149 -57 -26 -79 -31 -166 -34 -86 -3 -104 0 -132 17 -25 16 -33 29 -38
64 -14 91 16 128 114 143 57 8 124 46 149 83 41 63 48 111 57 401 6 205 17
328 30 349 2 4 6 19 8 32 17 90 93 182 225 269 45 30 82 57 82 61 0 3 -36 30
-81 59 -207 136 -254 246 -265 620 -5 205 -11 304 -19 344 -10 52 -44 114 -72
134 -27 19 -45 25 -157 53 -40 10 -51 18 -62 45 -32 76 -8 146 54 160 15 3 32
7 37 8 31 8 153 -7 203 -26z m-1106 -241 c82 -48 128 -123 133 -213 4 -67 -7
-103 -50 -166 -24 -34 -31 -54 -27 -73 9 -47 44 -54 288 -53 121 0 234 -3 250
-6 19 -4 37 -18 49 -39 17 -29 19 -55 20 -262 1 -129 -3 -239 -8 -250 -21 -43
-58 -46 -108 -9 -61 46 -98 56 -176 51 -59 -4 -80 -11 -117 -36 -58 -40 -90
-83 -111 -149 -61 -188 138 -378 327 -313 15 6 48 24 72 40 60 42 91 40 113
-4 5 -11 9 -128 8 -271 -1 -269 -4 -287 -56 -314 -17 -10 -597 -14 -1381 -10
-60 0 -71 3 -100 29 l-33 29 -1 709 c0 526 2 716 11 738 26 65 26 65 307 67
236 3 258 5 277 22 27 25 27 45 -4 90 -59 86 -72 143 -54 224 18 85 82 157
166 188 56 21 152 12 205 -19z"/>
</g>
</svg>
