<?xml version="1.0" standalone="no"?>
<!DOCTYPE svg PUBLIC "-//W3C//DTD SVG 20010904//EN"
 "http://www.w3.org/TR/2001/REC-SVG-20010904/DTD/svg10.dtd">
<svg version="1.0" xmlns="http://www.w3.org/2000/svg"
 width="260.000000pt" height="260.000000pt" viewBox="0 0 260.000000 260.000000"
 preserveAspectRatio="xMidYMid meet">
<metadata>
Created by potrace 1.14, written by Peter Selinger 2001-2017
</metadata>
<g transform="translate(0.000000,260.000000) scale(0.100000,-0.100000)"
fill="#000000" stroke="none">
<path d="M100 1930 l0 -570 570 0 570 0 0 570 0 570 -570 0 -570 0 0 -570z"/>
<path d="M1361 1930 l0 -570 567 2 567 3 3 568 2 567 -570 0 -569 -1 0 -569z"/>
<path d="M100 670 l0 -570 570 0 570 0 -2 568 -3 567 -567 3 -568 2 0 -570z"/>
<path d="M1361 669 l-1 -569 570 0 570 0 0 570 -1 570 -569 -1 -569 0 0 -570z"/>
</g>
</svg>
