<?xml version="1.0" encoding="UTF-8" standalone="no"?>
<!-- Generator: Adobe Illustrator 21.0.2, SVG Export Plug-In . SVG Version: 6.00 Build 0)  -->

<svg
   xmlns:dc="http://purl.org/dc/elements/1.1/"
   xmlns:cc="http://creativecommons.org/ns#"
   xmlns:rdf="http://www.w3.org/1999/02/22-rdf-syntax-ns#"
   xmlns:svg="http://www.w3.org/2000/svg"
   xmlns="http://www.w3.org/2000/svg"
   xmlns:sodipodi="http://sodipodi.sourceforge.net/DTD/sodipodi-0.dtd"
   xmlns:inkscape="http://www.inkscape.org/namespaces/inkscape"
   version="1.1"
   x="0px"
   y="0px"
   viewBox="0 0 32 32"
   style="enable-background:new 0 0 32 32;"
   xml:space="preserve"
   id="svg2"
   inkscape:version="0.91 r13725"
   sodipodi:docname="loader.svg"><metadata
     id="metadata19"><rdf:RDF><cc:Work
         rdf:about=""><dc:format>image/svg+xml</dc:format><dc:type
           rdf:resource="http://purl.org/dc/dcmitype/StillImage" /><dc:title /></cc:Work></rdf:RDF></metadata><defs
     id="defs17" /><sodipodi:namedview
     pagecolor="#ffffff"
     bordercolor="#666666"
     borderopacity="1"
     objecttolerance="10"
     gridtolerance="10"
     guidetolerance="10"
     inkscape:pageopacity="0"
     inkscape:pageshadow="2"
     inkscape:window-width="1294"
     inkscape:window-height="897"
     id="namedview15"
     showgrid="false"
     inkscape:zoom="10.429825"
     inkscape:cx="21.345442"
     inkscape:cy="6.0831071"
     inkscape:window-x="0"
     inkscape:window-y="0"
     inkscape:window-maximized="0"
     inkscape:current-layer="svg2" /><style
     type="text/css"
     id="style4">
	.icon_x002D_canvas_x002D_transparent{opacity:0;fill:#F6F6F6;}
	.st0{fill:#AA278F;}
	.st1{fill:#FFFFFF;}
</style><g
     id="g4212"
     transform="matrix(0.73556737,0,0,0.73556737,-61.876002,10.329775)"><g
       id="iconBg"
       transform="translate(-0.27586245,-1.4489569)"><path
         style="fill:#ffffff;fill-opacity:1"
         d="m 10.453125,4.7871094 c 0,0 -0.405409,0.038779 -0.578125,0.1191406 C 9.7646499,4.9572248 9.6640036,5.0186162 9.5644531,5.0839844 9.389337,5.1793379 9.2273147,5.2953693 9.0839844,5.4375 8.6683858,5.8500995 8.4491534,6.3967032 8.4179688,7.0761719 8.3843826,7.3148557 8.3652344,7.569837 8.3652344,7.8457031 l 0,1.5351563 c -0.011675,0.2968526 -0.04896,0.5703885 -0.1113282,0.8222656 -0.062371,0.251277 -0.1684328,0.458573 -0.3183593,0.621094 -0.042576,0.03718 -0.08271,0.07581 -0.1210938,0.117187 -0.1589226,0.142731 -0.3826788,0.305079 -0.6777343,0.492188 -0.2422829,0.157124 -0.382757,0.381154 -0.4277344,0.666015 -5.996e-4,0.0042 -0.00136,0.0089 -0.00195,0.01367 -0.0078,0.05517 -0.013083,0.111904 -0.013672,0.171875 -5.996e-4,0.0036 -0.00195,0.0061 -0.00195,0.0098 l 0,0.0039 0,0.0039 c 0,0.06477 0.00319,0.125269 0.00977,0.181641 0.019182,0.170917 0.068366,0.301423 0.1445312,0.392578 0.1025508,0.122341 0.2746982,0.260538 0.5175781,0.414063 0.243482,0.153525 0.44127,0.319179 0.5917969,0.496093 0.1511257,0.177514 0.2650337,0.440033 0.3417969,0.789063 0.02939,0.136134 0.051413,0.430633 0.066406,0.882812 l 0,1.210938 c 0,0.227889 0.01989,0.433401 0.046875,0.628906 6.004e-4,0.03778 8.384e-4,0.0743 0.00195,0.113281 0.00541,0.468973 0.1069385,0.88447 0.3066406,1.246094 0.1997037,0.362224 0.4831885,0.64194 0.8496094,0.839844 0.3664209,0.197904 0.7826746,0.296875 1.2480466,0.296875 l 11.306641,0 c 0.209901,0 0.403464,-0.03878 0.576172,-0.119141 0.110353,-0.05098 0.213549,-0.112365 0.3125,-0.177734 0.174515,-0.09535 0.335189,-0.211385 0.478515,-0.353516 0.415599,-0.4126 0.634827,-0.961156 0.666016,-1.640625 0.03352,-0.238683 0.05273,-0.493666 0.05273,-0.769531 l 0,-1.533203 c 0.01131,-0.296855 0.04897,-0.572342 0.111328,-0.824219 0.06243,-0.251278 0.168441,-0.45662 0.31836,-0.619141 0.04252,-0.03719 0.08275,-0.07581 0.121094,-0.117187 0.158925,-0.14273 0.382673,-0.307031 0.677734,-0.494141 0.242277,-0.157123 0.384699,-0.379201 0.429688,-0.664062 5.97e-4,-0.0042 -2e-4,-0.0089 0,-0.01367 0.0072,-0.05517 0.01311,-0.111904 0.01367,-0.171875 -5.97e-4,-0.0018 0,-0.0061 0,-0.0098 l 0.002,0 0,-0.002 0,-0.0039 c 0,-0.06477 -0.0041,-0.125268 -0.0098,-0.181641 -0.01919,-0.170916 -0.06848,-0.301422 -0.144531,-0.392578 -0.102558,-0.12234 -0.274696,-0.26249 -0.517578,-0.416015 -0.24348,-0.153525 -0.441273,-0.31918 -0.591797,-0.496094 -0.15113,-0.177513 -0.265038,-0.440032 -0.341797,-0.789063 -0.0293,-0.136133 -0.05136,-0.4306324 -0.06641,-0.8828121 l 0,-1.2109375 c 0,-0.2278886 -0.01996,-0.4353553 -0.04688,-0.6308594 -6.05e-4,-0.037784 -3.6e-4,-0.07235 -0.002,-0.1113281 C 24.156536,6.7009994 24.055162,6.2854514 23.855469,5.9238281 23.655759,5.5616043 23.372281,5.281888 23.005859,5.0839844 22.639438,4.8860807 22.223193,4.7871094 21.757812,4.7871094 l -11.302734,0 -0.002,0 z m 10.693359,0.9902344 c 0.381415,0 0.716185,0.077235 0.998047,0.2265624 0.278265,0.1481279 0.490269,0.3528867 0.650391,0.6269532 0.160122,0.2746662 0.243849,0.5960071 0.248047,0.9570312 0.03838,2.1313619 0.07834,2.5591784 0.111328,2.6953124 0.09175,0.377816 0.228615,0.664057 0.419922,0.876953 0.172116,0.191307 0.38121,0.36133 0.621093,0.50586 0.173916,0.104949 0.299437,0.203766 0.375,0.294922 0.02099,0.02579 0.07031,0.110293 0.07031,0.333984 0,0.229688 -0.07245,0.375058 -0.234375,0.474609 -0.363423,0.223691 -0.624913,0.418944 -0.798828,0.597657 -0.194305,0.200302 -0.330687,0.451483 -0.40625,0.74414 -0.06717,0.262072 -0.104594,0.630241 -0.117188,1.125 -0.01199,0.463574 -0.02662,1.044727 -0.04102,1.742188 -0.01259,0.564325 -0.183403,0.999793 -0.523438,1.332031 -0.340634,0.332238 -0.788931,0.494141 -1.373047,0.494141 -0.24528,0 -0.426163,-0.04692 -0.537109,-0.138672 -0.09295,-0.07676 -0.134766,-0.192965 -0.134766,-0.363282 0,-0.107347 0.01691,-0.201351 0.05469,-0.287109 0.03178,-0.07316 0.0707,-0.126573 0.113281,-0.160156 0.04078,-0.03178 0.08636,-0.04944 0.144531,-0.05664 0.248279,-0.03298 0.434779,-0.07569 0.570313,-0.130859 0.190107,-0.07856 0.340039,-0.226986 0.433594,-0.429688 0.07436,-0.161321 0.118881,-0.374079 0.138672,-0.652343 0.01739,-0.241083 0.02734,-0.581178 0.02734,-1.035157 0.0096,-0.63629 0.04445,-1.137452 0.107422,-1.488281 0.05697,-0.317845 0.164988,-0.591362 0.320313,-0.814453 0.156523,-0.224891 0.399105,-0.440477 0.71875,-0.642578 l 0.490234,-0.310547 -0.492188,-0.310547 c -0.229088,-0.14393 -0.414355,-0.292987 -0.554687,-0.445313 -0.132535,-0.144529 -0.244474,-0.325412 -0.332031,-0.537109 -0.09176,-0.220692 -0.158885,-0.492839 -0.197266,-0.804687 -0.04078,-0.3304394 -0.0625,-0.725401 -0.0625,-1.1757816 0,-0.4683719 -0.0089,-0.8178355 -0.0293,-1.0703125 -0.02339,-0.2932572 -0.07334,-0.5120447 -0.154297,-0.6679688 -0.09835,-0.188908 -0.244531,-0.3227203 -0.43164,-0.3964843 -0.133735,-0.053374 -0.314651,-0.092154 -0.552735,-0.1191407 -0.08456,-0.011394 -0.151874,-0.05019 -0.214843,-0.1269531 -0.06597,-0.079761 -0.09766,-0.2072358 -0.09766,-0.3769531 0,-0.2458803 0.05118,-0.4863281 0.671875,-0.4863281 z m -9.716796,0.00195 c 0.24468,0 0.42361,0.044963 0.535156,0.1367187 0.09236,0.076763 0.136718,0.1929642 0.136718,0.3632813 0,0.1079474 -0.01946,0.2013511 -0.05664,0.2871093 -0.03178,0.073164 -0.0701,0.1271724 -0.113281,0.1601563 -0.04078,0.031784 -0.08441,0.049444 -0.142579,0.056641 -0.248279,0.033584 -0.434778,0.075686 -0.570312,0.1308594 -0.190107,0.078562 -0.340039,0.2256328 -0.433594,0.4277344 -0.07436,0.1613214 -0.120834,0.3760324 -0.140625,0.6542969 -0.01799,0.2410825 -0.02734,0.5811773 -0.02734,1.0351562 -0.0096,0.6368898 -0.04445,1.135499 -0.107422,1.486328 -0.05697,0.317845 -0.164989,0.593315 -0.320313,0.816406 -0.157723,0.22609 -0.3991056,0.44243 -0.7187499,0.644532 l -0.4921875,0.310546 0.4921875,0.308594 c 0.2290884,0.14393 0.4169087,0.29494 0.5566409,0.447266 0.132535,0.14393 0.243874,0.324813 0.332031,0.537109 0.09235,0.221292 0.158285,0.490887 0.197266,0.802735 0.04078,0.330439 0.0625,0.7254 0.0625,1.175781 0,0.468372 0.0095,0.817835 0.0293,1.070312 0.02339,0.293258 0.07334,0.512645 0.154296,0.667969 0.09895,0.188908 0.244532,0.322121 0.431641,0.396484 0.134335,0.05337 0.316603,0.09215 0.554687,0.119141 0.08396,0.0114 0.149322,0.05019 0.212891,0.126953 0.06537,0.08036 0.09961,0.207236 0.09961,0.376953 0,0.24648 -0.05118,0.486329 -0.671874,0.486329 -0.381415,0 -0.718138,-0.07664 -1,-0.226563 C 10.152023,18.430597 9.9394189,18.225838 9.7792969,17.951172 9.6191749,17.675906 9.535448,17.355165 9.53125,16.994141 9.4928687,14.862779 9.4548589,14.436915 9.421875,14.300781 9.3301197,13.922965 9.1913068,13.634771 9,13.421875 8.8278838,13.230568 8.6207425,13.059946 8.3808594,12.916016 8.2075438,12.811666 8.0800692,12.712849 8.0039062,12.621094 c -0.02099,-0.02579 -0.070312,-0.10834 -0.070312,-0.332032 -10e-8,-0.230287 0.072454,-0.37701 0.234375,-0.476562 0.3634229,-0.223691 0.6255125,-0.418943 0.7988281,-0.597656 0.194905,-0.200902 0.3306868,-0.451483 0.40625,-0.744141 C 9.4402142,10.208631 9.4795936,9.8404621 9.4921875,9.3457031 9.5041817,8.8821289 9.516857,8.302929 9.53125,7.6054688 9.5438439,7.0411436 9.7146531,6.6037225 10.054688,6.2714844 c 0.340634,-0.3322382 0.790884,-0.4921875 1.375,-0.4921875 z m 4.685546,1.078125 c 0.04198,-0.0042 0.274427,-0.0042 0.316407,0 l 0,0.00586 c 0.570922,0.089956 1.010706,0.5735043 1.029297,1.1660157 0,0.4959584 -0.265626,0.7126315 -0.265626,0.7324219 -0.263271,0.277065 -0.09832,0.5956216 0.373047,0.5566406 0,0 1.918496,0.0096 1.955079,0 0.193705,0.050375 0.335937,0.2340613 0.335937,0.4433594 l 0,2.0585932 c -0.08456,0.239284 -0.317446,0.286994 -0.527344,0.08789 -0.01979,0 -0.23451,-0.265625 -0.730469,-0.265625 -0.592511,0.01799 -1.076059,0.457775 -1.166015,1.029297 l -0.0078,0 c -0.0042,0.04198 -0.0042,0.272474 0,0.314453 l 0.0078,0 c 0.08996,0.570922 0.573504,1.010706 1.166015,1.029297 0.495959,0 0.710679,-0.265625 0.730469,-0.265625 0.215895,-0.2051 0.446983,-0.179425 0.527344,0.08984 l 0,2.224609 c 0,0.248879 -0.20034,0.449219 -0.449219,0.449219 l -6.273437,0 c -0.248879,0 -0.449819,-0.20034 -0.449219,-0.449219 l 0,-6.3027342 c 0,-0.2086984 0.144185,-0.392984 0.337891,-0.4433594 0.03658,0.0096 1.953125,0 1.953125,0 0.526543,0.025188 0.638271,-0.2795756 0.375,-0.5566406 0,-0.01979 -0.265625,-0.2364635 -0.265625,-0.7324219 0.01799,-0.5925114 0.455822,-1.0760595 1.027343,-1.1660157 l 0,-0.00586 z"
         transform="matrix(1.2558753,0,0,1.2558753,86.079743,-10.943699)"
         id="path10"
         inkscape:connector-curvature="0" /></g><g
       id="iconFg"
       transform="matrix(0.75315836,0,0,0.75315836,94.207946,-9.0065346)" /></g><path
     style="fill:#ffffff;fill-opacity:1"
     d="M 27.678467,30.241192 C 27.884847,30.147164 27.87,31.256338 27.87,15.9321 c 0,-15.32423624 0.01485,-14.2150579 -0.191533,-14.3090915 -0.133407,-0.060786 -22.7249974,-0.060786 -22.8584033,0 -0.206403,0.094042 -0.1916444,-1.01624159 -0.1902938,14.3161045 0.00107,11.621058 0.00937,14.095996 0.047601,14.165032 0.1041141,0.187844 -0.6479868,0.17629 11.5614926,0.177625 8.725716,0.001 11.369027,-0.0083 11.439601,-0.04057 z m -8.697822,-1.575368 c -0.261773,-0.100497 -0.526607,-0.368814 -0.625864,-0.634105 -0.278372,-0.744016 0.257947,-1.52895 1.044682,-1.52895 0.617657,0 1.120073,0.502416 1.120073,1.120073 0,0.788633 -0.796048,1.328154 -1.538891,1.042982 z m -7.701695,-0.972978 0,-0.700045 -0.700043,0 -0.7000454,0 0,-0.77005 0,-0.770048 0.7000454,0 0.700043,0 0,-0.700044 0,-0.700043 0.770049,0 0.770048,0 0,0.700043 0,0.700044 0.700045,0 0.700043,0 0,0.770048 0,0.77005 -0.700043,0 -0.700045,0 0,0.700045 0,0.700044 -0.770048,0 -0.770049,0 z m 10.151849,-1.127155 c -0.261771,-0.100496 -0.526606,-0.368814 -0.625865,-0.634105 -0.159999,-0.427637 -0.06381,-0.880043 0.254852,-1.198711 0.704078,-0.704077 1.909903,-0.205413 1.909903,0.789833 0,0.788635 -0.796047,1.328156 -1.53889,1.042983 z m -15.789895,-3.665457 -0.1023138,-0.10231 0,-10.156027 0,-10.156028 0.1023138,-0.1023148 0.1023149,-0.1023138 10.5060501,0 10.506048,0 0.102311,0.1023138 0.102311,0.1023148 0,10.156028 0,10.156027 -0.102311,0.10231 -0.102311,0.102312 -10.506048,0 -10.5060501,0 z"
     id="path4210"
     inkscape:connector-curvature="0"
     sodipodi:nodetypes="csssscscssssscccccccccccccccccccccccccsssssccccccccccccccccc" /></svg>