<?xml version="1.0" encoding="UTF-8" standalone="no"?>
<svg
   xmlns:dc="http://purl.org/dc/elements/1.1/"
   xmlns:cc="http://creativecommons.org/ns#"
   xmlns:rdf="http://www.w3.org/1999/02/22-rdf-syntax-ns#"
   xmlns:svg="http://www.w3.org/2000/svg"
   xmlns="http://www.w3.org/2000/svg"
   xmlns:sodipodi="http://sodipodi.sourceforge.net/DTD/sodipodi-0.dtd"
   xmlns:inkscape="http://www.inkscape.org/namespaces/inkscape"
   sodipodi:docname="logo.svg"
   inkscape:version="1.0beta2 (2b71d25, 2019-12-03)"
   id="svg2"
   xml:space="preserve"
   style="enable-background:new 0 0 32 32;"
   viewBox="0 0 32 32"
   y="0px"
   x="0px"
   version="1.1"><metadata
     id="metadata19"><rdf:RDF><cc:Work
         rdf:about=""><dc:format>image/svg+xml</dc:format><dc:type
           rdf:resource="http://purl.org/dc/dcmitype/StillImage" /><dc:title /></cc:Work></rdf:RDF></metadata><defs
     id="defs17" /><sodipodi:namedview
     inkscape:document-rotation="0"
     inkscape:current-layer="g4212"
     inkscape:window-maximized="0"
     inkscape:window-y="23"
     inkscape:window-x="0"
     inkscape:cy="12.073867"
     inkscape:cx="5.6814281"
     inkscape:zoom="19.975356"
     showgrid="false"
     id="namedview15"
     inkscape:window-height="897"
     inkscape:window-width="1294"
     inkscape:pageshadow="2"
     inkscape:pageopacity="0"
     guidetolerance="10"
     gridtolerance="10"
     objecttolerance="10"
     borderopacity="1"
     bordercolor="#666666"
     pagecolor="#e95153" /><style
     id="style4"
     type="text/css">
	.icon_x002D_canvas_x002D_transparent{opacity:0;fill:#F6F6F6;}
	.st0{fill:#AA278F;}
	.st1{fill:#FFFFFF;}
</style><g
     transform="matrix(0.79625737,0,0,0.79625737,-68.321972,9.8677439)"
     id="g4212"><path
       id="path167"
       transform="matrix(1.2558753,0,0,1.2558753,85.80388,-12.392656)"
       d="m 16.115234,6.8574219 v 0.00586 c -0.571521,0.089956 -1.009348,0.5735042 -1.027343,1.1660157 0,0.4959584 0.265625,0.7126317 0.265625,0.7324219 0.263274,0.2770649 0.151541,0.5818286 -0.375,0.5566406 0,0 -1.916577,0.0096 -1.953125,0 -0.193706,0.050375 -0.337891,0.234661 -0.337891,0.4433594 v 6.3027342 c -5.97e-4,0.248879 0.200341,0.449219 0.449219,0.449219 h 6.273437 c 0.248878,0 0.449219,-0.20034 0.449219,-0.449219 V 13.839844 C 19.779017,13.570579 19.547928,13.5449 19.332031,13.75 c -0.01979,0 -0.234504,0.265625 -0.730469,0.265625 -0.592511,-0.01859 -1.076054,-0.458375 -1.166015,-1.029297 h -0.0078 c -0.004,-0.04198 -0.004,-0.272473 0,-0.314453 h 0.0078 c 0.08996,-0.571522 0.573504,-1.011307 1.166015,-1.029297 0.495965,0 0.710642,0.265625 0.730469,0.265625 0.209902,0.199104 0.442781,0.151393 0.527344,-0.08789 V 9.7617188 c 0,-0.2092981 -0.142232,-0.3929844 -0.335937,-0.4433594 -0.03658,0.0096 -1.955079,0 -1.955079,0 -0.471368,0.038981 -0.636321,-0.2795757 -0.373047,-0.5566406 0,-0.019791 0.265626,-0.2364635 0.265626,-0.7324219 -0.01859,-0.5925114 -0.458373,-1.0760597 -1.029297,-1.1660157 v -0.00586 c -0.04198,-0.0042 -0.274444,-0.0042 -0.316407,0 z"
       style="fill:#ffffff;fill-opacity:1;stroke-width:1" /><path
       id="path165"
       transform="matrix(1.2558753,0,0,1.2558753,85.80388,-12.392656)"
       d="m 11.429688,5.7792969 c -0.584117,0 -1.034366,0.1599492 -1.375,0.4921875 -0.340035,0.332238 -0.5108412,0.7696592 -0.523438,1.3339844 -0.014396,0.6974601 -0.027071,1.2766601 -0.039063,1.7402343 -0.012594,0.494759 -0.051976,0.8629279 -0.1191406,1.1249999 -0.075563,0.292658 -0.2113445,0.543239 -0.40625,0.744141 -0.1733158,0.178713 -0.4354051,0.373965 -0.7988281,0.597656 -0.1619238,0.09955 -0.234375,0.246276 -0.234375,0.476562 0,0.223693 0.049323,0.306242 0.070312,0.332032 0.076163,0.09176 0.2036382,0.190572 0.3769532,0.294922 0.2398837,0.14393 0.447024,0.314552 0.6191406,0.505859 0.1913064,0.212896 0.3301199,0.50109 0.421875,0.878906 0.032984,0.136134 0.070994,0.561998 0.109375,2.69336 0.0042,0.361024 0.087925,0.681765 0.2480469,0.957031 0.1601226,0.274666 0.3727191,0.479428 0.6503911,0.626953 0.281862,0.149923 0.618587,0.226563 1,0.226563 0.620674,-10e-7 0.671874,-0.239849 0.671874,-0.486329 0,-0.169716 -0.03424,-0.296593 -0.09961,-0.376953 -0.06357,-0.07676 -0.128933,-0.115553 -0.212891,-0.126953 -0.23808,-0.02699 -0.420353,-0.06577 -0.554687,-0.119141 -0.187109,-0.07436 -0.332691,-0.207576 -0.431641,-0.396484 -0.08095,-0.155324 -0.130902,-0.374711 -0.154296,-0.667969 -0.0198,-0.252477 -0.0293,-0.60194 -0.0293,-1.070312 0,-0.450381 -0.02172,-0.845342 -0.0625,-1.175781 -0.03898,-0.311848 -0.104916,-0.581443 -0.197266,-0.802735 -0.08816,-0.212296 -0.199496,-0.393179 -0.332031,-0.537109 C 9.8876117,12.892596 9.6997911,12.741586 9.4707031,12.597656 L 8.9785156,12.289062 9.4707031,11.978516 c 0.319644,-0.202102 0.5610269,-0.418442 0.7187499,-0.644532 0.155324,-0.223091 0.263322,-0.498562 0.320313,-0.816406 0.06297,-0.350829 0.09782,-0.8494382 0.107422,-1.486328 0,-0.4539789 0.0094,-0.7940737 0.02734,-1.0351562 0.01979,-0.2782645 0.06626,-0.4929755 0.140625,-0.6542969 0.09355,-0.2021016 0.243487,-0.3491725 0.433594,-0.4277344 0.135537,-0.055174 0.322039,-0.097276 0.570312,-0.1308594 0.05818,-0.0072 0.10181,-0.024856 0.142579,-0.056641 0.04321,-0.032984 0.08151,-0.086992 0.113281,-0.1601563 0.03719,-0.085758 0.05664,-0.1791619 0.05664,-0.2871093 0,-0.1703172 -0.04435,-0.2865181 -0.136718,-0.3632813 -0.11154,-0.091756 -0.290475,-0.1367187 -0.535156,-0.1367187 z"
       style="fill:#ffffff;fill-opacity:1;stroke-width:1" /><path
       id="path163"
       transform="matrix(1.2558753,0,0,1.2558753,85.80388,-12.392656)"
       d="m 21.146484,5.7773438 c -0.620674,0 -0.671875,0.2404478 -0.671875,0.4863281 0,0.1697172 0.03173,0.2971921 0.09766,0.3769531 0.06297,0.076763 0.130289,0.1155595 0.214843,0.1269531 0.238089,0.026987 0.418995,0.065767 0.552735,0.1191407 0.187104,0.073764 0.333295,0.2075763 0.43164,0.3964843 0.08096,0.1559242 0.130887,0.3747116 0.154297,0.6679688 0.02038,0.2524769 0.0293,0.6019406 0.0293,1.0703125 0,0.4503805 0.02173,0.8453418 0.0625,1.1757816 0.03838,0.311848 0.105505,0.583995 0.197266,0.804687 0.08756,0.211697 0.199502,0.392581 0.332031,0.537109 0.140332,0.152327 0.325596,0.301383 0.554687,0.445313 l 0.492188,0.310547 -0.490234,0.310547 c -0.319642,0.202101 -0.562222,0.417687 -0.71875,0.642578 -0.155318,0.223091 -0.263301,0.496608 -0.320313,0.814453 -0.06299,0.350829 -0.09779,0.851991 -0.107422,1.488281 0,0.453979 -0.01,0.794073 -0.02734,1.035157 -0.01979,0.278264 -0.0643,0.491022 -0.138672,0.652343 -0.09355,0.202702 -0.243488,0.351128 -0.433594,0.429688 -0.135531,0.05517 -0.322032,0.09788 -0.570313,0.130859 -0.05817,0.0072 -0.103762,0.02486 -0.144531,0.05664 -0.04258,0.03358 -0.08151,0.087 -0.113281,0.160156 -0.03782,0.08576 -0.05469,0.179762 -0.05469,0.287109 0,0.170317 0.04181,0.286522 0.134766,0.363282 0.110943,0.09175 0.29183,0.138672 0.537109,0.138672 0.584111,0 1.032416,-0.161904 1.373047,-0.494141 0.340042,-0.332239 0.510857,-0.767706 0.523438,-1.332031 0.01441,-0.697461 0.02899,-1.278614 0.04102,-1.742188 0.0126,-0.494759 0.04998,-0.862928 0.117188,-1.125 0.07556,-0.292657 0.211939,-0.543838 0.40625,-0.74414 0.17391,-0.178713 0.435408,-0.373966 0.798828,-0.597657 0.161919,-0.09955 0.234375,-0.244921 0.234375,-0.474609 0,-0.223691 -0.04929,-0.308195 -0.07031,-0.333984 -0.07556,-0.09116 -0.201089,-0.189973 -0.375,-0.294922 -0.239888,-0.14453 -0.448974,-0.314553 -0.621093,-0.50586 C 23.38291,10.94726 23.24605,10.661019 23.154297,10.283203 23.121324,10.147069 23.081348,9.7192524 23.042969,7.5878906 23.038765,7.2268665 22.955041,6.9055256 22.794922,6.6308594 22.634802,6.3567929 22.422799,6.1520342 22.144531,6.0039062 21.862672,5.8545792 21.5279,5.7773438 21.146484,5.7773438 Z"
       style="fill:#ffffff;fill-opacity:1;stroke-width:1" /><g
       transform="matrix(0.75315836,0,0,0.75315836,94.207946,-9.0065346)"
       id="iconFg" /></g><path
     sodipodi:nodetypes="csssscscssssscccccccccccccccccccccccccsssssccccccccccccccccc"
     inkscape:connector-curvature="0"
     id="path4210"
     d="m 28.621433,31.422007 c 0.223408,-0.101787 0.207336,1.098903 0.207336,-15.489703 0,-16.58860461 0.01608,-15.38791052 -0.207336,-15.48970256 -0.144414,-0.0658009 -24.599985,-0.0658009 -24.7443979,0 -0.2234329,0.10180152 -0.2074566,-1.1000894 -0.2059945,15.49729356 0.00116,12.579885 0.010139,15.259025 0.051529,15.333757 0.1127043,0.203343 -0.7014508,0.190835 12.5154051,0.19228 9.445655,0.0011 12.30706,-0.009 12.383457,-0.04392 z m -9.415459,-1.705349 c -0.283371,-0.108788 -0.570056,-0.399244 -0.677503,-0.686423 -0.30134,-0.805403 0.27923,-1.6551 1.130877,-1.6551 0.668618,0 1.212487,0.543869 1.212487,1.212487 0,0.853702 -0.861728,1.437737 -1.665861,1.129036 z m -8.337145,-1.053256 0,-0.757804 -0.757802,0 -0.757804,0 0,-0.833585 0,-0.833583 0.757804,0 0.757802,0 0,-0.757803 0,-0.757802 0.833584,0 0.833583,0 0,0.757802 0,0.757803 0.757804,0 0.757803,0 0,0.833583 0,0.833585 -0.757803,0 -0.757804,0 0,0.757804 0,0.757803 -0.833583,0 -0.833584,0 z m 10.989456,-1.220154 c -0.28337,-0.108787 -0.570055,-0.399244 -0.677504,-0.686423 -0.1732,-0.462921 -0.06908,-0.952654 0.275879,-1.297614 0.76217,-0.762169 2.067485,-0.222361 2.067485,0.855 0,0.853704 -0.861727,1.437739 -1.66586,1.129037 z M 4.7656011,23.475363 4.6548456,23.364611 l 0,-10.993978 0,-10.9939784 0.1107555,-0.1107566 0.1107566,-0.1107555 11.3728803,0 11.372879,0 0.110752,0.1107555 0.110752,0.1107566 0,10.9939784 0,10.993978 -0.110752,0.110752 -0.110752,0.110753 -11.372879,0 -11.3728803,0 z"
     style="fill:#ffffff;fill-opacity:1" /></svg>
