<?xml version="1.0" encoding="UTF-8" standalone="no"?>
<!-- Generator: Adobe Illustrator 21.0.2, SVG Export Plug-In . SVG Version: 6.00 Build 0)  -->

<svg
   xmlns:dc="http://purl.org/dc/elements/1.1/"
   xmlns:cc="http://creativecommons.org/ns#"
   xmlns:rdf="http://www.w3.org/1999/02/22-rdf-syntax-ns#"
   xmlns:svg="http://www.w3.org/2000/svg"
   xmlns="http://www.w3.org/2000/svg"
   xmlns:sodipodi="http://sodipodi.sourceforge.net/DTD/sodipodi-0.dtd"
   xmlns:inkscape="http://www.inkscape.org/namespaces/inkscape"
   version="1.1"
   x="0px"
   y="0px"
   viewBox="0 0 32 32"
   style="enable-background:new 0 0 32 32;"
   xml:space="preserve"
   id="svg2"
   inkscape:version="0.91 r13725"
   sodipodi:docname="logo.svg"><metadata
     id="metadata19"><rdf:RDF><cc:Work
         rdf:about=""><dc:format>image/svg+xml</dc:format><dc:type
           rdf:resource="http://purl.org/dc/dcmitype/StillImage" /><dc:title></dc:title></cc:Work></rdf:RDF></metadata><defs
     id="defs17" /><sodipodi:namedview
     pagecolor="#e95153"
     bordercolor="#666666"
     borderopacity="1"
     objecttolerance="10"
     gridtolerance="10"
     guidetolerance="10"
     inkscape:pageopacity="0"
     inkscape:pageshadow="2"
     inkscape:window-width="1294"
     inkscape:window-height="897"
     id="namedview15"
     showgrid="false"
     inkscape:zoom="14.75"
     inkscape:cx="11.428549"
     inkscape:cy="11.506836"
     inkscape:window-x="0"
     inkscape:window-y="0"
     inkscape:window-maximized="0"
     inkscape:current-layer="svg2" /><style
     type="text/css"
     id="style4">
	.icon_x002D_canvas_x002D_transparent{opacity:0;fill:#F6F6F6;}
	.st0{fill:#AA278F;}
	.st1{fill:#FFFFFF;}
</style><g
     id="g4212"
     transform="matrix(0.79625737,0,0,0.79625737,-68.321972,9.8677439)"><g
       id="iconBg"
       transform="translate(-0.27586245,-1.4489569)"><path
         style="fill:#ffffff;fill-opacity:1"
         d="M 10.453125 4.7871094 C 10.453125 4.7871094 10.047716 4.8258887 9.875 4.90625 C 9.7646499 4.9572248 9.6640036 5.0186162 9.5644531 5.0839844 C 9.389337 5.1793379 9.2273147 5.2953693 9.0839844 5.4375 C 8.6683858 5.8500995 8.4491534 6.3967032 8.4179688 7.0761719 C 8.3843826 7.3148557 8.3652344 7.569837 8.3652344 7.8457031 L 8.3652344 9.3808594 C 8.3535596 9.677712 8.3162739 9.9512479 8.2539062 10.203125 C 8.1915354 10.454402 8.0854734 10.661698 7.9355469 10.824219 C 7.892971 10.861397 7.8528367 10.900028 7.8144531 10.941406 C 7.6555305 11.084137 7.4317743 11.246485 7.1367188 11.433594 C 6.8944359 11.590718 6.7539618 11.814748 6.7089844 12.099609 C 6.7083848 12.103814 6.7076261 12.108477 6.7070312 12.113281 C 6.6992279 12.168451 6.6939486 12.225185 6.6933594 12.285156 C 6.6927598 12.288771 6.6914062 12.291289 6.6914062 12.294922 L 6.6914062 12.298828 L 6.6914062 12.302734 C 6.6914062 12.367501 6.6945948 12.428003 6.7011719 12.484375 C 6.7203537 12.655292 6.7695379 12.785798 6.8457031 12.876953 C 6.9482539 12.999294 7.1204013 13.137491 7.3632812 13.291016 C 7.6067632 13.444541 7.8045512 13.610195 7.9550781 13.787109 C 8.1062038 13.964623 8.2201118 14.227142 8.296875 14.576172 C 8.3262649 14.712306 8.3482877 15.006805 8.3632812 15.458984 L 8.3632812 16.669922 C 8.3632812 16.897811 8.3831711 17.103323 8.4101562 17.298828 C 8.4107566 17.336611 8.4109946 17.37313 8.4121094 17.412109 C 8.4175239 17.881082 8.5190479 18.296579 8.71875 18.658203 C 8.9184537 19.020427 9.2019385 19.300143 9.5683594 19.498047 C 9.9347803 19.695951 10.351034 19.794922 10.816406 19.794922 L 22.123047 19.794922 C 22.332948 19.794922 22.526511 19.756143 22.699219 19.675781 C 22.809572 19.624805 22.912768 19.563416 23.011719 19.498047 C 23.186234 19.402693 23.346908 19.286662 23.490234 19.144531 C 23.905833 18.731931 24.125061 18.183375 24.15625 17.503906 C 24.189772 17.265223 24.208984 17.01024 24.208984 16.734375 L 24.208984 15.201172 C 24.220291 14.904317 24.25795 14.62883 24.320312 14.376953 C 24.382739 14.125675 24.488753 13.920333 24.638672 13.757812 C 24.681192 13.720626 24.721418 13.682003 24.759766 13.640625 C 24.918691 13.497895 25.142439 13.333594 25.4375 13.146484 C 25.679777 12.989361 25.822199 12.767283 25.867188 12.482422 C 25.867785 12.478218 25.866988 12.473554 25.867188 12.46875 C 25.874354 12.413581 25.880302 12.356846 25.880859 12.296875 C 25.880262 12.295115 25.880859 12.290731 25.880859 12.287109 L 25.882812 12.287109 L 25.882812 12.285156 L 25.882812 12.28125 C 25.882812 12.216483 25.8787 12.155982 25.873047 12.099609 C 25.853857 11.928693 25.804566 11.798187 25.728516 11.707031 C 25.625958 11.584691 25.45382 11.444541 25.210938 11.291016 C 24.967458 11.137491 24.769665 10.971836 24.619141 10.794922 C 24.468011 10.617409 24.354103 10.35489 24.277344 10.005859 C 24.248041 9.869726 24.225987 9.5752266 24.210938 9.1230469 L 24.210938 7.9121094 C 24.210938 7.6842208 24.190976 7.4767541 24.164062 7.28125 C 24.163457 7.243466 24.163702 7.2088999 24.162109 7.1699219 C 24.156536 6.7009994 24.055162 6.2854514 23.855469 5.9238281 C 23.655759 5.5616043 23.372281 5.281888 23.005859 5.0839844 C 22.639438 4.8860807 22.223193 4.7871094 21.757812 4.7871094 L 10.455078 4.7871094 L 10.453125 4.7871094 z M 21.146484 5.7773438 C 21.527899 5.7773438 21.862669 5.854579 22.144531 6.0039062 C 22.422796 6.1520341 22.6348 6.3567929 22.794922 6.6308594 C 22.955044 6.9055256 23.038771 7.2268665 23.042969 7.5878906 C 23.08135 9.7192525 23.121313 10.147069 23.154297 10.283203 C 23.246052 10.661019 23.382912 10.94726 23.574219 11.160156 C 23.746335 11.351463 23.955429 11.521486 24.195312 11.666016 C 24.369228 11.770965 24.494749 11.869782 24.570312 11.960938 C 24.591302 11.986725 24.640625 12.071231 24.640625 12.294922 C 24.640625 12.52461 24.568171 12.66998 24.40625 12.769531 C 24.042827 12.993222 23.781337 13.188475 23.607422 13.367188 C 23.413117 13.56749 23.276735 13.818671 23.201172 14.111328 C 23.134005 14.3734 23.096578 14.741569 23.083984 15.236328 C 23.07199 15.699902 23.057362 16.281055 23.042969 16.978516 C 23.030375 17.542841 22.859566 17.978309 22.519531 18.310547 C 22.178897 18.642785 21.7306 18.804688 21.146484 18.804688 C 20.901204 18.804688 20.720321 18.757771 20.609375 18.666016 C 20.51642 18.589253 20.474609 18.473051 20.474609 18.302734 C 20.474609 18.195387 20.491515 18.101383 20.529297 18.015625 C 20.561081 17.942461 20.599999 17.889052 20.642578 17.855469 C 20.683358 17.823684 20.728938 17.806025 20.787109 17.798828 C 21.035388 17.765844 21.221888 17.723142 21.357422 17.667969 C 21.547529 17.589407 21.697461 17.440983 21.791016 17.238281 C 21.865379 17.07696 21.909897 16.864202 21.929688 16.585938 C 21.947079 16.344855 21.957031 16.00476 21.957031 15.550781 C 21.966627 14.914491 22.001484 14.413329 22.064453 14.0625 C 22.121425 13.744655 22.229441 13.471138 22.384766 13.248047 C 22.541289 13.023156 22.783871 12.80757 23.103516 12.605469 L 23.59375 12.294922 L 23.101562 11.984375 C 22.872474 11.840445 22.687207 11.691388 22.546875 11.539062 C 22.41434 11.394533 22.302401 11.21365 22.214844 11.001953 C 22.123088 10.781261 22.055959 10.509114 22.017578 10.197266 C 21.976798 9.8668266 21.955078 9.471865 21.955078 9.0214844 C 21.955078 8.5531125 21.946171 8.2036489 21.925781 7.9511719 C 21.902393 7.6579147 21.852445 7.4391272 21.771484 7.2832031 C 21.673132 7.0942951 21.526953 6.9604828 21.339844 6.8867188 C 21.206109 6.8333447 21.025193 6.794565 20.787109 6.7675781 C 20.702551 6.7561837 20.635235 6.7173876 20.572266 6.640625 C 20.506298 6.5608638 20.474609 6.4333892 20.474609 6.2636719 C 20.474609 6.0177916 20.525787 5.7773438 21.146484 5.7773438 z M 11.429688 5.7792969 C 11.674368 5.7792969 11.853298 5.8242603 11.964844 5.9160156 C 12.057199 5.9927782 12.101562 6.1089798 12.101562 6.2792969 C 12.101562 6.3872443 12.082104 6.480648 12.044922 6.5664062 C 12.013137 6.6395706 11.97482 6.6935786 11.931641 6.7265625 C 11.89086 6.758347 11.847234 6.7760066 11.789062 6.7832031 C 11.540783 6.8167868 11.354284 6.8588894 11.21875 6.9140625 C 11.028643 6.9926242 10.878711 7.1396953 10.785156 7.3417969 C 10.710792 7.5031183 10.664322 7.7178293 10.644531 7.9960938 C 10.62654 8.2371763 10.617188 8.5772711 10.617188 9.03125 C 10.607592 9.6681398 10.572735 10.166749 10.509766 10.517578 C 10.452793 10.835423 10.344777 11.110893 10.189453 11.333984 C 10.03173 11.560074 9.7903474 11.776414 9.4707031 11.978516 L 8.9785156 12.289062 L 9.4707031 12.597656 C 9.6997915 12.741586 9.8876118 12.892596 10.027344 13.044922 C 10.159879 13.188852 10.271218 13.369735 10.359375 13.582031 C 10.45173 13.803323 10.51766 14.072918 10.556641 14.384766 C 10.597421 14.715205 10.619141 15.110166 10.619141 15.560547 C 10.619141 16.028919 10.628647 16.378382 10.648438 16.630859 C 10.671826 16.924117 10.721774 17.143504 10.802734 17.298828 C 10.901686 17.487736 11.047266 17.620949 11.234375 17.695312 C 11.36871 17.748687 11.550978 17.787466 11.789062 17.814453 C 11.873022 17.825848 11.938384 17.864644 12.001953 17.941406 C 12.067321 18.021767 12.101562 18.148642 12.101562 18.318359 C 12.101562 18.564839 12.050385 18.804688 11.429688 18.804688 C 11.048273 18.804688 10.71155 18.728052 10.429688 18.578125 C 10.152023 18.430597 9.9394189 18.225838 9.7792969 17.951172 C 9.6191749 17.675906 9.535448 17.355165 9.53125 16.994141 C 9.4928687 14.862779 9.4548589 14.436915 9.421875 14.300781 C 9.3301197 13.922965 9.1913068 13.634771 9 13.421875 C 8.8278838 13.230568 8.6207425 13.059946 8.3808594 12.916016 C 8.2075438 12.811666 8.0800692 12.712849 8.0039062 12.621094 C 7.9829165 12.595306 7.9335938 12.512754 7.9335938 12.289062 C 7.9335937 12.058775 8.0060476 11.912052 8.1679688 11.8125 C 8.5313917 11.588809 8.7934813 11.393557 8.9667969 11.214844 C 9.1617019 11.013942 9.2974837 10.763361 9.3730469 10.470703 C 9.4402142 10.208631 9.4795936 9.8404621 9.4921875 9.3457031 C 9.5041817 8.8821289 9.516857 8.302929 9.53125 7.6054688 C 9.5438439 7.0411436 9.7146531 6.6037225 10.054688 6.2714844 C 10.395322 5.9392462 10.845572 5.7792969 11.429688 5.7792969 z M 16.115234 6.8574219 C 16.157214 6.8532239 16.389661 6.8532239 16.431641 6.8574219 L 16.431641 6.8632812 C 17.002563 6.9532374 17.442347 7.4367855 17.460938 8.0292969 C 17.460938 8.5252553 17.195312 8.7419284 17.195312 8.7617188 C 16.932041 9.0387838 17.096989 9.3573404 17.568359 9.3183594 C 17.568359 9.3183594 19.486855 9.3279547 19.523438 9.3183594 C 19.717143 9.3687348 19.859375 9.5524207 19.859375 9.7617188 L 19.859375 11.820312 C 19.774816 12.059596 19.541929 12.107306 19.332031 11.908203 C 19.312241 11.908203 19.097521 11.642578 18.601562 11.642578 C 18.009051 11.660569 17.525503 12.100353 17.435547 12.671875 L 17.427734 12.671875 C 17.423536 12.713855 17.423536 12.944349 17.427734 12.986328 L 17.435547 12.986328 C 17.525503 13.55725 18.009051 13.997034 18.601562 14.015625 C 19.097521 14.015625 19.312241 13.75 19.332031 13.75 C 19.547926 13.5449 19.779014 13.570575 19.859375 13.839844 L 19.859375 16.064453 C 19.859375 16.313332 19.659035 16.513672 19.410156 16.513672 L 13.136719 16.513672 C 12.88784 16.513672 12.6869 16.313332 12.6875 16.064453 L 12.6875 9.7617188 C 12.6875 9.5530204 12.831685 9.3687348 13.025391 9.3183594 C 13.061973 9.3279547 14.978516 9.3183594 14.978516 9.3183594 C 15.505059 9.3435471 15.616787 9.0387838 15.353516 8.7617188 C 15.353516 8.7419284 15.087891 8.5252553 15.087891 8.0292969 C 15.105882 7.4367855 15.543713 6.9532374 16.115234 6.8632812 L 16.115234 6.8574219 z "
         transform="matrix(1.2558753,0,0,1.2558753,86.079743,-10.943699)"
         id="path10" /></g><g
       id="iconFg"
       transform="matrix(0.75315836,0,0,0.75315836,94.207946,-9.0065346)" /></g><path
     style="fill:#ffffff;fill-opacity:1"
     d="m 28.621433,31.422007 c 0.223408,-0.101787 0.207336,1.098903 0.207336,-15.489703 0,-16.58860461 0.01608,-15.38791052 -0.207336,-15.48970256 -0.144414,-0.0658009 -24.599985,-0.0658009 -24.7443979,0 -0.2234329,0.10180152 -0.2074566,-1.1000894 -0.2059945,15.49729356 0.00116,12.579885 0.010139,15.259025 0.051529,15.333757 0.1127043,0.203343 -0.7014508,0.190835 12.5154051,0.19228 9.445655,0.0011 12.30706,-0.009 12.383457,-0.04392 z m -9.415459,-1.705349 c -0.283371,-0.108788 -0.570056,-0.399244 -0.677503,-0.686423 -0.30134,-0.805403 0.27923,-1.6551 1.130877,-1.6551 0.668618,0 1.212487,0.543869 1.212487,1.212487 0,0.853702 -0.861728,1.437737 -1.665861,1.129036 z m -8.337145,-1.053256 0,-0.757804 -0.757802,0 -0.757804,0 0,-0.833585 0,-0.833583 0.757804,0 0.757802,0 0,-0.757803 0,-0.757802 0.833584,0 0.833583,0 0,0.757802 0,0.757803 0.757804,0 0.757803,0 0,0.833583 0,0.833585 -0.757803,0 -0.757804,0 0,0.757804 0,0.757803 -0.833583,0 -0.833584,0 z m 10.989456,-1.220154 c -0.28337,-0.108787 -0.570055,-0.399244 -0.677504,-0.686423 -0.1732,-0.462921 -0.06908,-0.952654 0.275879,-1.297614 0.76217,-0.762169 2.067485,-0.222361 2.067485,0.855 0,0.853704 -0.861727,1.437739 -1.66586,1.129037 z M 4.7656011,23.475363 4.6548456,23.364611 l 0,-10.993978 0,-10.9939784 0.1107555,-0.1107566 0.1107566,-0.1107555 11.3728803,0 11.372879,0 0.110752,0.1107555 0.110752,0.1107566 0,10.9939784 0,10.993978 -0.110752,0.110752 -0.110752,0.110753 -11.372879,0 -11.3728803,0 z"
     id="path4210"
     inkscape:connector-curvature="0"
     sodipodi:nodetypes="csssscscssssscccccccccccccccccccccccccsssssccccccccccccccccc" /></svg>