<?xml version="1.0" encoding="UTF-8" standalone="no"?>
<svg
   xmlns:dc="http://purl.org/dc/elements/1.1/"
   xmlns:cc="http://creativecommons.org/ns#"
   xmlns:rdf="http://www.w3.org/1999/02/22-rdf-syntax-ns#"
   xmlns:svg="http://www.w3.org/2000/svg"
   xmlns="http://www.w3.org/2000/svg"
   xmlns:sodipodi="http://sodipodi.sourceforge.net/DTD/sodipodi-0.dtd"
   xmlns:inkscape="http://www.inkscape.org/namespaces/inkscape"
   version="1.1"
   x="0px"
   y="0px"
   viewBox="0 0 32 32"
   style="enable-background:new 0 0 32 32;"
   xml:space="preserve"
   id="svg2"
   inkscape:version="1.0beta2 (2b71d25, 2019-12-03)"
   sodipodi:docname="logo.svg"><metadata
     id="metadata19"><rdf:RDF><cc:Work
         rdf:about=""><dc:format>image/svg+xml</dc:format><dc:type
           rdf:resource="http://purl.org/dc/dcmitype/StillImage" /><dc:title /></cc:Work></rdf:RDF></metadata><defs
     id="defs17" /><sodipodi:namedview
     pagecolor="#e95153"
     bordercolor="#666666"
     borderopacity="1"
     objecttolerance="10"
     gridtolerance="10"
     guidetolerance="10"
     inkscape:pageopacity="0"
     inkscape:pageshadow="2"
     inkscape:window-width="1847"
     inkscape:window-height="1065"
     id="namedview15"
     showgrid="false"
     inkscape:zoom="19.975356"
     inkscape:cx="-3.2045212"
     inkscape:cy="12.073867"
     inkscape:window-x="0"
     inkscape:window-y="23"
     inkscape:window-maximized="0"
     inkscape:current-layer="g4212"
     inkscape:document-rotation="0" /><style
     type="text/css"
     id="style4">
	.icon_x002D_canvas_x002D_transparent{opacity:0;fill:#F6F6F6;}
	.st0{fill:#AA278F;}
	.st1{fill:#FFFFFF;}
</style><g
     id="g4212"
     transform="matrix(0.79625737,0,0,0.79625737,-68.321972,9.8677439)"><path
       inkscape:connector-curvature="0"
       style="fill:#ffffff;fill-opacity:1;stroke-width:1.56984"
       d="m 105.98864,-5.4865683 v 0.0092 c -0.8972,0.1412169 -1.58452,0.9003122 -1.61277,1.8304629 0,0.7785774 0.41699,1.1187207 0.41699,1.1497883 0.4133,0.4349487 0.2379,0.9133802 -0.58869,0.8738389 0,0 -3.00873,0.01507 -3.0661,0 -0.30409,0.079081 -0.53044,0.3683812 -0.53044,0.69600519 V 8.9670364 c -9.4e-4,0.3907013 0.31451,0.7052039 0.7052,0.7052039 h 9.84832 c 0.3907,0 0.70521,-0.3145026 0.70521,-0.7052039 V 5.474746 c -0.12615,-0.4227041 -0.48893,-0.4630161 -0.82785,-0.1410411 -0.0311,0 -0.36814,0.4169898 -1.14672,0.4169898 -0.93015,-0.029183 -1.68924,-0.7195773 -1.83047,-1.6158358 h -0.0122 c -0.006,-0.065902 -0.006,-0.4277401 0,-0.4936422 h 0.0122 c 0.14123,-0.8972005 0.90032,-1.5875944 1.83047,-1.6158358 0.77858,0 1.11559,0.4169898 1.14672,0.4169898 0.32951,0.3125622 0.6951,0.2376634 0.82785,-0.1379736 v -3.23167201 c 0,-0.32856539 -0.22329,-0.61692429 -0.52737,-0.69600519 -0.0574,0.01507 -3.06917,0 -3.06917,0 -0.73998,0.061194 -0.99893,-0.4388902 -0.58563,-0.8738389 0,-0.031069 0.41699,-0.3712109 0.41699,-1.1497883 -0.0292,-0.9301505 -0.71957,-1.689246 -1.61583,-1.8304629 v -0.0092 c -0.0659,-0.00659 -0.43084,-0.00659 -0.49671,1.9e-6 z"
       id="path167" /><path
       inkscape:connector-curvature="0"
       style="fill:#ffffff;fill-opacity:1;stroke-width:1.56984"
       d="m 98.633062,-7.1790565 c -0.916972,0 -1.623793,0.2510953 -2.158536,0.7726576 -0.533801,0.5215619 -0.801941,1.208245 -0.821716,2.0941476 -0.0226,1.0949036 -0.0425,2.0041574 -0.06132,2.7318966 -0.01977,0.77669449 -0.08159,1.35466228 -0.187033,1.76607447 C 95.285835,0.64514721 95.072679,1.0385203 94.766708,1.3539051 94.494629,1.6344567 94.08319,1.9409719 93.512673,2.2921319 93.258478,2.4484099 93.14474,2.6787468 93.14474,3.04026 c 0,0.3511631 0.07743,0.4807522 0.110379,0.5212384 0.119564,0.1440489 0.319681,0.2991684 0.591758,0.4629816 0.37658,0.2259477 0.701758,0.4937976 0.971954,0.7941198 0.300322,0.3342135 0.518237,0.7866332 0.662278,1.3797454 0.05178,0.2137092 0.11145,0.8822493 0.171702,4.2281558 0.0066,0.566751 0.138029,1.070264 0.389395,1.502389 0.251367,0.431183 0.585111,0.752627 1.021013,0.984219 0.442479,0.235355 0.971085,0.355668 1.569844,0.355668 0.974361,-10e-7 1.054737,-0.376525 1.054737,-0.763461 0,-0.266427 -0.05375,-0.465604 -0.156372,-0.591757 -0.0998,-0.120501 -0.202405,-0.1814 -0.334206,-0.199296 -0.373748,-0.04237 -0.659888,-0.103249 -0.870772,-0.187033 -0.293732,-0.116734 -0.522273,-0.325862 -0.677609,-0.622418 -0.127079,-0.243835 -0.205496,-0.588238 -0.242221,-1.0486075 -0.03108,-0.3963496 -0.046,-0.944952 -0.046,-1.680223 0,-0.707028 -0.0341,-1.3270552 -0.09812,-1.8457929 C 97.201314,5.8406358 97.097805,5.4174137 96.95283,5.0700198 96.814432,4.7367481 96.639652,4.45279 96.431593,4.2268423 96.212243,3.9877143 95.917394,3.7506521 95.557761,3.5247044 L 94.785104,3.04026 95.557761,2.5527511 c 0.501791,-0.3172686 0.880725,-0.6568887 1.128326,-1.0118147 0.243834,-0.3502181 0.413374,-0.78266465 0.502841,-1.28163019 0.09885,-0.55074684 0.153562,-1.33348561 0.168636,-2.33330331 0,-0.7126761 0.01476,-1.2465719 0.04292,-1.6250338 0.03107,-0.4368319 0.104018,-0.7738947 0.22076,-1.0271442 0.146859,-0.317268 0.382236,-0.5481464 0.680675,-0.6714763 0.212772,-0.086615 0.505551,-0.1527082 0.895301,-0.2054289 0.09133,-0.011303 0.159825,-0.03902 0.223826,-0.088917 0.06783,-0.05178 0.127958,-0.1365639 0.177834,-0.2514205 0.05838,-0.1346266 0.08892,-0.2812562 0.08892,-0.4507168 0,-0.2673715 -0.06962,-0.4497888 -0.214626,-0.570295 -0.1751,-0.1440426 -0.456001,-0.2146271 -0.840112,-0.2146269 z"
       id="path165" /><path
       inkscape:connector-curvature="0"
       style="fill:#ffffff;fill-opacity:1;stroke-width:1.56984"
       d="m 113.88692,-7.1821226 c -0.97436,0 -1.05474,0.3774656 -1.05474,0.7634593 0,0.2664296 0.0498,0.4665453 0.15331,0.5917576 0.0988,0.120506 0.20453,0.1814104 0.33727,0.1992966 0.37376,0.042365 0.65776,0.1032439 0.86771,0.1870323 0.29372,0.115798 0.52322,0.3258625 0.6776,0.6224186 0.1271,0.2447767 0.20548,0.5882388 0.24223,1.0486069 0.032,0.3963494 0.046,0.9449529 0.046,1.6802238 0,0.7070271 0.0341,1.32705482 0.0981,1.8457938 0.0603,0.48955275 0.16562,0.91678112 0.30968,1.2632332 0.13745,0.3323313 0.31318,0.6162909 0.52123,0.8431774 0.2203,0.2391296 0.51114,0.4731243 0.87077,0.699072 l 0.77266,0.4875103 -0.76959,0.4875104 c -0.50179,0.3172671 -0.8826,0.6557035 -1.12832,1.0087473 -0.24383,0.3502181 -0.41335,0.7795972 -0.50285,1.2785643 -0.0989,0.5507468 -0.15351,1.3374931 -0.16863,2.3363692 0,0.7126762 -0.0157,1.2465708 -0.0429,1.6250351 -0.0311,0.4368315 -0.10094,0.7708285 -0.21769,1.0240765 -0.14686,0.318211 -0.38224,0.551217 -0.68068,0.674544 -0.21276,0.08661 -0.50554,0.153656 -0.8953,0.205428 -0.0913,0.0113 -0.16289,0.03903 -0.22689,0.08892 -0.0668,0.05271 -0.12796,0.136576 -0.17784,0.25142 -0.0594,0.13463 -0.0859,0.282198 -0.0859,0.450716 0,0.267371 0.0656,0.449795 0.21156,0.570296 0.17416,0.144033 0.45813,0.217694 0.84318,0.217694 0.91696,0 1.62073,-0.254164 2.15547,-0.775725 0.53381,-0.521563 0.80196,-1.205179 0.82171,-2.091081 0.0226,-1.0949048 0.0455,-2.0072245 0.0644,-2.7349634 0.0198,-0.7766945 0.0785,-1.3546624 0.18397,-1.7660746 0.11861,-0.4594259 0.33271,-0.8537409 0.63775,-1.1681838 0.27301,-0.2805516 0.68352,-0.5870684 1.25403,-0.9382284 0.25419,-0.156278 0.36793,-0.3844878 0.36793,-0.7450621 0,-0.35116 -0.0774,-0.4838181 -0.11037,-0.5243028 -0.11862,-0.143107 -0.31568,-0.298228 -0.58869,-0.4629816 -0.37659,-0.2268896 -0.70482,-0.4937992 -0.97502,-0.7941214 -0.30035,-0.33421192 -0.5152,-0.78356568 -0.65924,-1.3766779 -0.0518,-0.21370916 -0.11452,-0.88531454 -0.17477,-4.2312203 -0.007,-0.5667516 -0.13803,-1.0712067 -0.38939,-1.5023898 -0.25137,-0.4302417 -0.58418,-0.751681 -1.02101,-0.9842188 -0.44248,-0.2344202 -0.96802,-0.3556677 -1.56678,-0.3556677 z"
       id="path163" /><g
       id="iconFg"
       transform="matrix(0.75315836,0,0,0.75315836,94.207946,-9.0065346)" /></g><path
     style="fill:#ffffff;fill-opacity:1"
     d="m 28.621433,31.422007 c 0.223408,-0.101787 0.207336,1.098903 0.207336,-15.489703 0,-16.58860461 0.01608,-15.38791052 -0.207336,-15.48970256 -0.144414,-0.0658009 -24.599985,-0.0658009 -24.7443979,0 -0.2234329,0.10180152 -0.2074566,-1.1000894 -0.2059945,15.49729356 0.00116,12.579885 0.010139,15.259025 0.051529,15.333757 0.1127043,0.203343 -0.7014508,0.190835 12.5154051,0.19228 9.445655,0.0011 12.30706,-0.009 12.383457,-0.04392 z m -9.415459,-1.705349 c -0.283371,-0.108788 -0.570056,-0.399244 -0.677503,-0.686423 -0.30134,-0.805403 0.27923,-1.6551 1.130877,-1.6551 0.668618,0 1.212487,0.543869 1.212487,1.212487 0,0.853702 -0.861728,1.437737 -1.665861,1.129036 z m -8.337145,-1.053256 0,-0.757804 -0.757802,0 -0.757804,0 0,-0.833585 0,-0.833583 0.757804,0 0.757802,0 0,-0.757803 0,-0.757802 0.833584,0 0.833583,0 0,0.757802 0,0.757803 0.757804,0 0.757803,0 0,0.833583 0,0.833585 -0.757803,0 -0.757804,0 0,0.757804 0,0.757803 -0.833583,0 -0.833584,0 z m 10.989456,-1.220154 c -0.28337,-0.108787 -0.570055,-0.399244 -0.677504,-0.686423 -0.1732,-0.462921 -0.06908,-0.952654 0.275879,-1.297614 0.76217,-0.762169 2.067485,-0.222361 2.067485,0.855 0,0.853704 -0.861727,1.437739 -1.66586,1.129037 z M 4.7656011,23.475363 4.6548456,23.364611 l 0,-10.993978 0,-10.9939784 0.1107555,-0.1107566 0.1107566,-0.1107555 11.3728803,0 11.372879,0 0.110752,0.1107555 0.110752,0.1107566 0,10.9939784 0,10.993978 -0.110752,0.110752 -0.110752,0.110753 -11.372879,0 -11.3728803,0 z"
     id="path4210"
     inkscape:connector-curvature="0"
     sodipodi:nodetypes="csssscscssssscccccccccccccccccccccccccsssssccccccccccccccccc" /></svg>
