<?xml version="1.0" encoding="UTF-8"?>
<svg id="Layer_1" xmlns="http://www.w3.org/2000/svg" version="1.1" viewBox="0 0 11108.5 11157.9">
  <!-- Generator: Adobe Illustrator 29.1.0, SVG Export Plug-In . SVG Version: 2.1.0 Build 142)  -->
  <defs>
    <style>
      .st0 {
        fill: none;
        stroke: #000;
      }
    </style>
  </defs>
  <path class="st0" d="M7047.6,7131.1l19.5,41.8-435,202.9c-6.5-13.9-13-27.8-19.5-41.8,145-67.6,290-135.2,435-202.9Z"/>
  <path class="st0" d="M6137.6,5147.3c121.4-40.5,242.9-80.9,364.3-121.4,5.1,15.2,10.1,30.4,15.2,45.5-121.4,40.5-242.9,80.9-364.3,121.4-5.1-15.2-10.1-30.4-15.2-45.5Z"/>
  <path class="st0" d="M7186.6,6906.3h46.1v172.8h-46.1v-172.8Z"/>
  <path class="st0" d="M5901.2,4635.4v-46.1h192v38.4c0,2.6,0,5.1.1,7.7h-192.1Z"/>
  <path class="st0" d="M5737.1,4719.2c-45.3,45.3-90.5,90.5-135.8,135.8-10.9-10.9-21.7-21.7-32.6-32.6,45.3-45.2,90.5-90.5,135.8-135.8,10.9,10.9,21.7,21.7,32.6,32.6Z"/>
  <path class="st0" d="M5570.8,5823.8c28.3,160.7,56.7,321.4,85,482.2-15.1,2.7-30.3,5.3-45.4,8-28.3-160.7-56.7-321.4-85-482.2,15.1-2.7,30.3-5.3,45.4-8Z"/>
  <path class="st0" d="M6746,4656.4v144h-46.1v-144h46.1Z"/>
  <path class="st0" d="M4918.7,5537.6c-10.9-10.9-21.7-21.7-32.6-32.6,45.3-45.3,90.5-90.5,135.8-135.8,10.9,10.9,21.7,21.7,32.6,32.6-45.3,45.2-90.5,90.5-135.8,135.8Z"/>
  <path class="st0" d="M5960.4,6247.4c14.4,81.9,28.9,163.9,43.3,245.8-15.1,2.7-30.3,5.3-45.4,8-14.4-81.9-28.9-163.9-43.3-245.8,15.1-2.7,30.3-5.3,45.4-8Z"/>
  <path class="st0" d="M4833.8,7421.3h-46.1v-192h46.1v192Z"/>
  <path class="st0" d="M5877,5774.7c-15.1,2.7-30.3,5.3-45.4,8-14.4-81.9-28.9-163.9-43.3-245.8,15.1-2.7,30.3-5.3,45.4-8,14.4,81.9,28.9,163.9,43.3,245.8Z"/>
  <path class="st0" d="M6746,4992.5h-46.1v-144h46.2v115.2h-.1v28.8Z"/>
  <path class="st0" d="M4834.8,5855.4h-46.1v-192h46.1v192Z"/>
  <path class="st0" d="M7052.4,6786.3c-63.8-5.6-127.5-11.1-191.3-16.7-1.3,15.3-2.7,30.6-4,45.9-127.5-11.1-255-22.3-382.5-33.5,1.3-15.3,2.7-30.6,4-45.9-63.8-5.6-127.5-11.2-191.3-16.7-1.3,15.3-2.7,30.6-4,45.9-84.2-7.4-168.3-14.7-252.5-22.1v-1461c251.2-83.7,502.4-167.5,753.6-251.2v-480h-998.4c-345.2,345.2-690.4,690.4-1035.7,1035.7v1913.8h192v46.1h240v-46.1h835.2v46.1h240v-46.1h220.8c266.8-124.4,533.6-248.8,800.5-373.3v-274.8c-76.8-6.7-153.6-13.4-230.4-20.2,1.3-15.3,2.7-30.6,4-45.9Z"/>
  <path class="st0" d="M4461.3,2664.5h46.1v192h-46.1v307.2h46.1v192h-46.1v73.9H1965.3v-73.9h-46.1v-192h46.1v-307.2h-46.1v-192h46.1v-100.8h2496v100.8Z"/>
  <path class="st0" d="M1919.2,4001h46.1v-137.2h2496v137.2h46.1v182.4h-46.1v773.4h46.1v182.4h-46.1v102.9H1965.3v-102.9h-46.1v-182.4h46.1v-773.4h-46.1v-182.4Z"/>
  <path class="st0" d="M1965.3,5586.6h2496v92.7h46.1v182.4h-46.1v152.4H1965.3v-152.4h-46.1v-182.4h46.1v-92.7Z"/>
  <path class="st0" d="M2570.1,7745.6c-147.8,0-146.9.9-283.2-.3h-984v-1020h1272c0,316-4.8,704.3-4.8,1020.3Z"/>
  <path class="st0" d="M3233,7450.2v240c-15.4-.2-30.7-.5-46.1-.7v331.9H690.9v-317.1h-46.1v-240h46.1v-517.9h-46.1v-240h46.1v-317.1h2496v332c15.4-.2,30.7-.5,46.1-.8v240h-46.1v489.6h46.1Z"/>
  <path class="st0" d="M3186.9,8934.5h46.1v-480h-46.1v-96H690.9v96h-46.1v480h46.1v96h2496v-96Z"/>
  <path class="st0" d="M4077.3,7978.1v384h46.1v528h-46.1v672h46.1v528h-46.1v384h-83.9v48h-182.4v-48h-222.9v-2496h222.9v-48h182.4v48h83.9Z"/>
  <path class="st0" d="M4665.2,9533.3v528h-46.1v-528h46.1Z"/>
  <path class="st0" d="M5017.5,10474.1v46.1h-249.6v-46.1h249.6Z"/>
  <path class="st0" d="M6092.7,7929.2v46.1h-249.6v-46.1h249.6Z"/>
  <path class="st0" d="M4665.2,8333.3v528h-46.1v-528h46.1Z"/>
  <path class="st0" d="M5017.5,7978.1h-249.6v-46.1h249.6v46.1Z"/>
  <path class="st0" d="M6083.1,10474.1v46.1h-240v-46.1h240Z"/>
  <path class="st0" d="M4767.9,7860h1531.2v2732.2c-576,.6-1152,1.3-1728,1.9v-2736c65.6.6,131.2,1.3,196.8,1.9Z"/>
  <path class="st0" d="M4834.8,5663.4v192h-46.1v-192h46.1Z"/>
  <path class="st0" d="M6746,4963.7v28.8h-46.1v-144h46.2v115.2h-.1Z"/>
  <path class="st0" d="M5833.7,5528.9c14.4,81.9,28.9,163.9,43.3,245.8-15.1,2.7-30.3,5.3-45.4,8-14.4-81.9-28.9-163.9-43.3-245.8,15.1-2.7,30.3-5.3,45.4-8Z"/>
  <path class="st0" d="M4833.8,7229.3v192h-46.1v-192h46.1Z"/>
  <path class="st0" d="M5915,6255.4c15.1-2.7,30.3-5.3,45.4-8,14.4,81.9,28.9,163.9,43.3,245.8-15.1,2.7-30.3,5.3-45.4,8-14.4-81.9-28.9-163.9-43.3-245.8Z"/>
  <path class="st0" d="M5054.5,5401.9c-45.3,45.2-90.5,90.5-135.8,135.8-10.9-10.9-21.7-21.7-32.6-32.6,45.3-45.3,90.5-90.5,135.8-135.8,10.9,10.9,21.7,21.7,32.6,32.6Z"/>
  <path class="st0" d="M6699.9,4656.4h46.1v144h-46.1v-144Z"/>
  <path class="st0" d="M5525.5,5831.8c15.1-2.7,30.3-5.3,45.4-8,28.3,160.7,56.7,321.4,85,482.2-15.1,2.7-30.3,5.3-45.4,8-28.3-160.7-56.7-321.4-85-482.2Z"/>
  <path class="st0" d="M5704.5,4686.7c10.9,10.9,21.7,21.7,32.6,32.6-45.3,45.3-90.5,90.5-135.8,135.8-10.9-10.9-21.7-21.7-32.6-32.6,45.3-45.2,90.5-90.5,135.8-135.8Z"/>
  <path class="st0" d="M6093.3,4635.4h-192.1v-46.1h192v38.4c0,2.6,0,5.1.1,7.7Z"/>
  <path class="st0" d="M7186.6,7079.1v-172.8h46.1v172.8h-46.1Z"/>
  <path class="st0" d="M6152.8,5192.9c-5.1-15.2-10.1-30.4-15.2-45.5,121.4-40.5,242.9-80.9,364.3-121.4,5.1,15.2,10.1,30.4,15.2,45.5-121.4,40.5-242.9,80.9-364.3,121.4Z"/>
  <path class="st0" d="M6612.6,7334c145-67.6,290-135.2,435-202.9l19.5,41.8-435,202.9c-6.5-13.9-13-27.8-19.5-41.8Z"/>
  <path class="st0" d="M7048.4,6832.2c1.3-15.3,2.7-30.6,4-45.9-63.8-5.6-127.5-11.1-191.3-16.7-1.3,15.3-2.7,30.6-4,45.9-127.5-11.1-255-22.3-382.5-33.5,1.3-15.3,2.7-30.6,4-45.9-63.8-5.6-127.5-11.2-191.3-16.7-1.3,15.3-2.7,30.6-4,45.9-84.2-7.4-168.3-14.7-252.5-22.1v-1461c251.2-83.7,502.4-167.5,753.6-251.2v-480h-998.4c-345.2,345.2-690.4,690.4-1035.7,1035.7v1913.8h192v46.1h240v-46.1h835.2v46.1h240v-46.1h220.8c266.8-124.4,533.6-248.8,800.5-373.3v-274.8c-76.8-6.7-153.6-13.4-230.4-20.2Z"/>
  <path class="st0" d="M8135.9,4691.4h-46.1v-134.4h46.1v-110.3h2496v110.3h46.1v134.4h-46.1v48.1h46.1v134.4h-46.1v33.6h-2496v-33.6h-46.1v-134.4h46.1v-48.1Z"/>
  <path class="st0" d="M10170.3,5639.5c0-34.3-18.3-66-48-83.1-29.7-17.1-66.3-17.1-96,0-29.7,17.2-48,48.8-48,83.1s18.3,66,48,83.1c29.7,17.1,66.3,17.1,96,0,29.7-17.1,48-48.9,48-83.1Z"/>
  <path class="st0" d="M8874.3,5639.5c0-34.3-18.3-66-48-83.1-29.7-17.1-66.3-17.1-96,0-29.7,17.2-48,48.8-48,83.1s18.3,66,48,83.1c29.7,17.1,66.3,17.1,96,0,29.7-17.1,48-48.9,48-83.1Z"/>
  <path class="st0" d="M7463.4,7127.2v-52.8h-46.1v-163.2h46.1v-58.8h2496v58.8h46.1v163.2h-46.1v52.8h-2496Z"/>
  <path class="st0" d="M10132,7664h46.1v480h-46.1c0,65.6.6,178.1.6,243.7-832,0-1662.1,2.8-2494.1,2.8,0-65.6-2.6-180.8-2.6-246.4h-46.1v-480h46.1v-110.4h2496v110.4Z"/>
  <path class="st0" d="M6592.5,4635.5h-192.1c0-15.4,0-30.9,0-46.2,64,0,128,.2,192,.2v38.4c0,2.6,0,5.1.1,7.7Z"/>
  <path class="st0" d="M6400.4,4589.3l192,.2v46.1c.1,0-192,0-192,0v-46.2Z"/>
  <path class="st0" d="M10679.7,5444.5h46.1v384h-46.1c-1.4,49.5-1.7,148.1-2.6,198.1-832,0-1658.2,0-2490.2,0,0-49.6-3.1-148.5-3.1-198.1h-46.1v-384h46.1c0-70.3-3.7-223.2-3.7-293.5,832,0,1671-2.1,2503-2.1-1.8,71.1-3.3,225.3-3.3,295.6Z"/>
  <path class="st0" d="M6544.6,1442h192c0,.1.1,46.2.1,46.2h-192.1v-46.2Z"/>
  <path class="st0" d="M6736.7,1488.2h-192.1c0-15.4,0-30.9,0-46.2,64,0,128,.1,192,.1v38.4c0,2.6,0,5.1.1,7.7Z"/>
  <path class="st0" d="M7192.6,3684.9c1.3-15.3,2.7-30.6,4-45.9-63.8-5.6-127.5-11.2-191.3-16.7-1.3,15.3-2.7,30.6-4,45.9-127.5-11.2-255-22.3-382.5-33.5,1.3-15.3,2.7-30.6,4-45.9-63.8-5.6-127.5-11.2-191.3-16.7-1.3,15.3-2.7,30.6-4,45.9-84.2-7.4-168.3-14.7-252.5-22.1v-1461c251.2-83.7,502.4-167.5,753.6-251.2v-480h-998.4c-345.2,345.2-690.4,690.4-1035.7,1035.7v1913.8h192v46.1h240v-46.1h835.2v46.1h240v-46.1h220.8c266.8-124.4,533.6-248.8,800.5-373.2v-274.8c-76.8-6.7-153.6-13.4-230.4-20.2Z"/>
  <path class="st0" d="M6756.8,4186.7c145-67.6,290-135.2,435-202.9,6.5,13.9,13,27.8,19.5,41.8-145,67.6-290,135.2-435,202.9-6.5-13.9-13-27.9-19.5-41.8Z"/>
  <path class="st0" d="M6297,2045.6c-5.1-15.2-10.1-30.4-15.2-45.5,121.4-40.5,242.9-81,364.3-121.4,5.1,15.2,10.1,30.4,15.2,45.5-121.4,40.5-242.9,81-364.3,121.4Z"/>
  <path class="st0" d="M7330.8,3931.8v-172.8h46.1v172.8h-46.1Z"/>
  <path class="st0" d="M6237.5,1488.1h-192.1v-46.1h192v38.4c0,2.6,0,5.1.1,7.7Z"/>
  <path class="st0" d="M5848.7,1539.4c10.9,10.9,21.7,21.7,32.6,32.6-45.3,45.3-90.5,90.5-135.8,135.8-10.9-10.9-21.7-21.7-32.6-32.6,45.3-45.3,90.5-90.5,135.8-135.8Z"/>
  <path class="st0" d="M5669.7,2684.5c15.1-2.7,30.3-5.3,45.4-8,28.3,160.7,56.7,321.4,85,482.2-15.1,2.7-30.3,5.3-45.4,8-28.3-160.7-56.7-321.4-85-482.2Z"/>
  <path class="st0" d="M6844.1,1509.1h46.1v144h-46.1v-144Z"/>
  <path class="st0" d="M5198.7,2254.6c-45.3,45.3-90.5,90.5-135.8,135.8-10.9-10.9-21.7-21.7-32.6-32.6,45.3-45.3,90.5-90.5,135.8-135.8,10.9,10.9,21.7,21.7,32.6,32.6Z"/>
  <path class="st0" d="M6059.2,3108.1c15.1-2.7,30.3-5.3,45.4-8,14.4,81.9,28.9,163.9,43.3,245.8-15.1,2.7-30.3,5.3-45.4,8-14.4-81.9-28.9-163.9-43.3-245.8Z"/>
  <path class="st0" d="M4978,4082v192h-46.1v-192h46.1Z"/>
  <path class="st0" d="M5977.9,2381.6c14.4,81.9,28.9,163.9,43.3,245.8-15.1,2.7-30.3,5.3-45.4,8-14.4-81.9-28.9-163.9-43.3-245.8,15.1-2.7,30.3-5.3,45.4-8Z"/>
  <path class="st0" d="M6890.2,1816.4v28.8h-46.1v-144h46.2v115.2h-.1Z"/>
  <path class="st0" d="M4979,2516.1v192h-46.1v-192h46.1Z"/>
  <path class="st0" d="M7196.6,3639c-63.8-5.6-127.5-11.2-191.3-16.7-1.3,15.3-2.7,30.6-4,45.9-127.5-11.2-255-22.3-382.5-33.5,1.3-15.3,2.7-30.6,4-45.9-63.8-5.6-127.5-11.2-191.3-16.7-1.3,15.3-2.7,30.6-4,45.9-84.2-7.4-168.3-14.7-252.5-22.1v-1461c251.2-83.7,502.4-167.5,753.6-251.2v-480h-998.4c-345.2,345.2-690.4,690.4-1035.7,1035.7v1913.8h192v46.1h240v-46.1h835.2v46.1h240v-46.1h220.8c266.8-124.4,533.6-248.8,800.5-373.2v-274.8c-76.8-6.7-153.6-13.4-230.4-20.2,1.3-15.3,2.7-30.6,4-45.9Z"/>
  <path class="st0" d="M4979,2708.1h-46.1v-192h46.1v192Z"/>
  <path class="st0" d="M6890.2,1845.2h-46.1v-144h46.2v115.2h-.1v28.8Z"/>
  <path class="st0" d="M6021.2,2627.4c-15.1,2.7-30.3,5.3-45.4,8-14.4-81.9-28.9-163.9-43.3-245.8,15.1-2.7,30.3-5.3,45.4-8,14.4,81.9,28.9,163.9,43.3,245.8Z"/>
  <path class="st0" d="M4978,4274h-46.1v-192h46.1v192Z"/>
  <path class="st0" d="M6104.6,3100.1c14.4,81.9,28.9,163.9,43.3,245.8-15.1,2.7-30.3,5.3-45.4,8-14.4-81.9-28.9-163.9-43.3-245.8,15.1-2.7,30.3-5.3,45.4-8Z"/>
  <path class="st0" d="M5062.9,2390.3c-10.9-10.9-21.7-21.7-32.6-32.6,45.3-45.3,90.5-90.5,135.8-135.8,10.9,10.9,21.7,21.7,32.6,32.6-45.3,45.3-90.5,90.5-135.8,135.8Z"/>
  <path class="st0" d="M6890.2,1509.1v144h-46.1v-144h46.1Z"/>
  <path class="st0" d="M5715,2676.5c28.3,160.7,56.7,321.4,85,482.2-15.1,2.7-30.3,5.3-45.4,8-28.3-160.7-56.7-321.4-85-482.2,15.1-2.7,30.3-5.3,45.4-8Z"/>
  <path class="st0" d="M5881.3,1572c-45.3,45.3-90.5,90.5-135.8,135.8-10.9-10.9-21.7-21.7-32.6-32.6,45.3-45.3,90.5-90.5,135.8-135.8,10.9,10.9,21.7,21.7,32.6,32.6Z"/>
  <path class="st0" d="M6045.4,1488.1v-46.1h192v38.4c0,2.6,0,5.1.1,7.7-64,0-128.1,0-192.1,0Z"/>
  <path class="st0" d="M7330.8,3759h46.1v172.8h-46.1v-172.8Z"/>
  <path class="st0" d="M6281.8,2000c121.4-40.5,242.9-81,364.3-121.4,5.1,15.2,10.1,30.4,15.2,45.5-121.4,40.5-242.9,81-364.3,121.4-5.1-15.2-10.1-30.4-15.2-45.5Z"/>
  <path class="st0" d="M7191.8,3983.8c6.5,13.9,13,27.8,19.5,41.8-145,67.6-290,135.2-435,202.9-6.5-13.9-13-27.9-19.5-41.8,145-67.6,290-135.2,435-202.9Z"/>
</svg>