<svg width="1195px" height="1344px">
<path d="M1100.92 519.36 C1100.92 452.16, 1100.92 384.96, 1100.92 317.76 C1116.28 317.76, 1131.64 317.76, 1147 317.76 C1147 384.96, 1147 452.16, 1147 519.36 C1131.64 519.36, 1116.28 519.36, 1100.92 519.36 Z " stroke="black" stroke-width="1" fill="none" />

<path d="M1100.92 1095.36 C1100.92 1028.16, 1100.92 960.96, 1100.92 893.76 C1116.28 893.76, 1131.64 893.76, 1147 893.76 C1147 960.96, 1147 1028.16, 1147 1095.36 C1131.64 1095.36, 1116.28 1095.36, 1100.92 1095.36 Z " stroke="black" stroke-width="1" fill="none" />

<path d="M1195 1344 C1195 912, 1195 480, 1195 47.9999 C1195 35.2696, 1190.04 23.0606, 1181.21 14.0588 C1172.38 5.05706, 1160.41 0, 1147.93 0 C284.973 0, -577.978 0, -1440.93 0 C-1453.41 0, -1465.39 5.05706, -1474.21 14.0588 C-1483.04 23.0606, -1488 35.2696, -1488 47.9999 C-1488 480, -1488 912, -1488 1344 C-593.668 1344, 300.663 1344, 1195 1344 Z " stroke="black" stroke-width="1" fill="none" />

<path d="M-864.205 336 C-864.205 317.136, -874.269 299.705, -890.605 290.274 C-906.941 280.842, -927.068 280.842, -943.405 290.274 C-959.741 299.706, -969.805 317.136, -969.805 336 C-969.805 354.863, -959.741 372.294, -943.405 381.726 C-927.068 391.158, -906.941 391.158, -890.605 381.726 C-874.269 372.294, -864.205 354.863, -864.205 336 C-864.205 336, -864.205 336, -864.205 336 Z " stroke="black" stroke-width="1" fill="none" />

<path d="M-216.205 1103.95 C-216.225 1074.8, -239.858 1051.18, -269.005 1051.18 C-298.151 1051.18, -321.785 1074.8, -321.805 1103.95 C-321.785 1133.1, -298.151 1156.71, -269.005 1156.71 C-239.858 1156.71, -216.225 1133.1, -216.205 1103.95 C-216.205 1103.95, -216.205 1103.95, -216.205 1103.95 Z " stroke="black" stroke-width="1" fill="none" />

<path d="M380.455 672 C380.435 642.852, 356.801 619.235, 327.655 619.235 C298.509 619.235, 274.875 642.852, 274.855 671.999 C274.875 701.147, 298.509 724.764, 327.655 724.764 C356.801 724.764, 380.435 701.147, 380.455 672.001 C380.455 672.001, 380.455 672, 380.455 672 Z " stroke="black" stroke-width="1" fill="none" />

<path d="M-1104.2 672 C-1104.2 653.136, -1114.27 635.705, -1130.6 626.274 C-1146.94 616.842, -1167.07 616.842, -1183.4 626.274 C-1199.74 635.706, -1209.8 653.136, -1209.8 672 C-1209.8 690.863, -1199.74 708.294, -1183.4 717.726 C-1167.07 727.158, -1146.94 727.158, -1130.6 717.726 C-1114.27 708.294, -1104.2 690.863, -1104.2 672 C-1104.2 672, -1104.2 672, -1104.2 672 Z " stroke="black" stroke-width="1" fill="none" />

<path d="M620.455 336 C620.435 306.852, 596.801 283.235, 567.655 283.235 C538.508 283.235, 514.875 306.852, 514.855 335.999 C514.875 365.147, 538.508 388.764, 567.655 388.764 C596.801 388.764, 620.435 365.147, 620.455 336.001 C620.455 336.001, 620.455 336, 620.455 336 Z " stroke="black" stroke-width="1" fill="none" />

<path d="M71.7953 1103.95 C71.7751 1074.8, 48.1415 1051.18, 18.9952 1051.18 C-10.1512 1051.18, -33.7846 1074.8, -33.8048 1103.95 C-33.7846 1133.1, -10.1512 1156.71, 18.9952 1156.71 C48.1415 1156.71, 71.7751 1133.1, 71.7953 1103.95 C71.7953 1103.95, 71.7953 1103.95, 71.7953 1103.95 Z " stroke="black" stroke-width="1" fill="none" />

<path d="M896.455 816 C896.455 801.423, 888.678 787.954, 876.055 780.666 C863.431 773.378, 847.878 773.378, 835.255 780.666 C822.631 787.954, 814.855 801.423, 814.855 816 C814.855 830.576, 822.631 844.046, 835.255 851.334 C847.878 858.622, 863.431 858.622, 876.055 851.334 C888.678 844.046, 896.455 830.576, 896.455 816 C896.455 816, 896.455 816, 896.455 816 Z " stroke="black" stroke-width="1" fill="none" />

<path d="M-588.205 816 C-588.22 793.48, -606.482 775.23, -629.004 775.23 C-651.526 775.229, -669.788 793.478, -669.805 816 C-669.789 838.52, -651.527 856.769, -629.006 856.77 C-606.484 856.77, -588.221 838.522, -588.205 816 C-588.205 816, -588.205 816, -588.205 816 Z " stroke="black" stroke-width="1" fill="none" />

<path d="M1100.92 317.76 C1100.92 384.96, 1100.92 452.16, 1100.92 519.36 C1116.28 519.36, 1131.64 519.36, 1147 519.36 C1147 452.16, 1147 384.96, 1147 317.76 C1131.64 317.76, 1116.28 317.76, 1100.92 317.76 Z " stroke="black" stroke-width="1" fill="none" />

<path d="M-1398.92 893.76 C-1414.28 893.76, -1429.64 893.76, -1445 893.76 C-1445 960.96, -1445 1028.16, -1445 1095.36 C-1429.64 1095.36, -1414.28 1095.36, -1398.92 1095.36 C-1398.92 1028.16, -1398.92 960.96, -1398.92 893.76 Z " stroke="black" stroke-width="1" fill="none" />

<path d="M1100.92 893.76 C1100.92 960.96, 1100.92 1028.16, 1100.92 1095.36 C1116.28 1095.36, 1131.64 1095.36, 1147 1095.36 C1147 1028.16, 1147 960.96, 1147 893.76 C1131.64 893.76, 1116.28 893.76, 1100.92 893.76 Z " stroke="black" stroke-width="1" fill="none" />

<path d="M-1445 519.36 C-1429.64 519.36, -1414.28 519.36, -1398.92 519.36 C-1398.92 452.16, -1398.92 384.96, -1398.92 317.76 C-1414.28 317.76, -1429.64 317.76, -1445 317.76 C-1445 384.96, -1445 452.16, -1445 519.36 Z " stroke="black" stroke-width="1" fill="none" />

</svg>
