<?xml version="1.0" encoding="UTF-8"?>
<svg id="Layer_1" xmlns="http://www.w3.org/2000/svg" version="1.1" viewBox="0 0 2912.9 1645.7">
  <!-- Generator: Adobe Illustrator 29.1.0, SVG Export Plug-In . SVG Version: 2.1.0 Build 142)  -->
  <defs>
    <style>
      .st0 {
        fill: none;
        stroke: #000;
      }
    </style>
  </defs>
  <path class="st0" d="M2679.8,658.3v-201.6h46.1v201.6h-46.1Z"/>
  <path class="st0" d="M2679.8,1234.3v-201.6h46.1v201.6h-46.1Z"/>
  <path class="st0" d="M2773.9,1483V187c0-12.7-5-24.9-13.8-33.9-8.8-9-20.8-14.1-33.3-14.1H138c-12.5,0-24.5,5.1-33.3,14.1-8.8,9-13.8,21.2-13.8,33.9v1296h2683Z"/>
  <path class="st0" d="M714.7,475c0-18.9-10.1-36.3-26.4-45.7-16.3-9.4-36.5-9.4-52.8,0-16.3,9.4-26.4,26.9-26.4,45.7s10.1,36.3,26.4,45.7c16.3,9.4,36.5,9.4,52.8,0,16.3-9.4,26.4-26.9,26.4-45.7h0Z"/>
  <path class="st0" d="M1362.7,1242.9c0-29.1-23.7-52.8-52.8-52.8s-52.8,23.6-52.8,52.8c0,29.2,23.7,52.8,52.8,52.8s52.8-23.6,52.8-52.8h0Z"/>
  <path class="st0" d="M1959.4,811c0-29.1-23.7-52.8-52.8-52.8s-52.8,23.6-52.8,52.8c0,29.1,23.7,52.8,52.8,52.8s52.8-23.6,52.8-52.8h0Z"/>
  <path class="st0" d="M474.7,811c0-18.9-10.1-36.3-26.4-45.7-16.3-9.4-36.5-9.4-52.8,0-16.3,9.4-26.4,26.9-26.4,45.7s10.1,36.3,26.4,45.7c16.3,9.4,36.5,9.4,52.8,0,16.3-9.4,26.4-26.9,26.4-45.7h0Z"/>
  <path class="st0" d="M2199.4,475c0-29.1-23.7-52.8-52.8-52.8s-52.8,23.6-52.8,52.8c0,29.1,23.7,52.8,52.8,52.8s52.8-23.6,52.8-52.8h0Z"/>
  <path class="st0" d="M1650.7,1242.9c0-29.1-23.7-52.8-52.8-52.8s-52.8,23.6-52.8,52.8c0,29.2,23.7,52.8,52.8,52.8s52.8-23.6,52.8-52.8h0Z"/>
  <path class="st0" d="M2475.4,955c0-14.6-7.8-28-20.4-35.3-12.6-7.3-28.2-7.3-40.8,0-12.6,7.3-20.4,20.8-20.4,35.3s7.8,28,20.4,35.3c12.6,7.3,28.2,7.3,40.8,0,12.6-7.3,20.4-20.8,20.4-35.3h0Z"/>
  <path class="st0" d="M990.7,955c0-22.5-18.3-40.8-40.8-40.8-22.5,0-40.8,18.2-40.8,40.8,0,22.5,18.3,40.8,40.8,40.8,22.5,0,40.8-18.2,40.8-40.8h0Z"/>
  <path class="st0" d="M2679.8,456.7v201.6h46.1v-201.6h-46.1Z"/>
  <path class="st0" d="M180,1032.7h-46.1v201.6h46.1v-201.6Z"/>
  <path class="st0" d="M2679.8,1032.7v201.6h46.1v-201.6h-46.1Z"/>
  <path class="st0" d="M133.9,658.3h46.1v-201.6h-46.1v201.6Z"/>
</svg>