<svg id="Group_1" data-name="Group 1" xmlns="http://www.w3.org/2000/svg" xmlns:xlink="http://www.w3.org/1999/xlink" width="158.408" height="33.164" viewBox="0 0 158.408 33.164">
  <defs>
    <clipPath id="clip-path">
      <rect id="Rectangle_140" data-name="Rectangle 140" width="158.408" height="33.164" fill="none"/>
    </clipPath>
  </defs>
  <g id="Group_2" data-name="Group 2" clip-path="url(#clip-path)">
    <path id="Path_4" data-name="Path 4" d="M156.415,7.664a4.152,4.152,0,0,0-1.992-.725,4.382,4.382,0,0,0-3.207.944h-.3v.028a9.015,9.015,0,0,0-.837-.4,7.629,7.629,0,0,0-6.214.179,6.481,6.481,0,0,0-3.641,5.9V13.8L136.764,7.43h-3.131l-4.143,7.62V7.426H116.256v3.924L111,7.426H97.151v3.928L91.888,7.426h-15.7V9.162a9.919,9.919,0,0,0-2.071-1.123,9.754,9.754,0,0,0-2.55-.625h-8.5V8.935a10.7,10.7,0,0,0-.956-.629,9.784,9.784,0,0,0-9.692,0,10.156,10.156,0,0,0-1.127.761,9.515,9.515,0,0,0-1.016-.7,8.892,8.892,0,0,0-9.338,0,9.514,9.514,0,0,0-3.318,3.5,6.658,6.658,0,0,0-.319.629A16.076,16.076,0,0,0,21.884,0,15.92,15.92,0,0,0,7.025,10.652a8.139,8.139,0,0,0-5.43.833,2.848,2.848,0,0,0-.976,4.33A9.021,9.021,0,0,0,2.48,17.58a8.249,8.249,0,0,0-.614,4.382A2.9,2.9,0,0,0,5.635,24.4a9,9,0,0,0,1.845-.8,15.989,15.989,0,0,0,14.4,9.561A16.054,16.054,0,0,0,37.277,20.771c.1.231.215.462.338.685a9.444,9.444,0,0,0,3.33,3.493,8.891,8.891,0,0,0,9.326,0,9.271,9.271,0,0,0,1.008-.721A9.776,9.776,0,0,0,62.1,25a10.027,10.027,0,0,0,.964-.633v1.558H71.15A10,10,0,0,0,74.1,25.26a10.185,10.185,0,0,0,2.083-1.131v1.789H96.537V21.5l5.5,4.418h13.608V21.512L117.87,23.3v8.418l2.538-.152a11.309,11.309,0,0,0,1.876-.271,9.869,9.869,0,0,0,4.274-2.243,8.887,8.887,0,0,0,2.267-3.1h3.681l1.346-2.446h2.7l1.354,2.45h6.772a9.028,9.028,0,0,0,1.964.227,7.17,7.17,0,0,0,4.968-1.8,6.635,6.635,0,0,0,2.135-5.179,6.683,6.683,0,0,0-.924-3.625,4.445,4.445,0,0,0,1.155.155,4.382,4.382,0,0,0,2.454-8.047Z" transform="translate(0)" fill="#fff"/>
    <path id="Path_5" data-name="Path 5" d="M231.942,65.034a3.187,3.187,0,0,1-3.641,0,4.156,4.156,0,0,1-1.335-1.522,4.234,4.234,0,0,1-.5-1.992,4.3,4.3,0,0,1,.49-1.992,4.131,4.131,0,0,1,1.33-1.518,3.207,3.207,0,0,1,3.661,0,3.715,3.715,0,0,1,.8.749l2.231-2.306a6.908,6.908,0,0,0-1.462-1.2,6.5,6.5,0,0,0-6.812,0,7.093,7.093,0,0,0-2.494,2.629,7.669,7.669,0,0,0,0,7.27,7.035,7.035,0,0,0,2.494,2.621,6.5,6.5,0,0,0,6.812,0A7.033,7.033,0,0,0,235,66.552l-2.231-2.307a3.866,3.866,0,0,1-.825.789" transform="translate(-184.515 -44.865)" fill="#1880b3"/>
    <path id="Path_6" data-name="Path 6" d="M298.614,55.235a7.394,7.394,0,0,0-7.3,0,7.276,7.276,0,0,0-2.669,2.625,7.1,7.1,0,0,0-.984,3.645,7,7,0,0,0,.984,3.629,7.366,7.366,0,0,0,9.959,2.629,7.1,7.1,0,0,0,2.657-2.629,6.965,6.965,0,0,0,.98-3.629,7.059,7.059,0,0,0-.984-3.645,7.211,7.211,0,0,0-2.641-2.625m-.271,8.254a4.306,4.306,0,0,1-1.434,1.53,3.609,3.609,0,0,1-3.9,0,4.24,4.24,0,0,1-1.422-1.53,3.984,3.984,0,0,1,0-3.984,4.065,4.065,0,0,1,1.422-1.514,3.584,3.584,0,0,1,1.96-.578,3.625,3.625,0,0,1,1.956.578,4.2,4.2,0,0,1,1.422,1.518,4.012,4.012,0,0,1,0,3.984Z" transform="translate(-237.702 -44.846)" fill="#1880b3"/>
    <path id="Path_7" data-name="Path 7" d="M387,58.006a7.569,7.569,0,0,0-5.179-1.992h-4.928V69.846h4.936a7.623,7.623,0,0,0,2.836-.526A7.368,7.368,0,0,0,387,67.862a6.773,6.773,0,0,0,1.57-2.211,6.556,6.556,0,0,0,.553-2.705,6.7,6.7,0,0,0-.553-2.717A6.868,6.868,0,0,0,387,58.006M385.3,64.444a4.128,4.128,0,0,1-.876,1.287,4.25,4.25,0,0,1-1.315.884,4.039,4.039,0,0,1-1.594.323h-1.1V58.971h1.1a4.1,4.1,0,0,1,1.594.323,4.17,4.17,0,0,1,1.315.868,3.981,3.981,0,0,1,.864,1.263,3.913,3.913,0,0,1,.315,1.521,3.78,3.78,0,0,1-.3,1.5" transform="translate(-311.438 -46.287)" fill="#1880b3"/>
    <path id="Path_8" data-name="Path 8" d="M452.45,70.014h8.772V67.1h-5.386V64.437h3.525l-.789-2.912h-2.737V59.131h5.386V56.2H452.45Z" transform="translate(-373.875 -46.439)" fill="#1880b3"/>
    <path id="Path_9" data-name="Path 9" d="M531.285,61.556l-8.8-6.573V68.966h3.41l-.012-7.019,8.792,7.059V55.2l-3.386-.02Z" transform="translate(-431.744 -45.434)" fill="#050606"/>
    <path id="Path_10" data-name="Path 10" d="M602.835,70.021l3.39.008V56.222h-3.39Z" transform="translate(-498.143 -46.458)" fill="#050606"/>
    <path id="Path_11" data-name="Path 11" d="M644.684,68.983V55.176l-3.386-.02v6.378l-8.8-6.573V68.944h3.41l-.012-7.019Z" transform="translate(-522.651 -45.416)" fill="#050606"/>
    <path id="Path_12" data-name="Path 12" d="M696.044,69.4h0a5.728,5.728,0,0,1-.128.661,3.585,3.585,0,0,1-1.052,1.593,4.166,4.166,0,0,1-1.761.932h-.068l-.127.02-.43.068v2.96a8.408,8.408,0,0,0,1.45-.207,7.461,7.461,0,0,0,3.254-1.7,6.437,6.437,0,0,0,1.908-2.912,5.2,5.2,0,0,0,.207-1.247h.02V56.222h-3.283Z" transform="translate(-572.218 -46.458)" fill="#050606"/>
    <path id="Path_13" data-name="Path 13" d="M734.685,69.051h3.5l1.354-2.45h5.517l1.354,2.45h3.5l-7.6-14Zm6.262-5,1.362-2.454,1.35,2.454Z" transform="translate(-607.095 -45.491)" fill="#050606"/>
    <path id="Path_14" data-name="Path 14" d="M828.058,60.868a4.484,4.484,0,0,0-1.792-1.295q-1.022-.394-1.992-.8c-.646-.267-.952-.645-.952-1.111a.916.916,0,0,1,.438-.8,1.49,1.49,0,0,1,.893-.3,2.441,2.441,0,0,1,1.131.251,4.91,4.91,0,0,1,1.06.8l1.665-2.39a5.782,5.782,0,0,0-1.84-1.2,5.6,5.6,0,0,0-2.1-.4,4.844,4.844,0,0,0-2.171.506,4.155,4.155,0,0,0-1.665,1.482,4.053,4.053,0,0,0-.637,2.291,3.817,3.817,0,0,0,.741,2.557,4.618,4.618,0,0,0,1.781,1.3l.518.211.506.207.992.4c.641.279.964.653.964,1.127a1.007,1.007,0,0,1-.514.916,2.083,2.083,0,0,1-1.1.323,2.789,2.789,0,0,1-2.291-1.091l-1.828,2.609a5.474,5.474,0,0,0,1.964,1.227,6.639,6.639,0,0,0,2.3.4A4.847,4.847,0,0,0,827.5,66.9a4.352,4.352,0,0,0,1.335-3.406,4.026,4.026,0,0,0-.773-2.621" transform="translate(-677.475 -44.316)" fill="#050606"/>
    <path id="Path_15" data-name="Path 15" d="M879.392,55.561a1.9,1.9,0,0,1-.566,1.382,1.932,1.932,0,0,1-2.732.016l-.017-.016a1.964,1.964,0,0,1,0-2.765,1.932,1.932,0,0,1,2.732-.016l.016.016a1.9,1.9,0,0,1,.566,1.382m-3-1.064a1.5,1.5,0,1,0,2.112,0,1.482,1.482,0,0,0-2.1-.016l-.016.016m.375,2.075V54.581h.566a1.32,1.32,0,0,1,.418.06.54.54,0,0,1,.283.2.619.619,0,0,1,.1.358.569.569,0,0,1-.088.307.467.467,0,0,1-.235.2l.5.876h-.578l-.466-.9v.9Zm.494-1.016a.6.6,0,0,0,.207-.028.243.243,0,0,0,.131-.1.307.307,0,0,0,.044-.167.223.223,0,0,0-.1-.215.6.6,0,0,0-.287-.056Z" transform="translate(-723.463 -44.295)" fill="#1a1718"/>
    <path id="Path_16" data-name="Path 16" d="M57.862,79.344a11.045,11.045,0,0,0-.307,2.789,15.249,15.249,0,0,0,.315,2.789,112.3,112.3,0,0,1,11.572-.538V80a98.818,98.818,0,0,1-11.58-.657" transform="translate(-47.559 -65.565)" fill="#d1b489"/>
    <path id="Path_17" data-name="Path 17" d="M138.048,82.248h0a15.58,15.58,0,0,0-.311-2.789,86.964,86.964,0,0,1-11.565.673v4.382c3.438,0,7.406.139,11.553.558h.032a11.254,11.254,0,0,0,.291-2.824" transform="translate(-104.261 -65.66)" fill="#e0cba1"/>
    <path id="Path_18" data-name="Path 18" d="M33.262,13.763a13.72,13.72,0,0,0-13.3,11.648c-1.127-.96-3.071-1.813-5.932-.4a.458.458,0,0,0-.163.7,5.456,5.456,0,0,0,4.051,2.211c-1.263.733-2.617,2.215-2.3,5.179a.51.51,0,0,0,.572.44.5.5,0,0,0,.094-.021A5.233,5.233,0,0,0,19.9,30.136,13.749,13.749,0,0,0,33.262,42.166c7.465,0,13.516-6.374,13.516-14.2s-6.051-14.2-13.516-14.2m11.58,17.006c-4.155-.4-8.123-.558-11.553-.558a112.3,112.3,0,0,0-11.552.538,15.249,15.249,0,0,1-.315-2.789,11.046,11.046,0,0,1,.307-2.789,98.847,98.847,0,0,0,11.58.693,86.966,86.966,0,0,0,11.533-.693,15.579,15.579,0,0,1,.311,2.789,11.247,11.247,0,0,1-.3,2.789h-.008Z" transform="translate(-11.378 -11.373)" fill="#100e0f"/>
    <path id="Path_19" data-name="Path 19" d="M64.239,127.721S66.948,134,73.7,134.748a11.581,11.581,0,0,0,8.421-2.5s-11.015,4.362-17.887-4.529" transform="translate(-53.083 -105.54)" fill="#3a3f44"/>
    <path id="Path_20" data-name="Path 20" d="M101.892,30.581s-2.709-6.266-9.461-7.011a11.589,11.589,0,0,0-8.441,2.5s11.015-4.354,17.9,4.513" transform="translate(-69.403 -19.427)" fill="#3a3f44"/>
    <path id="Path_21" data-name="Path 21" d="M82.507,91.306l-4.318-.514a.239.239,0,0,0-.219.4,3.345,3.345,0,0,0,4.633.518.215.215,0,0,0-.1-.4Z" transform="translate(-64.375 -75.021)" fill="#100e0f"/>
    <path id="Path_22" data-name="Path 22" d="M146.6,91.663a3.321,3.321,0,0,0,4.629-.518.239.239,0,0,0-.219-.4l-4.318.522a.211.211,0,0,0-.092.4Z" transform="translate(-121.045 -74.984)" fill="#100e0f"/>
  </g>
</svg>
