<?xml version="1.0" encoding="UTF-8" standalone="no"?>
<svg  version="1.1" xmlns="http://www.w3.org/2000/svg" width="5158.72px" height="9190.51px">
<path d="M1480.54 5727.52 C1487.03 5741.44, 1493.52 5755.36, 1500.01 5769.28 C1355 5836.9, 1209.99 5904.52, 1064.98 5972.14 C1058.49 5958.22, 1052 5944.3, 1045.51 5930.38 C1190.52 5862.76, 1335.53 5795.14, 1480.54 5727.52 Z " stroke="black" stroke-width="1" fill="none" />

<path d="M570.569 3743.71 C692 3703.23, 813.431 3662.76, 934.863 3622.28 C939.923 3637.46, 944.982 3652.64, 950.042 3667.82 C828.61 3708.29, 707.179 3748.77, 585.747 3789.25 C580.688 3774.07, 575.628 3758.89, 570.569 3743.71 Z " stroke="black" stroke-width="1" fill="none" />

<path d="M1619.55 5502.73 C1634.91 5502.73, 1650.27 5502.73, 1665.63 5502.73 C1665.63 5560.33, 1665.63 5617.93, 1665.63 5675.53 C1650.27 5675.53, 1634.91 5675.53, 1619.55 5675.53 C1619.55 5617.93, 1619.55 5560.33, 1619.55 5502.73 Z " stroke="black" stroke-width="1" fill="none" />

<path d="M334.124 3231.77 C334.124 3216.41, 334.124 3201.05, 334.124 3185.69 C398.124 3185.69, 462.124 3185.69, 526.124 3185.69 C526.124 3198.49, 526.124 3211.29, 526.124 3224.09 C526.161 3226.65, 526.198 3229.21, 526.235 3231.77 C462.198 3231.77, 398.161 3231.77, 334.124 3231.77 Z " stroke="black" stroke-width="1" fill="none" />

<path d="M170.049 3315.64 C124.794 3360.9, 79.5393 3406.15, 34.2845 3451.41 C23.4233 3440.55, 12.5621 3429.68, 1.70101 3418.82 C46.9558 3373.57, 92.2107 3328.31, 137.465 3283.06 C148.327 3293.92, 159.188 3304.78, 170.049 3315.64 Z " stroke="black" stroke-width="1" fill="none" />

<path d="M3.78374 4420.23 C32.1231 4580.95, 60.4625 4741.67, 88.8019 4902.4 C73.6752 4905.06, 58.5486 4907.73, 43.4219 4910.4 C15.0826 4749.68, -13.2568 4588.96, -41.5962 4428.24 C-26.4696 4425.57, -11.3429 4422.9, 3.78374 4420.23 Z " stroke="black" stroke-width="1" fill="none" />

<path d="M1178.92 3252.78 C1178.92 3300.78, 1178.92 3348.78, 1178.92 3396.78 C1163.56 3396.78, 1148.2 3396.78, 1132.84 3396.78 C1132.84 3348.78, 1132.84 3300.78, 1132.84 3252.78 C1148.2 3252.78, 1163.56 3252.78, 1178.92 3252.78 Z " stroke="black" stroke-width="1" fill="none" />

<path d="M-648.339 4134.03 C-659.201 4123.17, -670.062 4112.31, -680.923 4101.45 C-635.668 4056.19, -590.413 4010.94, -545.158 3965.68 C-534.297 3976.54, -523.436 3987.4, -512.575 3998.27 C-557.83 4043.52, -603.085 4088.78, -648.339 4134.03 Z " stroke="black" stroke-width="1" fill="none" />

<path d="M393.338 4843.82 C407.785 4925.76, 422.233 5007.7, 436.68 5089.63 C421.554 5092.3, 406.427 5094.97, 391.3 5097.63 C376.853 5015.7, 362.405 4933.76, 347.958 4851.83 C363.084 4849.16, 378.211 4846.49, 393.338 4843.82 Z " stroke="black" stroke-width="1" fill="none" />

<path d="M-733.284 6017.71 C-748.644 6017.71, -764.004 6017.71, -779.364 6017.71 C-779.364 5953.71, -779.364 5889.71, -779.364 5825.71 C-764.004 5825.71, -748.644 5825.71, -733.284 5825.71 C-733.284 5889.71, -733.284 5953.71, -733.284 6017.71 Z " stroke="black" stroke-width="1" fill="none" />

<path d="M309.986 4371.12 C294.86 4373.78, 279.733 4376.45, 264.607 4379.12 C250.159 4297.18, 235.711 4215.25, 221.264 4133.31 C236.39 4130.64, 251.517 4127.98, 266.644 4125.31 C281.091 4207.24, 295.539 4289.18, 309.986 4371.12 Z " stroke="black" stroke-width="1" fill="none" />

<path d="M1178.92 3588.91 C1163.56 3588.91, 1148.2 3588.91, 1132.84 3588.91 C1132.84 3540.91, 1132.84 3492.91, 1132.84 3444.91 C1148.24 3444.91, 1163.64 3444.91, 1179.04 3444.91 C1179.04 3483.31, 1179.04 3521.71, 1179.04 3560.11 C1179 3560.11, 1178.96 3560.11, 1178.92 3560.11 C1178.92 3569.71, 1178.92 3579.31, 1178.92 3588.91 Z " stroke="black" stroke-width="1" fill="none" />

<path d="M-732.262 4451.76 C-747.622 4451.76, -762.982 4451.76, -778.342 4451.76 C-778.342 4387.76, -778.342 4323.76, -778.342 4259.76 C-762.982 4259.76, -747.622 4259.76, -732.262 4259.76 C-732.262 4323.76, -732.262 4387.76, -732.262 4451.76 Z " stroke="black" stroke-width="1" fill="none" />

<path d="M1485.33 5382.65 C1421.57 5377.08, 1357.81 5371.5, 1294.06 5365.92 C1292.72 5381.22, 1291.38 5396.52, 1290.04 5411.82 C1162.53 5400.67, 1035.01 5389.51, 907.501 5378.36 C908.84 5363.05, 910.178 5347.75, 911.517 5332.45 C847.761 5326.87, 784.004 5321.3, 720.248 5315.72 C718.909 5331.02, 717.57 5346.32, 716.231 5361.62 C632.057 5354.26, 547.883 5346.89, 463.709 5339.53 C463.709 4852.52, 463.709 4365.51, 463.709 3878.5 C714.914 3794.76, 966.119 3711.03, 1217.32 3627.29 C1217.32 3467.29, 1217.32 3307.29, 1217.32 3147.29 C884.524 3147.29, 551.724 3147.29, 218.924 3147.29 C-126.298 3492.52, -471.52 3837.74, -816.742 4182.96 C-816.742 4820.9, -816.742 5458.84, -816.742 6096.79 C-752.742 6096.79, -688.742 6096.79, -624.742 6096.79 C-624.742 6112.15, -624.742 6127.51, -624.742 6142.87 C-544.742 6142.87, -464.742 6142.87, -384.742 6142.87 C-384.742 6127.51, -384.742 6112.15, -384.742 6096.79 C-106.342 6096.79, 172.058 6096.79, 450.458 6096.79 C450.458 6112.15, 450.458 6127.51, 450.458 6142.87 C530.458 6142.87, 610.458 6142.87, 690.458 6142.87 C690.458 6127.51, 690.458 6112.15, 690.458 6096.79 C764.058 6096.79, 837.658 6096.79, 911.258 6096.79 C1178.07 5972.37, 1444.89 5847.95, 1711.71 5723.53 C1711.71 5631.92, 1711.71 5540.32, 1711.71 5448.72 C1634.91 5442, 1558.11 5435.28, 1481.31 5428.56 C1482.65 5413.26, 1483.99 5397.95, 1485.33 5382.65 Z " stroke="black" stroke-width="1" fill="none" />

<path d="M-1105.76 1260.91 C-1090.4 1260.91, -1075.04 1260.91, -1059.68 1260.91 C-1059.68 1324.91, -1059.68 1388.91, -1059.68 1452.91 C-1075.04 1452.91, -1090.4 1452.91, -1105.76 1452.91 C-1105.76 1555.31, -1105.76 1657.71, -1105.76 1760.11 C-1090.4 1760.11, -1075.04 1760.11, -1059.68 1760.11 C-1059.68 1824.11, -1059.68 1888.11, -1059.68 1952.11 C-1075.04 1952.11, -1090.4 1952.11, -1105.76 1952.11 C-1105.76 1972.91, -1105.76 1993.71, -1105.76 2014.51 C-1105.76 2018.35, -1105.76 2022.19, -1105.76 2026.03 C-1937.76 2026.03, -2769.76 2026.03, -3601.76 2026.03 C-3601.76 2001.39, -3601.76 1976.75, -3601.76 1952.11 C-3617.12 1952.11, -3632.48 1952.11, -3647.84 1952.11 C-3647.84 1888.11, -3647.84 1824.11, -3647.84 1760.11 C-3632.48 1760.11, -3617.12 1760.11, -3601.76 1760.11 C-3601.76 1657.71, -3601.76 1555.31, -3601.76 1452.91 C-3617.12 1452.91, -3632.48 1452.91, -3647.84 1452.91 C-3647.84 1388.91, -3647.84 1324.91, -3647.84 1260.91 C-3632.48 1260.91, -3617.12 1260.91, -3601.76 1260.91 C-3601.76 1227.31, -3601.76 1193.71, -3601.76 1160.11 C-2769.76 1160.11, -1937.76 1160.11, -1105.76 1160.11 C-1105.76 1193.71, -1105.76 1227.31, -1105.76 1260.91 Z " stroke="black" stroke-width="1" fill="none" />

<path d="M-3647.84 2597.42 C-3632.48 2597.42, -3617.12 2597.42, -3601.76 2597.42 C-3601.76 2551.69, -3601.76 2505.96, -3601.76 2460.23 C-2769.76 2460.23, -1937.76 2460.23, -1105.76 2460.23 C-1105.76 2505.96, -1105.76 2551.69, -1105.76 2597.42 C-1090.4 2597.42, -1075.04 2597.42, -1059.68 2597.42 C-1059.68 2658.22, -1059.68 2719.02, -1059.68 2779.82 C-1075.04 2779.82, -1090.4 2779.82, -1105.76 2779.82 C-1105.76 3037.61, -1105.76 3295.4, -1105.76 3553.19 C-1090.4 3553.19, -1075.04 3553.19, -1059.68 3553.19 C-1059.68 3613.99, -1059.68 3674.79, -1059.68 3735.59 C-1075.04 3735.59, -1090.4 3735.59, -1105.76 3735.59 C-1105.76 3769.9, -1105.76 3804.2, -1105.76 3838.51 C-1937.76 3838.51, -2769.76 3838.51, -3601.76 3838.51 C-3601.76 3804.2, -3601.76 3769.9, -3601.76 3735.59 C-3617.12 3735.59, -3632.48 3735.59, -3647.84 3735.59 C-3647.84 3674.79, -3647.84 3613.99, -3647.84 3553.19 C-3632.48 3553.19, -3617.12 3553.19, -3601.76 3553.19 C-3601.76 3295.4, -3601.76 3037.61, -3601.76 2779.82 C-3617.12 2779.82, -3632.48 2779.82, -3647.84 2779.82 C-3647.84 2719.02, -3647.84 2658.22, -3647.84 2597.42 Z " stroke="black" stroke-width="1" fill="none" />

<path d="M-3601.76 4182.96 C-2769.76 4182.96, -1937.76 4182.96, -1105.76 4182.96 C-1105.76 4213.87, -1105.76 4244.78, -1105.76 4275.7 C-1090.4 4275.7, -1075.04 4275.7, -1059.68 4275.7 C-1059.68 4336.5, -1059.68 4397.3, -1059.68 4458.1 C-1075.04 4458.1, -1090.4 4458.1, -1105.76 4458.1 C-1105.76 4508.88, -1105.76 4559.66, -1105.76 4610.45 C-1937.76 4610.45, -2769.76 4610.45, -3601.76 4610.45 C-3601.76 4559.66, -3601.76 4508.88, -3601.76 4458.1 C-3617.12 4458.1, -3632.48 4458.1, -3647.84 4458.1 C-3647.84 4397.3, -3647.84 4336.5, -3647.84 4275.7 C-3632.48 4275.7, -3617.12 4275.7, -3601.76 4275.7 C-3601.76 4244.78, -3601.76 4213.87, -3601.76 4182.96 Z " stroke="black" stroke-width="1" fill="none" />

<path d="M-2996.93 6342.04 C-3144.73 6342.04, -3143.83 6342.94, -3280.13 6341.77 C-3608.13 6341.77, -3936.13 6341.77, -4264.13 6341.77 C-4264.13 6001.77, -4264.13 5661.77, -4264.13 5321.77 C-3840.13 5321.77, -3416.13 5321.77, -2992.13 5321.77 C-2992.13 5637.77, -2996.93 6026.04, -2996.93 6342.04 Z " stroke="black" stroke-width="1" fill="none" />

<path d="M-2334.05 6046.57 C-2334.05 6126.57, -2334.05 6206.57, -2334.05 6286.57 C-2349.41 6286.32, -2364.77 6286.08, -2380.13 6285.83 C-2380.13 6396.48, -2380.13 6507.12, -2380.13 6617.77 C-3212.13 6617.77, -4044.13 6617.77, -4876.13 6617.77 C-4876.13 6512.08, -4876.13 6406.39, -4876.13 6300.7 C-4891.49 6300.7, -4906.85 6300.7, -4922.21 6300.7 C-4922.21 6220.7, -4922.21 6140.7, -4922.21 6060.7 C-4906.85 6060.7, -4891.49 6060.7, -4876.13 6060.7 C-4876.13 5888.08, -4876.13 5715.47, -4876.13 5542.85 C-4891.49 5542.85, -4906.85 5542.85, -4922.21 5542.85 C-4922.21 5462.85, -4922.21 5382.85, -4922.21 5302.85 C-4906.85 5302.85, -4891.49 5302.85, -4876.13 5302.85 C-4876.13 5197.16, -4876.13 5091.47, -4876.13 4985.77 C-4044.13 4985.77, -3212.13 4985.77, -2380.13 4985.77 C-2380.13 5096.42, -2380.13 5207.07, -2380.13 5317.72 C-2364.77 5317.47, -2349.41 5317.22, -2334.05 5316.97 C-2334.05 5396.97, -2334.05 5476.97, -2334.05 5556.97 C-2349.41 5556.97, -2364.77 5556.97, -2380.13 5556.97 C-2380.13 5720.17, -2380.13 5883.37, -2380.13 6046.57 C-2364.77 6046.57, -2349.41 6046.57, -2334.05 6046.57 Z " stroke="black" stroke-width="1" fill="none" />

<path d="M-2380.13 7530.86 C-2364.77 7530.86, -2349.41 7530.86, -2334.05 7530.86 C-2334.05 7370.86, -2334.05 7210.86, -2334.05 7050.86 C-2349.41 7050.86, -2364.77 7050.86, -2380.13 7050.86 C-2380.13 7018.86, -2380.13 6986.86, -2380.13 6954.86 C-3212.13 6954.86, -4044.13 6954.86, -4876.13 6954.86 C-4876.13 6986.86, -4876.13 7018.86, -4876.13 7050.86 C-4891.49 7050.86, -4906.85 7050.86, -4922.21 7050.86 C-4922.21 7210.86, -4922.21 7370.86, -4922.21 7530.86 C-4906.85 7530.86, -4891.49 7530.86, -4876.13 7530.86 C-4876.13 7562.86, -4876.13 7594.86, -4876.13 7626.86 C-4044.13 7626.86, -3212.13 7626.86, -2380.13 7626.86 C-2380.13 7594.86, -2380.13 7562.86, -2380.13 7530.86 Z " stroke="black" stroke-width="1" fill="none" />

<path d="M-1489.76 6574.51 C-1489.76 6702.51, -1489.76 6830.51, -1489.76 6958.51 C-1474.4 6958.51, -1459.04 6958.51, -1443.68 6958.51 C-1443.68 7134.51, -1443.68 7310.51, -1443.68 7486.51 C-1459.04 7486.51, -1474.4 7486.51, -1489.76 7486.51 C-1489.76 7710.51, -1489.76 7934.51, -1489.76 8158.51 C-1474.4 8158.51, -1459.04 8158.51, -1443.68 8158.51 C-1443.68 8334.5, -1443.68 8510.5, -1443.68 8686.51 C-1459.04 8686.51, -1474.4 8686.51, -1489.76 8686.51 C-1489.76 8814.51, -1489.76 8942.5, -1489.76 9070.51 C-1517.73 9070.51, -1545.7 9070.51, -1573.67 9070.51 C-1573.67 9086.5, -1573.67 9102.51, -1573.67 9118.5 C-1634.47 9118.5, -1695.27 9118.5, -1756.07 9118.5 C-1756.07 9102.51, -1756.07 9086.5, -1756.07 9070.51 C-1830.38 9070.51, -1904.69 9070.51, -1979 9070.51 C-1979 8238.51, -1979 7406.51, -1979 6574.51 C-1904.69 6574.51, -1830.38 6574.51, -1756.07 6574.51 C-1756.07 6558.51, -1756.07 6542.51, -1756.07 6526.51 C-1695.27 6526.51, -1634.47 6526.51, -1573.67 6526.51 C-1573.67 6542.51, -1573.67 6558.51, -1573.67 6574.51 C-1545.7 6574.51, -1517.73 6574.51, -1489.76 6574.51 Z " stroke="black" stroke-width="1" fill="none" />

<path d="M-901.844 8129.71 C-901.844 8305.71, -901.844 8481.71, -901.844 8657.71 C-917.204 8657.71, -932.564 8657.71, -947.924 8657.71 C-947.924 8481.71, -947.924 8305.71, -947.924 8129.71 C-932.564 8129.71, -917.204 8129.71, -901.844 8129.71 Z " stroke="black" stroke-width="1" fill="none" />

<path d="M-549.524 9070.51 C-549.524 9085.86, -549.524 9101.23, -549.524 9116.59 C-632.724 9116.59, -715.924 9116.59, -799.124 9116.59 C-799.124 9101.23, -799.124 9085.86, -799.124 9070.51 C-715.924 9070.51, -632.724 9070.51, -549.524 9070.51 Z " stroke="black" stroke-width="1" fill="none" />

<path d="M525.676 6525.55 C525.676 6540.91, 525.676 6556.27, 525.676 6571.63 C442.476 6571.63, 359.276 6571.63, 276.076 6571.63 C276.076 6556.27, 276.076 6540.91, 276.076 6525.55 C359.276 6525.55, 442.476 6525.55, 525.676 6525.55 Z " stroke="black" stroke-width="1" fill="none" />

<path d="M-901.844 6929.71 C-901.844 7105.71, -901.844 7281.71, -901.844 7457.71 C-917.204 7457.71, -932.564 7457.71, -947.924 7457.71 C-947.924 7281.71, -947.924 7105.71, -947.924 6929.71 C-932.564 6929.71, -917.204 6929.71, -901.844 6929.71 Z " stroke="black" stroke-width="1" fill="none" />

<path d="M-549.524 6574.51 C-632.724 6574.51, -715.924 6574.51, -799.124 6574.51 C-799.124 6559.15, -799.124 6543.79, -799.124 6528.43 C-715.924 6528.43, -632.724 6528.43, -549.524 6528.43 C-549.524 6543.79, -549.524 6559.15, -549.524 6574.51 Z " stroke="black" stroke-width="1" fill="none" />

<path d="M516.076 9070.51 C516.076 9085.86, 516.076 9101.23, 516.076 9116.59 C436.076 9116.59, 356.076 9116.59, 276.076 9116.59 C276.076 9101.23, 276.076 9085.86, 276.076 9070.51 C356.076 9070.51, 436.076 9070.51, 516.076 9070.51 Z " stroke="black" stroke-width="1" fill="none" />

<path d="M-799.124 6456.43 C-288.724 6456.43, 221.676 6456.43, 732.076 6456.43 C732.076 7367.15, 732.076 8277.87, 732.076 9188.59 C156.076 9189.23, -419.924 9189.87, -995.924 9190.51 C-995.924 8278.51, -995.924 7366.51, -995.924 6454.51 C-930.324 6455.15, -864.724 6455.79, -799.124 6456.43 Z " stroke="black" stroke-width="1" fill="none" />

<path d="M-732.262 4259.76 C-732.262 4323.76, -732.262 4387.76, -732.262 4451.76 C-747.622 4451.76, -762.982 4451.76, -778.342 4451.76 C-778.342 4387.76, -778.342 4323.76, -778.342 4259.76 C-762.982 4259.76, -747.622 4259.76, -732.262 4259.76 Z " stroke="black" stroke-width="1" fill="none" />

<path d="M1178.92 3560.11 C1178.92 3569.71, 1178.92 3579.31, 1178.92 3588.91 C1163.56 3588.91, 1148.2 3588.91, 1132.84 3588.91 C1132.84 3540.91, 1132.84 3492.91, 1132.84 3444.91 C1148.24 3444.91, 1163.64 3444.91, 1179.04 3444.91 C1179.04 3483.31, 1179.04 3521.71, 1179.04 3560.11 C1179 3560.11, 1178.96 3560.11, 1178.92 3560.11 Z " stroke="black" stroke-width="1" fill="none" />

<path d="M266.644 4125.31 C281.091 4207.24, 295.539 4289.18, 309.986 4371.12 C294.86 4373.78, 279.733 4376.45, 264.607 4379.12 C250.159 4297.18, 235.712 4215.25, 221.264 4133.31 C236.391 4130.64, 251.517 4127.98, 266.644 4125.31 Z " stroke="black" stroke-width="1" fill="none" />

<path d="M-733.284 5825.71 C-733.284 5889.71, -733.284 5953.71, -733.284 6017.71 C-748.644 6017.71, -764.004 6017.71, -779.364 6017.71 C-779.364 5953.71, -779.364 5889.71, -779.364 5825.71 C-764.004 5825.71, -748.644 5825.71, -733.284 5825.71 Z " stroke="black" stroke-width="1" fill="none" />

<path d="M347.958 4851.83 C363.084 4849.16, 378.211 4846.49, 393.337 4843.82 C407.785 4925.76, 422.233 5007.7, 436.68 5089.63 C421.553 5092.3, 406.427 5094.97, 391.3 5097.63 C376.853 5015.7, 362.405 4933.76, 347.958 4851.83 Z " stroke="black" stroke-width="1" fill="none" />

<path d="M-512.575 3998.27 C-557.83 4043.52, -603.085 4088.78, -648.339 4134.03 C-659.201 4123.17, -670.062 4112.31, -680.923 4101.45 C-635.668 4056.19, -590.413 4010.94, -545.158 3965.68 C-534.297 3976.54, -523.436 3987.4, -512.575 3998.27 Z " stroke="black" stroke-width="1" fill="none" />

<path d="M1132.84 3252.78 C1148.2 3252.78, 1163.56 3252.78, 1178.92 3252.78 C1178.92 3300.78, 1178.92 3348.78, 1178.92 3396.78 C1163.56 3396.78, 1148.2 3396.78, 1132.84 3396.78 C1132.84 3348.78, 1132.84 3300.78, 1132.84 3252.78 Z " stroke="black" stroke-width="1" fill="none" />

<path d="M-41.5962 4428.24 C-26.4696 4425.57, -11.3429 4422.9, 3.78374 4420.23 C32.1231 4580.95, 60.4625 4741.67, 88.8019 4902.4 C73.6752 4905.06, 58.5486 4907.73, 43.4219 4910.4 C15.0826 4749.68, -13.2568 4588.96, -41.5962 4428.24 Z " stroke="black" stroke-width="1" fill="none" />

<path d="M137.465 3283.06 C148.327 3293.92, 159.188 3304.78, 170.049 3315.64 C124.794 3360.9, 79.5393 3406.15, 34.2845 3451.41 C23.4233 3440.55, 12.5621 3429.68, 1.70101 3418.82 C46.9558 3373.57, 92.2106 3328.31, 137.465 3283.06 Z " stroke="black" stroke-width="1" fill="none" />

<path d="M526.235 3231.77 C462.198 3231.77, 398.161 3231.77, 334.124 3231.77 C334.124 3216.41, 334.124 3201.05, 334.124 3185.69 C398.124 3185.69, 462.124 3185.69, 526.124 3185.69 C526.124 3198.49, 526.124 3211.29, 526.124 3224.09 C526.161 3226.65, 526.198 3229.21, 526.235 3231.77 Z " stroke="black" stroke-width="1" fill="none" />

<path d="M1619.55 5675.53 C1619.55 5617.93, 1619.55 5560.33, 1619.55 5502.73 C1634.91 5502.73, 1650.27 5502.73, 1665.63 5502.73 C1665.63 5560.33, 1665.63 5617.93, 1665.63 5675.53 C1650.27 5675.53, 1634.91 5675.53, 1619.55 5675.53 Z " stroke="black" stroke-width="1" fill="none" />

<path d="M585.747 3789.25 C580.688 3774.07, 575.628 3758.89, 570.568 3743.71 C692 3703.23, 813.431 3662.76, 934.863 3622.28 C939.922 3637.46, 944.982 3652.64, 950.042 3667.82 C828.61 3708.29, 707.179 3748.77, 585.747 3789.25 Z " stroke="black" stroke-width="1" fill="none" />

<path d="M1045.51 5930.38 C1190.52 5862.76, 1335.53 5795.14, 1480.54 5727.52 C1487.03 5741.44, 1493.52 5755.36, 1500.01 5769.28 C1355 5836.9, 1209.99 5904.52, 1064.98 5972.14 C1058.49 5958.22, 1052 5944.3, 1045.51 5930.38 Z " stroke="black" stroke-width="1" fill="none" />

<path d="M1481.31 5428.56 C1482.65 5413.26, 1483.99 5397.95, 1485.33 5382.65 C1421.57 5377.08, 1357.81 5371.5, 1294.06 5365.92 C1292.72 5381.22, 1291.38 5396.52, 1290.04 5411.82 C1162.53 5400.67, 1035.01 5389.51, 907.501 5378.36 C908.84 5363.05, 910.178 5347.75, 911.517 5332.45 C847.761 5326.87, 784.004 5321.3, 720.248 5315.72 C718.909 5331.02, 717.57 5346.32, 716.231 5361.62 C632.057 5354.26, 547.883 5346.89, 463.709 5339.53 C463.709 4852.52, 463.709 4365.51, 463.709 3878.5 C714.914 3794.76, 966.119 3711.03, 1217.32 3627.29 C1217.32 3467.29, 1217.32 3307.29, 1217.32 3147.29 C884.524 3147.29, 551.724 3147.29, 218.924 3147.29 C-126.298 3492.52, -471.52 3837.74, -816.742 4182.96 C-816.742 4820.9, -816.742 5458.84, -816.742 6096.79 C-752.742 6096.79, -688.742 6096.79, -624.742 6096.79 C-624.742 6112.15, -624.742 6127.51, -624.742 6142.87 C-544.742 6142.87, -464.742 6142.87, -384.742 6142.87 C-384.742 6127.51, -384.742 6112.15, -384.742 6096.79 C-106.342 6096.79, 172.058 6096.79, 450.458 6096.79 C450.458 6112.15, 450.458 6127.51, 450.458 6142.87 C530.458 6142.87, 610.458 6142.87, 690.458 6142.87 C690.458 6127.51, 690.458 6112.15, 690.458 6096.79 C764.058 6096.79, 837.658 6096.79, 911.258 6096.79 C1178.07 5972.37, 1444.89 5847.95, 1711.71 5723.53 C1711.71 5631.92, 1711.71 5540.32, 1711.71 5448.72 C1634.91 5442, 1558.11 5435.28, 1481.31 5428.56 Z " stroke="black" stroke-width="1" fill="none" />

<path d="M2568.82 3287.79 C2553.46 3287.79, 2538.1 3287.79, 2522.74 3287.79 C2522.74 3242.99, 2522.74 3198.19, 2522.74 3153.39 C2538.1 3153.39, 2553.46 3153.39, 2568.82 3153.39 C2568.82 3116.62, 2568.82 3079.85, 2568.82 3043.09 C3400.82 3043.09, 4232.82 3043.09, 5064.82 3043.09 C5064.82 3079.85, 5064.82 3116.62, 5064.82 3153.39 C5080.18 3153.39, 5095.54 3153.39, 5110.9 3153.39 C5110.9 3198.19, 5110.9 3242.99, 5110.9 3287.79 C5095.54 3287.79, 5080.18 3287.79, 5064.82 3287.79 C5064.82 3303.82, 5064.82 3319.85, 5064.82 3335.89 C5080.18 3335.89, 5095.54 3335.89, 5110.9 3335.89 C5110.9 3380.69, 5110.9 3425.49, 5110.9 3470.29 C5095.54 3470.29, 5080.18 3470.29, 5064.82 3470.29 C5064.82 3481.49, 5064.82 3492.69, 5064.82 3503.89 C4232.82 3503.89, 3400.82 3503.89, 2568.82 3503.89 C2568.82 3492.69, 2568.82 3481.49, 2568.82 3470.29 C2553.46 3470.29, 2538.1 3470.29, 2522.74 3470.29 C2522.74 3425.49, 2522.74 3380.69, 2522.74 3335.89 C2538.1 3335.89, 2553.46 3335.89, 2568.82 3335.89 C2568.82 3319.85, 2568.82 3303.82, 2568.82 3287.79 Z " stroke="black" stroke-width="1" fill="none" />

<path d="M4603.29 4235.9 C4603.29 4201.6, 4584.99 4169.91, 4555.29 4152.76 C4525.59 4135.61, 4488.99 4135.61, 4459.29 4152.76 C4429.59 4169.91, 4411.29 4201.6, 4411.29 4235.9 C4411.29 4270.19, 4429.59 4301.89, 4459.29 4319.04 C4488.99 4336.18, 4525.59 4336.18, 4555.29 4319.04 C4584.99 4301.89, 4603.29 4270.19, 4603.29 4235.9 Z " stroke="black" stroke-width="1" fill="none" />

<path d="M3307.29 4235.9 C3307.29 4201.6, 3288.99 4169.91, 3259.29 4152.76 C3229.59 4135.61, 3192.99 4135.61, 3163.29 4152.76 C3133.59 4169.91, 3115.29 4201.6, 3115.29 4235.9 C3115.29 4270.19, 3133.59 4301.89, 3163.29 4319.04 C3192.99 4336.18, 3229.59 4336.18, 3259.29 4319.04 C3288.99 4301.89, 3307.29 4270.19, 3307.29 4235.9 Z " stroke="black" stroke-width="1" fill="none" />

<path d="M1896.36 5723.56 C1896.36 5705.96, 1896.36 5688.36, 1896.36 5670.76 C1881 5670.76, 1865.64 5670.76, 1850.28 5670.76 C1850.28 5616.36, 1850.28 5561.96, 1850.28 5507.56 C1865.64 5507.56, 1881 5507.56, 1896.36 5507.56 C1896.36 5487.95, 1896.36 5468.33, 1896.36 5448.72 C2728.36 5448.72, 3560.36 5448.72, 4392.36 5448.72 C4392.36 5468.33, 4392.36 5487.95, 4392.36 5507.56 C4407.72 5507.56, 4423.08 5507.56, 4438.44 5507.56 C4438.44 5561.96, 4438.44 5616.36, 4438.44 5670.76 C4423.08 5670.76, 4407.72 5670.76, 4392.36 5670.76 C4392.36 5688.36, 4392.36 5705.96, 4392.36 5723.56 C3560.36 5723.56, 2728.36 5723.56, 1896.36 5723.56 Z " stroke="black" stroke-width="1" fill="none" />

<path d="M4564.99 6260.36 C4580.35 6260.36, 4595.71 6260.36, 4611.07 6260.36 C4611.07 6420.36, 4611.07 6580.36, 4611.07 6740.36 C4595.71 6740.36, 4580.35 6740.36, 4564.99 6740.36 C4564.99 6805.96, 4565.62 6918.45, 4565.62 6984.05 C3733.62 6984.05, 2903.55 6986.8, 2071.55 6986.8 C2071.55 6921.2, 2068.99 6805.96, 2068.99 6740.36 C2053.63 6740.36, 2038.27 6740.36, 2022.91 6740.36 C2022.91 6580.36, 2022.91 6420.36, 2022.91 6260.36 C2038.27 6260.36, 2053.63 6260.36, 2068.99 6260.36 C2068.99 6223.56, 2068.99 6186.76, 2068.99 6149.96 C2900.99 6149.96, 3732.99 6149.96, 4564.99 6149.96 C4564.99 6186.76, 4564.99 6223.56, 4564.99 6260.36 Z " stroke="black" stroke-width="1" fill="none" />

<path d="M1025.45 3231.92 C961.417 3231.92, 897.379 3231.92, 833.342 3231.92 C833.342 3216.56, 833.324 3201.05, 833.324 3185.69 C897.324 3185.69, 961.342 3185.84, 1025.34 3185.84 C1025.34 3198.64, 1025.34 3211.44, 1025.34 3224.24 C1025.38 3226.8, 1025.42 3229.36, 1025.45 3231.92 Z " stroke="black" stroke-width="1" fill="none" />

<path d="M833.324 3185.69 C833.324 3185.69, 1025.34 3185.84, 1025.34 3185.84 C1025.34 3185.84, 1025.45 3231.92, 1025.45 3231.92 C1025.45 3231.92, 833.342 3231.92, 833.342 3231.92 C833.342 3231.92, 833.324 3185.69, 833.324 3185.69 Z " stroke="black" stroke-width="1" fill="none" />

<path d="M5112.64 4040.9 C5128 4040.9, 5143.36 4040.9, 5158.72 4040.9 C5158.72 4168.9, 5158.72 4296.9, 5158.72 4424.9 C5143.36 4424.9, 5128 4424.9, 5112.64 4424.9 C5111.27 4474.42, 5110.97 4573.03, 5110.01 4622.99 C4278.01 4622.99, 3451.76 4622.95, 2619.76 4622.95 C2619.76 4573.35, 2616.64 4474.5, 2616.64 4424.9 C2601.28 4424.9, 2585.92 4424.9, 2570.56 4424.9 C2570.56 4296.9, 2570.56 4168.9, 2570.56 4040.9 C2585.92 4040.9, 2601.28 4040.9, 2616.64 4040.9 C2616.64 3970.62, 2612.9 3817.68, 2612.9 3747.39 C3444.9 3747.39, 4283.92 3745.33, 5115.92 3745.33 C5114.15 3816.45, 5112.64 3970.62, 5112.64 4040.9 Z " stroke="black" stroke-width="1" fill="none" />

<path d="M977.534 38.3999 C977.534 38.3999, 1169.55 38.5483, 1169.55 38.5483 C1169.55 38.5483, 1169.66 84.6281, 1169.66 84.6281 C1169.66 84.6281, 977.552 84.6281, 977.552 84.6281 C977.552 84.6281, 977.534 38.3999, 977.534 38.3999 Z " stroke="black" stroke-width="1" fill="none" />

<path d="M1169.66 84.6281 C1105.63 84.6281, 1041.59 84.6281, 977.552 84.6281 C977.552 69.2683, 977.534 53.7598, 977.534 38.3999 C1041.53 38.3999, 1105.55 38.5483, 1169.55 38.5483 C1169.55 51.3483, 1169.55 64.1482, 1169.55 76.9482 C1169.59 79.5083, 1169.63 82.0682, 1169.66 84.6281 Z " stroke="black" stroke-width="1" fill="none" />

<path d="M1625.52 2281.26 C1626.86 2265.96, 1628.2 2250.66, 1629.53 2235.36 C1565.78 2229.78, 1502.02 2224.2, 1438.27 2218.63 C1436.93 2233.93, 1435.59 2249.23, 1434.25 2264.53 C1306.74 2253.37, 1179.22 2242.22, 1051.71 2231.06 C1053.05 2215.76, 1054.39 2200.46, 1055.73 2185.16 C991.97 2179.58, 928.214 2174, 864.457 2168.42 C863.118 2183.73, 861.78 2199.03, 860.441 2214.33 C776.267 2206.96, 692.093 2199.6, 607.919 2192.24 C607.919 1705.23, 607.919 1218.22, 607.919 731.205 C859.124 647.47, 1110.33 563.735, 1361.53 480 C1361.53 320, 1361.53 160, 1361.53 0 C1028.73 0, 695.934 0, 363.134 0 C17.9118 345.222, -327.31 690.444, -672.533 1035.67 C-672.533 1673.61, -672.533 2311.55, -672.533 2949.49 C-608.533 2949.49, -544.533 2949.49, -480.533 2949.49 C-480.533 2964.85, -480.533 2980.21, -480.533 2995.57 C-400.533 2995.57, -320.533 2995.57, -240.533 2995.57 C-240.533 2980.21, -240.533 2964.85, -240.533 2949.49 C37.8673 2949.49, 316.267 2949.49, 594.667 2949.49 C594.667 2964.85, 594.667 2980.21, 594.667 2995.57 C674.667 2995.57, 754.667 2995.57, 834.667 2995.57 C834.667 2980.21, 834.667 2964.85, 834.667 2949.49 C908.267 2949.49, 981.867 2949.49, 1055.47 2949.49 C1322.28 2825.07, 1589.1 2700.65, 1855.92 2576.24 C1855.92 2484.63, 1855.92 2393.03, 1855.92 2301.42 C1779.12 2294.7, 1702.32 2287.98, 1625.52 2281.26 Z " stroke="black" stroke-width="1" fill="none" />

<path d="M1189.72 2783.08 C1334.73 2715.46, 1479.74 2647.85, 1624.75 2580.23 C1631.24 2594.15, 1637.73 2608.07, 1644.22 2621.99 C1499.21 2689.61, 1354.2 2757.23, 1209.19 2824.85 C1202.7 2810.93, 1196.21 2797, 1189.72 2783.08 Z " stroke="black" stroke-width="1" fill="none" />

<path d="M729.957 641.953 C724.897 626.774, 719.838 611.595, 714.778 596.416 C836.209 555.939, 957.641 515.462, 1079.07 474.984 C1084.13 490.163, 1089.19 505.342, 1094.25 520.521 C972.82 560.998, 851.388 601.475, 729.957 641.953 Z " stroke="black" stroke-width="1" fill="none" />

<path d="M1763.76 2528.24 C1763.76 2470.64, 1763.76 2413.04, 1763.76 2355.44 C1779.12 2355.44, 1794.48 2355.44, 1809.84 2355.44 C1809.84 2413.04, 1809.84 2470.64, 1809.84 2528.24 C1794.48 2528.24, 1779.12 2528.24, 1763.76 2528.24 Z " stroke="black" stroke-width="1" fill="none" />

<path d="M670.445 84.4797 C606.408 84.4797, 542.371 84.4797, 478.334 84.4797 C478.334 69.1199, 478.334 53.7598, 478.334 38.3999 C542.334 38.3999, 606.334 38.3999, 670.334 38.3999 C670.334 51.1999, 670.334 63.9998, 670.334 76.7998 C670.371 79.3599, 670.408 81.9198, 670.445 84.4797 Z " stroke="black" stroke-width="1" fill="none" />

<path d="M281.675 135.764 C292.536 146.626, 303.397 157.487, 314.258 168.348 C269.004 213.603, 223.749 258.857, 178.494 304.112 C167.633 293.251, 156.772 282.39, 145.911 271.529 C191.165 226.274, 236.42 181.019, 281.675 135.764 Z " stroke="black" stroke-width="1" fill="none" />

<path d="M102.613 1280.94 C117.74 1278.27, 132.867 1275.61, 147.993 1272.94 C176.333 1433.66, 204.672 1594.38, 233.011 1755.1 C217.885 1757.77, 202.758 1760.44, 187.632 1763.1 C159.292 1602.38, 130.953 1441.66, 102.613 1280.94 Z " stroke="black" stroke-width="1" fill="none" />

<path d="M1277.05 105.489 C1292.41 105.489, 1307.77 105.489, 1323.13 105.489 C1323.13 153.489, 1323.13 201.489, 1323.13 249.489 C1307.77 249.489, 1292.41 249.489, 1277.05 249.489 C1277.05 201.489, 1277.05 153.489, 1277.05 105.489 Z " stroke="black" stroke-width="1" fill="none" />

<path d="M-368.365 850.972 C-413.62 896.227, -458.875 941.481, -504.13 986.736 C-514.991 975.875, -525.852 965.014, -536.713 954.153 C-491.459 908.898, -446.204 863.643, -400.949 818.388 C-390.088 829.249, -379.227 840.111, -368.365 850.972 Z " stroke="black" stroke-width="1" fill="none" />

<path d="M492.167 1704.53 C507.294 1701.86, 522.42 1699.2, 537.547 1696.53 C551.995 1778.47, 566.442 1860.4, 580.89 1942.34 C565.763 1945, 550.636 1947.67, 535.51 1950.34 C521.062 1868.4, 506.615 1786.47, 492.167 1704.53 Z " stroke="black" stroke-width="1" fill="none" />

<path d="M-589.075 2678.41 C-589.075 2742.41, -589.075 2806.41, -589.075 2870.41 C-604.435 2870.41, -619.795 2870.41, -635.155 2870.41 C-635.155 2806.41, -635.155 2742.41, -635.155 2678.41 C-619.795 2678.41, -604.435 2678.41, -589.075 2678.41 Z " stroke="black" stroke-width="1" fill="none" />

<path d="M410.853 978.014 C425.301 1059.95, 439.749 1141.89, 454.196 1223.82 C439.07 1226.49, 423.943 1229.16, 408.816 1231.82 C394.369 1149.89, 379.921 1067.95, 365.474 986.016 C380.6 983.348, 395.727 980.681, 410.853 978.014 Z " stroke="black" stroke-width="1" fill="none" />

<path d="M1323.13 412.811 C1323.13 422.412, 1323.13 432.011, 1323.13 441.612 C1307.77 441.612, 1292.41 441.612, 1277.05 441.612 C1277.05 393.612, 1277.05 345.612, 1277.05 297.611 C1292.45 297.611, 1307.85 297.611, 1323.25 297.611 C1323.25 336.012, 1323.25 374.412, 1323.25 412.811 C1323.21 412.811, 1323.17 412.811, 1323.13 412.811 Z " stroke="black" stroke-width="1" fill="none" />

<path d="M-588.053 1112.47 C-588.053 1176.47, -588.053 1240.47, -588.053 1304.47 C-603.413 1304.47, -618.773 1304.47, -634.133 1304.47 C-634.133 1240.47, -634.133 1176.47, -634.133 1112.47 C-618.773 1112.47, -603.413 1112.47, -588.053 1112.47 Z " stroke="black" stroke-width="1" fill="none" />

<path d="M1629.53 2235.36 C1565.78 2229.78, 1502.02 2224.2, 1438.27 2218.63 C1436.93 2233.93, 1435.59 2249.23, 1434.25 2264.53 C1306.74 2253.37, 1179.22 2242.22, 1051.71 2231.06 C1053.05 2215.76, 1054.39 2200.46, 1055.73 2185.16 C991.97 2179.58, 928.214 2174, 864.457 2168.42 C863.118 2183.73, 861.78 2199.03, 860.441 2214.33 C776.267 2206.96, 692.093 2199.6, 607.919 2192.24 C607.919 1705.23, 607.919 1218.22, 607.919 731.205 C859.124 647.47, 1110.33 563.735, 1361.53 480 C1361.53 320, 1361.53 160, 1361.53 0 C1028.73 0, 695.934 0, 363.134 0 C17.9118 345.222, -327.31 690.444, -672.533 1035.67 C-672.533 1673.61, -672.533 2311.55, -672.533 2949.49 C-608.533 2949.49, -544.533 2949.49, -480.533 2949.49 C-480.533 2964.85, -480.533 2980.21, -480.533 2995.57 C-400.533 2995.57, -320.533 2995.57, -240.533 2995.57 C-240.533 2980.21, -240.533 2964.85, -240.533 2949.49 C37.8673 2949.49, 316.267 2949.49, 594.667 2949.49 C594.667 2964.85, 594.667 2980.21, 594.667 2995.57 C674.667 2995.57, 754.667 2995.57, 834.667 2995.57 C834.667 2980.21, 834.667 2964.85, 834.667 2949.49 C908.267 2949.49, 981.867 2949.49, 1055.47 2949.49 C1322.28 2825.07, 1589.1 2700.65, 1855.92 2576.24 C1855.92 2484.63, 1855.92 2393.03, 1855.92 2301.42 C1779.12 2294.7, 1702.32 2287.98, 1625.52 2281.26 C1626.86 2265.96, 1628.2 2250.66, 1629.53 2235.36 Z " stroke="black" stroke-width="1" fill="none" />

<path d="M-588.053 1304.47 C-603.413 1304.47, -618.773 1304.47, -634.133 1304.47 C-634.133 1240.47, -634.133 1176.47, -634.133 1112.47 C-618.773 1112.47, -603.413 1112.47, -588.053 1112.47 C-588.053 1176.47, -588.053 1240.47, -588.053 1304.47 Z " stroke="black" stroke-width="1" fill="none" />

<path d="M1323.13 441.611 C1307.77 441.611, 1292.41 441.611, 1277.05 441.611 C1277.05 393.611, 1277.05 345.611, 1277.05 297.611 C1292.45 297.611, 1307.85 297.611, 1323.25 297.611 C1323.25 336.011, 1323.25 374.411, 1323.25 412.811 C1323.21 412.811, 1323.17 412.811, 1323.13 412.811 C1323.13 422.411, 1323.13 432.011, 1323.13 441.611 Z " stroke="black" stroke-width="1" fill="none" />

<path d="M454.196 1223.82 C439.069 1226.49, 423.943 1229.16, 408.816 1231.82 C394.369 1149.89, 379.921 1067.95, 365.473 986.016 C380.6 983.348, 395.727 980.681, 410.853 978.014 C425.301 1059.95, 439.748 1141.89, 454.196 1223.82 Z " stroke="black" stroke-width="1" fill="none" />

<path d="M-589.075 2870.41 C-604.435 2870.41, -619.795 2870.41, -635.155 2870.41 C-635.155 2806.41, -635.155 2742.41, -635.155 2678.41 C-619.795 2678.41, -604.435 2678.41, -589.075 2678.41 C-589.075 2742.41, -589.075 2806.41, -589.075 2870.41 Z " stroke="black" stroke-width="1" fill="none" />

<path d="M537.547 1696.53 C551.995 1778.47, 566.442 1860.4, 580.89 1942.34 C565.763 1945, 550.637 1947.67, 535.51 1950.34 C521.062 1868.4, 506.615 1786.47, 492.167 1704.53 C507.294 1701.86, 522.421 1699.2, 537.547 1696.53 Z " stroke="black" stroke-width="1" fill="none" />

<path d="M-504.13 986.736 C-514.991 975.875, -525.852 965.014, -536.713 954.153 C-491.459 908.898, -446.204 863.643, -400.949 818.388 C-390.088 829.249, -379.227 840.111, -368.365 850.972 C-413.62 896.227, -458.875 941.481, -504.13 986.736 Z " stroke="black" stroke-width="1" fill="none" />

<path d="M1323.13 105.489 C1323.13 153.489, 1323.13 201.489, 1323.13 249.489 C1307.77 249.489, 1292.41 249.489, 1277.05 249.489 C1277.05 201.489, 1277.05 153.489, 1277.05 105.489 C1292.41 105.489, 1307.77 105.489, 1323.13 105.489 Z " stroke="black" stroke-width="1" fill="none" />

<path d="M147.993 1272.94 C176.333 1433.66, 204.672 1594.38, 233.011 1755.1 C217.885 1757.77, 202.758 1760.44, 187.632 1763.1 C159.292 1602.38, 130.953 1441.66, 102.613 1280.94 C117.74 1278.27, 132.867 1275.61, 147.993 1272.94 Z " stroke="black" stroke-width="1" fill="none" />

<path d="M314.258 168.348 C269.004 213.603, 223.749 258.857, 178.494 304.112 C167.633 293.251, 156.772 282.39, 145.911 271.529 C191.165 226.274, 236.42 181.019, 281.675 135.764 C292.536 146.626, 303.397 157.487, 314.258 168.348 Z " stroke="black" stroke-width="1" fill="none" />

<path d="M478.334 84.4797 C478.334 69.1199, 478.334 53.7598, 478.334 38.3999 C542.334 38.3999, 606.334 38.3999, 670.334 38.3999 C670.334 51.1999, 670.334 63.9998, 670.334 76.7998 C670.371 79.3599, 670.408 81.9198, 670.445 84.48 C606.408 84.48, 542.371 84.4797, 478.334 84.4797 Z " stroke="black" stroke-width="1" fill="none" />

<path d="M1763.76 2355.44 C1779.12 2355.44, 1794.48 2355.44, 1809.84 2355.44 C1809.84 2413.04, 1809.84 2470.64, 1809.84 2528.24 C1794.48 2528.24, 1779.12 2528.24, 1763.76 2528.24 C1763.76 2470.64, 1763.76 2413.04, 1763.76 2355.44 Z " stroke="black" stroke-width="1" fill="none" />

<path d="M714.778 596.416 C836.21 555.939, 957.641 515.462, 1079.07 474.984 C1084.13 490.163, 1089.19 505.342, 1094.25 520.521 C972.82 560.998, 851.389 601.475, 729.957 641.953 C724.897 626.774, 719.838 611.595, 714.778 596.416 Z " stroke="black" stroke-width="1" fill="none" />

<path d="M1624.75 2580.23 C1631.24 2594.15, 1637.73 2608.07, 1644.22 2621.99 C1499.21 2689.61, 1354.2 2757.23, 1209.19 2824.85 C1202.7 2810.93, 1196.21 2797, 1189.72 2783.08 C1334.73 2715.46, 1479.74 2647.85, 1624.75 2580.23 Z " stroke="black" stroke-width="1" fill="none" />

</svg>
