<svg xmlns="http://www.w3.org/2000/svg" viewBox="0 0 16.937 6.35"><path d="M1.303 0l-.65.65c-.547.547-.649.902-.649 2.26 0 1.359.102 1.714.65 2.261.357.357.833.65 1.058.65.225 0 .806-.072.806.073 0 .17 1.912.36 5.969.36s6.334 0 6.334-.169c0-.145.184-.264.41-.264.224 0 .7-.293 1.057-.65.548-.547.65-.902.65-2.26 0-1.359-.102-1.714-.65-2.261l-.65-.65H8.472z" fill="#f290c1"/><path d="M1.303 0l-.65.65c-.547.547-.649.902-.649 2.26 0 1.359.102 1.714.65 2.261.357.357.833.65 1.058.65.225 0 .806.008.806.153 0 .17 1.418-.021 5.376-.021 3.85 0 6.693.297 6.795.132.09-.145.34-.264.557-.264.216 0 .685-.293 1.042-.65.548-.547.65-.902.65-2.26 0-1.359-.102-1.714-.65-2.261l-.65-.65H8.472zm13.915.983l.595.366c.385.237.595.623.595 1.096 0 .401-.06.73-.132.73-.135 0-.187-.708-.066-.898.036-.058-.172-.372-.463-.7zM.898 3.543c.097.003.164.108.164.278 0 .465-.158.533-.385.166-.084-.136-.031-.321.117-.413a.188.188 0 0 1 .104-.032zm.6.502c.039-.013.065.073.073.254.011.255.11.45.22.432.108-.017 2.103-.009 4.43.019 2.704.031 4.043.134 3.705.283-.291.128-2.22.227-4.288.22-3.826-.013-4.575-.204-4.225-1.077.033-.08.061-.123.085-.131z" fill="#f291bd"/><path d="M1.303 0l-.65.65c-.547.547-.649.902-.649 2.26 0 1.359.102 1.714.65 2.261.357.357.833.65 1.058.65.225 0 1.076.04 1.076.185 0 .17 1.807.09 5.765.09 3.85 0 6.034.154 6.136-.011.09-.145.34-.264.557-.264.216 0 .685-.293 1.042-.65.548-.547.65-.902.65-2.26 0-1.359-.102-1.714-.65-2.261l-.65-.65H8.472zm1.1.53H15.11l.65.649c.639.64.9 1.996.384 1.996-.146 0-.265-.178-.265-.395 0-.217-.26-.693-.577-1.058l-.576-.664H8.873c-6.265 0-6.941.117-7.496 1.293-.44.931-.4 1.181.298 1.836.575.54.865.575 4.762.575 2.59 0 4.15.1 4.15.265 0 .167-1.642.259-4.431.249-4.328-.016-4.446-.032-5.027-.653-.924-.986-.797-3.218.34-4.26z" fill="#a3809c"/><path d="M1.303 0l-.65.65c-.547.547-.649.902-.649 2.26 0 1.359.102 1.714.65 2.261.357.357.826.65 1.043.65.216 0 .386.232.542.241.535.03.73.005 1.13-.049.4-.055 3.114.04 6.344-.023l5.872-.115.676-.677c.577-.577.676-.912.676-2.288 0-1.358-.101-1.713-.649-2.26l-.65-.65H8.472zm.766.53h13.04l.65.649c.742.742.92 2.157.239 1.895-.234-.09-.342-.045-.25.102.088.143-.139.558-.504.923-.591.591-.881.663-2.66.663-1.154 0-1.997.112-1.997.265 0 .167-1.642.259-4.431.249-4.328-.016-4.446-.032-5.027-.653-.863-.92-.714-3.018.251-4.05zm12.487.528c-.013.014.067.121.231.331.2.255.408.463.463.463.218 0 .078-.217-.363-.563-.21-.164-.317-.244-.33-.23zM1.184 3.44c-.117 0 .066.297.408.661.341.364.714.661.827.661.113 0 .39.053.054-.311-.337-.364-1.171-1.011-1.289-1.011zM6.09 4.528c-.6 0-1.2.013-1.654.039-.91.051-.165.094 1.654.094s2.563-.043 1.653-.094a31.07 31.07 0 0 0-1.653-.04z" fill="#a8769a"/><path d="M1.303 0l-.65.65c-.546.547-.649.902-.649 2.258 0 1.303.113 1.73.595 2.245l.596.635 7.144.008 7.143.008.728-.64c.644-.567.727-.826.727-2.253 0-1.359-.101-1.714-.649-2.261l-.65-.65H8.472zm.53.53H15.11l.65.649c.885.886.815 1.583-.269 2.666-.884.884-.703.965-2.624.965-1.153 0-2.28.064-2.28.217 0 .167-1.642.259-4.431.249-4.328-.016-4.446-.032-5.027-.653-.845-.902-.819-2.572.054-3.444z" fill="#2f99a1"/><path d="M1.303 0l-.65.65c-.546.547-.649.902-.649 2.258 0 1.303.113 1.73.595 2.245l.596.635 7.144.008 7.016.103.855-.735c.644-.567.727-.826.727-2.253 0-1.359-.101-1.714-.649-2.261l-.65-.65H8.472zm.53.53H15.11l.65.649c.477.478.648.935.648 1.731 0 .797-.17 1.254-.649 1.732l-.65.65-6.692-.016-6.693-.017-.595-.635c-.845-.904-.755-2.749.118-3.62z" fill="#5b3b6a"/><path d="M16.673 1.587c-.12-.084-.265.542-.265 1.203 0 .924-.15 1.353-.649 1.852l-.65.65-13.228-.19-.698-.46c-.356-.357-.506-.943-.506-1.17 0-.224-.262-.297-.407-.297-.533 0-.005 1.371.833 2.25l.622.359 6.69.019 6.689.018.917-.917c.777-.777.917-1.101.917-2.117 0-.66-.034-1.037-.153-1.12z"/><text style="line-height:1.25" x="2.765" y="2.203" font-weight="400" font-size="5.333" font-family="sans-serif" letter-spacing="0" word-spacing="0"/><g aria-label="reset" style="line-height:1.25;-inkscape-font-specification:'Nexa Bold, '" font-weight="400" font-size="4.667" font-family="Arial Rounded MT Bold" letter-spacing="0" word-spacing="0" fill="#5b3b6a"><path d="M3.417 3.587v.52c0 .125-.03.22-.088.284a.298.298 0 0 1-.226.093.285.285 0 0 1-.221-.095c-.058-.064-.087-.158-.087-.283V2.374c0-.28.101-.419.303-.419.104 0 .178.033.224.098a.54.54 0 0 1 .075.29c.074-.128.15-.225.228-.29a.478.478 0 0 1 .314-.098c.13 0 .258.033.38.098.124.065.185.152.185.26a.249.249 0 0 1-.08.19.242.242 0 0 1-.168.072.815.815 0 0 1-.166-.041.74.74 0 0 0-.23-.043.335.335 0 0 0-.224.073c-.058.047-.055.165-.087.26-.032.093-.101.158-.113.289-.013.129-.019.287-.019.474zM6.464 3.372H5.247c.002.142.03.266.084.374.057.108.13.19.221.244a.59.59 0 0 0 .306.082c.074 0 .094-.04.155-.057.062-.018.138-.093.196-.13.058-.037.11-.046.16-.088.048-.043.143-.053.22-.126a.204.204 0 0 1 .137-.041c.064 0 .115.017.155.052.04.035.06.085.06.149a.41.41 0 0 1-.067.198.798.798 0 0 1-.2.216c-.089.069-.2.126-.335.171a1.432 1.432 0 0 1-.463.068c-.4 0-.758-.05-.98-.278-.221-.228-.285-.6-.285-.99 0-.185.028-.355.082-.511.055-.158.135-.293.24-.406.105-.112.234-.198.387-.257.153-.061.324-.091.51-.091.244 0 .452.051.625.155.175.101.305.234.392.396.086.163.13.328.13.497 0 .156-.045.258-.135.305a.85.85 0 0 1-.378.068zM5.247 3.02l1.049-.016c-.016-.212.006-.355-.094-.46a.51.51 0 0 0-.392-.16.5.5 0 0 0-.383.162c-.099.107-.159.265-.18.474zM9.506 3.671a.768.768 0 0 1-.125.442.776.776 0 0 1-.372.278c-.162.062-.36.093-.595.093-.223 0-.414-.034-.574-.102a.841.841 0 0 1-.353-.255.521.521 0 0 1-.114-.31.25.25 0 0 1 .257-.248c.066 0 .116.015.151.047a.524.524 0 0 1 .1.135c.064.11.076.146.165.2.266-.033.433.05.587.05.124 0 .067.053.146-.002.08-.056.12-.12.12-.191 0-.11-.041-.19-.125-.24a1.515 1.515 0 0 0-.407-.143 3.538 3.538 0 0 1-.524-.166.873.873 0 0 1-.322-.233.53.53 0 0 1-.12-.353c0-.125.037-.242.111-.353a.76.76 0 0 1 .328-.265c.146-.066.322-.1.527-.1.16 0 .305.017.433.05.129.034.236.079.32.135a.645.645 0 0 1 .197.187.361.361 0 0 1 .068.2.23.23 0 0 1-.073.176c-.047.045-.114.068-.203.068a.254.254 0 0 1-.164-.055 1.116 1.116 0 0 1-.152-.164.562.562 0 0 0-.167-.146.524.524 0 0 0-.26-.054.503.503 0 0 0-.28.073c-.074.047-.111.106-.111.177 0 .066.027.12.082.162.054.041.192.06.284.087.093.027.157.076.32.116.192.047.35.103.471.169a.767.767 0 0 1 .278.232c.064.088.096.19.096.303zM11.773 3.372l-1.121.064c.001.141-.066.202-.011.31.056.108.13.19.22.244a.59.59 0 0 0 .306.082.764.764 0 0 0 .203-.025.71.71 0 0 0 .18-.082c.058-.038.11-.078.16-.12l.189-.174a.204.204 0 0 1 .136-.041c.064 0 .116.017.155.052.04.035.06.085.06.149a.41.41 0 0 1-.067.198.797.797 0 0 1-.2.216c-.088.069-.2.126-.335.171a1.432 1.432 0 0 1-.463.068c-.4 0-.71-.113-.932-.341-.221-.228-.332-.537-.332-.928 0-.184.027-.354.082-.51.054-.158.134-.293.239-.406.105-.112.234-.198.387-.257.154-.061.324-.091.51-.091.244 0 .452.051.625.155.175.101.305.234.392.396.087.163.13.328.13.497 0 .156-.045.258-.135.305a.85.85 0 0 1-.378.068zm-1.217-.353h1.128c-.015-.212-.073-.371-.173-.476-.099-.106-.182-.064-.344-.064-.155 0-.267.006-.367.114-.099.106-.222.217-.244.426zM12.842 2.01h.068v-.374c0-.1.003-.178.007-.235a.362.362 0 0 1 .046-.148.272.272 0 0 1 .104-.102.307.307 0 0 1 .367.048c.043.04.07.088.08.145.012.057-.006.36.002.464l.016.202h.228c.088 0 .155.021.2.064.048.04.071.094.071.16 0 .083-.033.141-.1.175-.065.033-.208-.048-.283.05l-.108.143c-.082.381 0 .762 0 1.144 0 .097-.005.03.001.082a.245.245 0 0 0 .055.128c.03.032.08.048.146.048a.82.82 0 0 0 .148-.019.729.729 0 0 1 .146-.02c.05 0 .095.02.134.061.041.04.062.09.062.149 0 .1-.055.177-.164.23-.11.053-.267.08-.472.08-.194 0-.342-.033-.442-.099a.46.46 0 0 1-.198-.27c-.03-.116-.101-.27-.093-.463.015-.398-.12-.343.047-1.194h-.082c-.09 0-.158-.022-.205-.064a.209.209 0 0 1-.07-.162c0-.065.024-.118.072-.16a.326.326 0 0 1 .217-.063z" style="-inkscape-font-specification:'Arial Rounded MT Bold, '"/></g></svg>