<svg xmlns="http://www.w3.org/2000/svg" viewBox="0 0 23.813 24.362"><path fill="#f290c1" d="M11.906 0c-2.431 0-3.304.092-3.59.378-.29.29-.378 1.21-.378 3.969v3.591h-3.59c-2.76 0-3.68.087-3.97.378C.092 8.602 0 9.474 0 11.9c0 3.051.032 3.237.65 3.855.62.62.797.65 3.968.65h3.32v3.583c0 2.49.1 3.697.33 3.958.48.544 6.688.56 7.23.018.29-.29.377-1.21.377-3.968v-3.591h3.32c3.171 0 3.348-.03 3.969-.65.618-.618.649-.804.649-3.855 0-2.426-.092-3.298-.378-3.584-.288-.288-1.174-.378-3.704-.378h-3.327V4.763c0-1.94-.103-3.175-.264-3.175-.146 0-.265-.187-.265-.416 0-.98-.65-1.172-3.969-1.172z"/><path fill="#f291bd" d="M11.906 0c-2.431 0-3.304.092-3.59.378-.29.29-.378 1.21-.378 3.969v3.591h-3.59c-2.76 0-3.68.087-3.97.378C.092 8.602 0 9.474 0 11.9c0 3.051.032 3.237.65 3.855.62.62.797.65 3.968.65h3.32v3.583c0 2.49.1 3.697.33 3.958.48.544 6.688.56 7.23.018.29-.29.377-1.21.377-3.968v-3.591h3.241c3.027-.001 3.29-.042 3.97-.627.719-.619.727-.66.727-3.855 0-2.446-.092-3.321-.378-3.607-.288-.288-1.174-.378-3.704-.378h-3.327V4.763c0-1.94-.103-3.175-.264-3.175-.146 0-.265-.187-.265-.416 0-.98-.65-1.172-3.969-1.172zm1.799.534c.188-.002.635.288.992.645.626.626.649.781.649 4.234 0 2.368-.096 3.583-.283 3.583-.19 0-.263-1.135-.222-3.438.058-3.3.035-3.46-.552-3.969-.336-.292-.504-.532-.372-.534.131-.002.06-.12-.159-.26-.283-.184-.298-.258-.053-.261zm-4.488.525c.12 0 .22.178.22.397 0 .45-.019.466-.264.22-.247-.246-.22-.617.044-.617zm-.561 6.398c.044-.018.099.08.19.283.114.254.138.641.054.86-.169.44-.962.549-.962.132 0-.146.11-.265.246-.265s.293-.268.35-.595c.046-.261.078-.396.122-.415zM22.4 8.997c.24 0 .883.755.883 1.039 0 .387-.45.357-.704-.048-.25-.399-.356-.992-.18-.992zM.936 9.63c.027-.006.051 0 .071.02.082.081 0 .295-.18.474-.261.26-.292.23-.148-.148.074-.196.176-.327.257-.346zm21.876 2.83c.038-.01.107.097.234.315.151.26.234.595.185.745-.142.424-.477-.054-.468-.666.003-.254.01-.383.049-.394zm-22.071.88a.16.16 0 0 1 .053.02c.145.09.264.336.264.546 0 .21-.119.381-.264.381-.146 0-.265-.245-.265-.545 0-.262.091-.426.212-.403zm3.214 1.5c1.97-.026 4.558.11 4.762.355.137.166.27 1.781.296 3.59.03 2.222-.05 3.319-.25 3.385-.208.07-.296-.931-.296-3.363v-3.462H5.012c-2.294 0-3.4-.09-3.288-.271.089-.144 1.049-.218 2.231-.234zm5.258 7.66c.128.001.393.127.725.378.387.292.416.387.116.386-.218 0-.55-.176-.738-.388-.22-.25-.23-.375-.103-.375z"/><path fill="#a3809c" d="M12.012 0C7.81 0 7.938-.139 7.938 4.407v3.531H4.453c-4.58 0-4.453-.113-4.452 3.943 0 2.844.045 3.122.625 3.796.622.723.65.728 3.97.728h3.342v3.609c0 3.126.062 3.655.463 3.96.318.241 1.374.354 3.38.36 4.184.012 4.094.108 4.094-4.372v-3.557h3.271c3.182 0 3.29-.02 3.969-.698.675-.675.697-.798.69-3.77-.006-2.135-.116-3.214-.36-3.536-.302-.398-.821-.463-3.696-.463h-3.345V4.763c0-1.94-.103-3.175-.264-3.175-.146 0-.265-.187-.265-.416C15.875.199 15.22 0 12.012 0zm-.106.53c1.92 0 2.208.067 2.79.65.621.62.65.797.65 3.968v3.32h3.32c3.171 0 3.348.028 3.968.649.575.574.65.879.65 2.646 0 1.154-.112 1.996-.265 1.996-.15 0-.265-.75-.265-1.718 0-1.386-.111-1.846-.576-2.381-.56-.644-.678-.664-3.97-.664h-3.391V5.677c0-3.171-.029-3.348-.65-3.969-.547-.547-.902-.65-2.26-.65-1.359 0-1.714.103-2.261.65-.62.62-.65.798-.65 3.97v3.318h-3.32c-3.17 0-3.347.03-3.968.65-.568.568-.65.886-.65 2.532 0 1.28.122 2.005.379 2.261.29.29 1.21.378 3.969.378h3.59v3.394c0 3.205.034 3.425.612 3.968.45.422.944.576 1.852.576.682 0 1.24.119 1.24.264 0 .148-.673.258-1.521.249-1.253-.014-1.627-.129-2.117-.652-.552-.59-.595-.878-.595-3.953v-3.317h-3.32c-3.17 0-3.348-.029-3.968-.65-.579-.578-.65-.874-.65-2.711.001-1.787.084-2.16.627-2.79.62-.723.65-.728 3.968-.728h3.343V5.148c0-3.171.029-3.348.65-3.969.582-.582.87-.65 2.79-.65zM9.782 11.668c.154.024.358.267.56.723.182.412.668.898 1.08 1.08.412.183.749.441.749.575 0 .133-.281.242-.625.242-.807 0-2.02-1.214-2.02-2.02 0-.426.102-.623.256-.6z"/><path fill="#a8769a" d="M12.06 0C7.84 0 7.939-.105 7.939 4.425v3.513H4.5c-4.598 0-4.5-.086-4.5 3.991 0 2.976.023 3.104.697 3.778.678.678.787.698 3.969.698h3.27v3.485c0 2.87.078 3.57.439 3.968.374.413.865.484 3.356.484 2.633 0 2.978-.057 3.53-.576.58-.543.613-.763.613-3.968v-3.394l3.241-.008c4.438-.011 4.697-.266 4.697-4.618 0-3.822-.02-3.84-4.234-3.84h-3.175V4.763c0-1.94-.103-3.175-.264-3.175-.146 0-.265-.187-.265-.416 0-.97-.657-1.172-3.814-1.172zm-.154.53c1.92 0 2.208.067 2.79.65.621.62.65.797.65 3.968v3.32h3.32c3.171 0 3.348.028 3.968.649.575.574.65.879.65 2.646 0 1.737-.062 1.996-.471 1.996-.26 0-.643.238-.852.529-.348.482-.685.53-3.763.53h-3.381l-.034 1.653c-.018.91-.04 2.424-.047 3.366-.011 1.42-.117 1.817-.616 2.316-.33.33-.786.602-1.01.602-.225 0-.41.119-.41.264 0 .148-.673.258-1.521.249-1.253-.014-1.627-.129-2.117-.652-.552-.59-.595-.878-.595-3.953v-3.317h-3.32c-3.17 0-3.348-.029-3.968-.65-.583-.582-.65-.87-.65-2.79s.067-2.207.65-2.79c.62-.62.797-.649 3.969-.649h3.319V5.148c0-3.171.029-3.348.65-3.969.582-.582.87-.65 2.79-.65zm0 2.116c-.617 0-.793.117-.793.529 0 .291-.12.53-.265.53-.145 0-.265.237-.265.528 0 .291-.119.53-.264.53-.146 0-.265.238-.265.529 0 .29-.119.529-.264.529-.146 0-.28.208-.3.463-.019.254-.127.046-.24-.463l-.206-.926.042.926.042.926 2.646.147c1.455.081 2.735.17 2.844.199.251.064.26-1.072.013-1.714-.167-.433-.202-.419-.331.13-.128.541-.232.448-.877-.794-.402-.774-.73-1.557-.727-1.738.002-.192-.329-.331-.79-.331zm9.525 6.35c-.013.013.067.12.231.33.346.441.563.582.563.364 0-.055-.208-.264-.463-.463-.21-.165-.317-.245-.33-.231zm-14.874.021c-.772-.016-.951.065-.831.377.111.29-.285.596-1.455 1.125-1.343.607-1.608.834-1.609 1.387-.001.56.264.78 1.722 1.432 1.728.772 1.875 1.067.643 1.288-.364.065.35.115 1.588.11 1.237-.005 1.802-.055 1.257-.112l-.993-.104v-2.608c0-1.838.098-2.647.331-2.741.182-.073-.112-.143-.653-.154zm5.365.464c-.676.022-1.35.282-1.77.772-.651.756-.817 1.389-.364 1.389.144 0 .41-.238.592-.53.426-.68 1.271-.673 2.152.02.85.668.931 1.812.168 2.362-.29.21-.529.474-.529.587 0 .383.718.21 1.42-.342.93-.732.996-2.67.121-3.602-.434-.462-1.113-.678-1.79-.656zm5.23.044c-.229 0-.313 4.58-.089 4.804.071.071 1.017-.296 2.1-.816 1.73-.83 1.973-1.034 1.987-1.673.01-.4-.1-.728-.244-.728-.143 0-.997-.357-1.898-.793-.901-.437-1.737-.794-1.856-.794zm-15.98 3.386c-.034.018-.058.178-.062.45-.005.437.05.648.122.469.073-.18.077-.537.01-.794-.025-.097-.05-.136-.07-.125zm1.704 1.673a2.998 2.998 0 0 0-.558.046c-.329.063-.122.117.46.12.582.003.852-.049.599-.115a2.182 2.182 0 0 0-.501-.05zm10.134 2.282c-.297.002-.625.008-.97.02-1.538.051-2.515.193-2.515.364 0 .154.387 1.092.86 2.084.721 1.513.967 1.804 1.521 1.81.568.004.793-.279 1.588-2.005.51-1.105.956-2.083.993-2.174.028-.067-.585-.104-1.477-.099zm-3.946 4.427a.043.043 0 0 0-.03.012c-.062.063.037.296.221.517.472.57.6.501.216-.114-.155-.249-.325-.419-.407-.415z"/><path fill="#2f99a1" d="M12.093.009C9.408 0 9.198.039 8.587.65c-.62.62-.65.797-.65 3.969v3.319H4.619c-3.171 0-3.348.029-3.968.65-.608.607-.65.83-.65 3.44 0 1.683.105 2.79.265 2.79.145 0 .264.237.264.528 0 .353.177.53.53.53.29 0 .529.119.529.264 0 .162 1.234.265 3.175.265h3.175v3.316c0 3.075.043 3.364.595 3.953.552.59.796.637 3.32.652 2.55.015 2.765-.025 3.373-.633.62-.62.65-.798.65-3.97v-3.318h3.174c1.94 0 3.175-.103 3.175-.265 0-.145.19-.265.422-.265.232 0 .484-.238.56-.529.076-.29.244-.529.372-.529.129 0 .234-1.255.234-2.79 0-2.61-.042-2.832-.65-3.44-.62-.62-.796-.649-3.98-.649H15.85l.053-3.579c.067-4.471.184-4.338-3.811-4.35zm-.114.52c2.033 0 2.26.055 2.79.664.527.606.577.952.577 3.969v3.305h3.32c3.171 0 3.348.03 3.968.65.575.574.65.879.65 2.646 0 1.737-.062 1.996-.471 1.996-.26 0-.643.238-.852.529-.348.482-.685.53-3.763.53h-3.381v3.318c0 3.172-.029 3.349-.65 3.97-.356.356-.833.649-1.058.649-.224 0-.409.119-.409.264 0 .148-.673.258-1.521.249-1.253-.014-1.627-.129-2.117-.652-.552-.59-.595-.878-.595-3.953v-3.317h-3.32c-3.17 0-3.348-.029-3.968-.65-.583-.582-.65-.87-.65-2.79s.067-2.207.65-2.79c.62-.62.797-.649 3.969-.649h3.319V5.148c0-3.171.029-3.348.65-3.969.585-.586.865-.65 2.862-.65zm-.044 2.117c-.286 0-.788.7-1.425 1.989-.542 1.094-.985 2.046-.985 2.116 0 .07 1.072.129 2.381.129 1.31 0 2.382-.048 2.382-.105 0-.058-.43-1.01-.956-2.117-.627-1.321-1.107-2.012-1.397-2.012zm-5.138 6.88c-.046 0-.727.31-1.513.69-.787.379-1.702.793-2.034.92-1.142.433-.72 1.126 1.314 2.153 1.055.532 2.008.974 2.117.983.109.01.198-1.056.198-2.365 0-1.31-.037-2.382-.082-2.382zm5.103 0c-1.12 0-1.536.25-2.068 1.244-.376.702-.384.872-.042.872.145 0 .264-.14.264-.31 0-.17.193-.523.429-.783.41-.454.468-.453 1.415.03.567.29 1.165.874 1.408 1.375.386.797.386.91 0 1.338-.233.256-.583.467-.779.467-.196 0-.356.119-.356.264 0 .346.15.334.858-.066.932-.525 1.241-1.052 1.25-2.128.012-1.409-.912-2.304-2.38-2.304zm5.162 0c-.07 0-.129 1.071-.129 2.38 0 1.31.058 2.382.129 2.382.07 0 1.023-.443 2.116-.984 1.206-.597 1.989-1.147 1.989-1.397s-.783-.8-1.989-1.398c-1.093-.54-2.046-.984-2.116-.984zm-5.156 7.408c-1.31 0-2.38.058-2.38.128s.444 1.026.987 2.124c.657 1.328 1.122 1.971 1.39 1.922.346-.064 2.353-3.421 2.376-3.976.005-.109-1.063-.198-2.373-.198z"/><path fill="#96266c" d="M12.093.009C9.408 0 9.198.039 8.587.65c-.62.62-.65.797-.65 3.969v3.319H4.619c-3.171 0-3.348.029-3.968.65-.608.607-.65.83-.65 3.44 0 1.683.105 2.79.265 2.79.145 0 .264.237.264.528 0 .353.177.53.53.53.29 0 .529.119.529.264 0 .162 1.234.265 3.175.265h3.175v3.316c0 3.075.043 3.364.595 3.953.552.59.796.637 3.32.652 2.55.015 2.765-.025 3.373-.633.62-.62.65-.798.65-3.97v-3.318h3.174c1.94 0 3.175-.103 3.175-.265 0-.145.19-.265.422-.265.232 0 .484-.238.56-.529.076-.29.244-.529.372-.529.129 0 .234-1.255.234-2.79 0-2.61-.042-2.832-.65-3.44-.62-.62-.796-.649-3.98-.649H15.85l.053-3.579c.067-4.471.184-4.338-3.811-4.35zm-.114.52c2.033 0 2.26.055 2.79.664.527.606.577.952.577 3.969v3.305h3.32c3.171 0 3.348.03 3.968.65.583.582.65.87.65 2.79s-.067 2.207-.65 2.79c-.62.62-.797.65-3.968.65h-3.32v3.318c0 3.172-.029 3.349-.65 3.97-.588.588-.854.647-2.843.633-1.965-.015-2.258-.083-2.79-.652-.553-.59-.596-.878-.596-3.953v-3.317h-3.32c-3.17 0-3.348-.029-3.968-.65-.583-.582-.65-.87-.65-2.79s.067-2.207.65-2.79c.62-.62.797-.649 3.969-.649h3.319V5.148c0-3.171.029-3.348.65-3.969.585-.586.865-.65 2.862-.65zm-.044 2.117c-.286 0-.788.7-1.425 1.989-.542 1.094-.985 2.046-.985 2.116 0 .07 1.072.129 2.381.129 1.31 0 2.382-.048 2.382-.105 0-.058-.43-1.01-.956-2.117-.627-1.321-1.107-2.012-1.397-2.012zm-5.138 6.88c-.046 0-.727.31-1.513.69-.787.379-1.702.793-2.034.92-1.142.433-.72 1.126 1.314 2.153 1.055.532 2.008.974 2.117.983.109.01.198-1.056.198-2.365 0-1.31-.037-2.382-.082-2.382zm5.103 0c-1.12 0-1.536.25-2.068 1.244-.376.702-.384.872-.042.872.145 0 .264-.14.264-.31 0-.17.193-.523.429-.783.41-.454.468-.453 1.415.03.567.29 1.165.874 1.408 1.375.386.797.386.91 0 1.338-.233.256-.583.467-.779.467-.196 0-.356.119-.356.264 0 .346.15.334.858-.066.932-.525 1.241-1.052 1.25-2.128.012-1.409-.912-2.304-2.38-2.304zm5.162 0c-.07 0-.129 1.071-.129 2.38 0 1.31.058 2.382.129 2.382.07 0 1.023-.443 2.116-.984 1.206-.597 1.989-1.147 1.989-1.397s-.783-.8-1.989-1.398c-1.093-.54-2.046-.984-2.116-.984zm-5.156 7.408c-1.31 0-2.38.058-2.38.128s.444 1.026.987 2.124c.657 1.328 1.122 1.971 1.39 1.922.346-.064 2.353-3.421 2.376-3.976.005-.109-1.063-.198-2.373-.198z"/><path fill="#5b3b6a" d="M12.093.009C9.408 0 9.198.039 8.587.65c-.62.62-.65.797-.65 3.969v3.319H4.619c-3.171 0-3.348.029-3.968.65-.608.607-.65.83-.65 3.44 0 1.683.105 2.79.265 2.79.145 0 .264.237.264.528 0 .353.177.53.53.53.29 0 .529.119.529.264 0 .162 1.234.265 3.175.265h3.175v3.316c0 3.075.043 3.364.595 3.953.552.59.796.637 3.32.652 2.55.015 2.765-.025 3.373-.633.62-.62.65-.798.65-3.97v-3.318h3.174c1.94 0 3.175-.103 3.175-.265 0-.145.19-.265.422-.265.232 0 .484-.238.56-.529.076-.29.244-.529.372-.529.129 0 .234-1.255.234-2.79 0-2.61-.042-2.832-.65-3.44-.62-.62-.797-.649-3.968-.649h-3.32v-3.61c0-3.126-.062-3.655-.463-3.96-.317-.24-1.364-.353-3.319-.36zm-.112.52c1.973 0 2.277.067 2.79.613.528.562.575.887.575 3.969v3.356h3.394c3.205 0 3.425.034 3.968.612.495.527.575.919.575 2.79 0 1.96-.064 2.243-.649 2.828-.62.62-.797.65-3.968.65h-3.32v3.318c0 3.172-.029 3.349-.65 3.97-.585.585-.865.649-2.863.649-1.974 0-2.278-.067-2.79-.613-.529-.562-.576-.886-.576-3.968v-3.357H5.074c-3.205 0-3.426-.034-3.969-.612-.498-.53-.576-.917-.576-2.863 0-2.072.053-2.296.664-2.827.605-.527.951-.577 3.969-.577h3.305V5.148c0-3.171.029-3.348.65-3.969.585-.586.865-.65 2.864-.65zm-.046 2.117c-.286 0-.788.7-1.425 1.989-.542 1.094-.985 2.046-.985 2.116 0 .07 1.072.129 2.381.129 1.31 0 2.382-.048 2.382-.105 0-.058-.43-1.01-.956-2.117-.627-1.321-1.107-2.012-1.397-2.012zm-5.138 6.88c-.046 0-.727.31-1.513.69-.787.379-1.702.793-2.034.92-1.142.433-.72 1.126 1.314 2.153 1.055.532 2.008.974 2.117.983.109.009.198-1.056.198-2.365 0-1.31-.037-2.382-.082-2.382zm5.103 0c-1.12 0-1.536.25-2.068 1.244-.376.702-.384.872-.042.872.145 0 .264-.14.264-.31 0-.17.193-.523.429-.783.41-.454.468-.453 1.415.03.567.29 1.165.874 1.408 1.375.386.797.386.91 0 1.338-.233.256-.583.467-.779.467-.196 0-.356.119-.356.264 0 .346.15.334.858-.066.932-.525 1.241-1.052 1.25-2.128.012-1.409-.912-2.304-2.38-2.304zm5.162 0c-.07 0-.129 1.071-.129 2.38 0 1.31.058 2.382.129 2.382.07 0 1.023-.443 2.116-.984 1.206-.597 1.989-1.147 1.989-1.397s-.783-.8-1.989-1.398c-1.093-.54-2.046-.984-2.116-.984zm-5.156 7.408c-1.31 0-2.38.057-2.38.127s.444 1.027.987 2.125c.657 1.328 1.122 1.971 1.39 1.922.346-.064 2.353-3.421 2.376-3.976.005-.109-1.063-.198-2.373-.198z"/><path d="M9.763 0c-.295.002-.765.24-1.176.65-.357.357-.65.714-.65.794 0 .323.437.111.794-.385.21-.291.594-.53.853-.53.258 0 .47-.118.47-.264 0-.182-.114-.265-.29-.265zm4.286 0c-.177 0-.29.083-.29.265 0 .146.187.265.415.265 1.002 0 1.172.63 1.172 4.346 0 2.218.101 3.591.265 3.591.163 0 .264-1.37.264-3.584 0-3.452-.023-3.607-.649-4.233-.41-.41-.882-.648-1.177-.65zM4.883 7.938c-3.452 0-3.608.024-4.233.65C.293 8.945 0 9.42 0 9.646c0 .225.12.409.265.409.145 0 .264-.188.264-.416 0-1.002.632-1.172 4.347-1.172 2.218 0 3.59-.101 3.59-.264 0-.164-1.37-.265-3.583-.265zm18.04.612a.168.168 0 0 0-.115.054c-.102.11-.037.253.145.318s.33.347.33.626.12.507.265.507c.146 0 .265-.188.265-.416 0-.459-.579-1.112-.89-1.089zM.265 13.76c-.485 0-.273.81.385 1.467.62.62.797.65 3.968.65h3.32v3.58c0 3.35.038 3.623.595 4.218.552.59.796.637 3.32.652 2.55.015 2.765-.025 3.373-.633.626-.626.65-.781.65-4.234v-3.584h3.391c3.291 0 3.41-.02 3.969-.663.603-.693.766-1.453.312-1.453-.145 0-.265.187-.265.416 0 1.001-.63 1.171-4.346 1.171h-3.591v3.591c0 3.716-.17 4.347-1.172 4.347-.228 0-.416.119-.416.264 0 .152-.793.265-1.852.265-1.058 0-1.852-.113-1.852-.265 0-.145-.186-.264-.415-.264-1.002 0-1.172-.631-1.172-4.347v-3.59h-3.59c-3.716 0-4.348-.17-4.348-1.172 0-.229-.119-.416-.264-.416z"/></svg>