<svg xmlns="http://www.w3.org/2000/svg" viewBox="0 0 13.533 13.246"><path fill="#ff91c4" stroke="#5c406c" stroke-linecap="round" stroke-linejoin="round" stroke-width=".861" d="M13.099 6.602c.1 2.457-1.61 4.712-3.813 5.662a6.152 6.152 0 0 1-4.661.175C1.38 11.444-.431 7.43.85 4.317c.68-1.583 1.982-2.925 3.63-3.485 2.494-.914 5.612-.248 7.246 1.923a6.112 6.112 0 0 1 1.372 3.847z"/><path fill="#e5cdc4" fill-rule="evenodd" stroke="#e5cdc4" stroke-width=".265" d="M2.454 2.619C.284 4.916 1.051 7.563 1.051 7.563c.793-4.597 3.823-6.169 8.533-5.958 0 0-4.317-1.965-7.13 1.014z"/><path fill="#af4282" d="M5.337 7.226c.909.088 1.876-.201 2.736.21.288.113.37.493.32.773-.143.515-.716.742-1.197.817-.607-.047-1.91.169-2.181-.227-.058-.371.217-.697.222-1.073l.1-.5zM5.88 4.49c.81.122 1.664-.209 2.444.123.263.119.537.35.451.67-.591 1.227-2.213.797-3.21.797l.315-1.59zm2.233-1.186h-3.28L3.45 10.22c1.523-.054 3.064.132 4.572-.152 1.117-.305 1.976-1.536 1.666-2.692-.146-.282-.515-.448-.562-.79.088-.354.606-.278.717-.652.452-.693.41-1.769-.288-2.287-.42-.274-.95-.333-1.442-.342z" font-family="Nexa Bold" font-size="15.875" font-weight="400" letter-spacing="0" style="line-height:125%;-inkscape-font-specification:'Nexa Bold, '" word-spacing="0"/></svg>