<svg xmlns="http://www.w3.org/2000/svg" viewBox="0 0 16.937 6.35"><path fill="#f290c1" d="M1.303 0l-.65.65c-.547.547-.649.902-.649 2.26 0 1.359.102 1.714.65 2.261.357.357.833.65 1.058.65.225 0 .409.119.409.264 0 .17 2.293.265 6.35.265 4.057 0 6.35-.096 6.35-.265 0-.145.184-.264.41-.264.224 0 .7-.293 1.057-.65.548-.547.65-.902.65-2.26 0-1.359-.102-1.714-.65-2.261l-.65-.65H8.472z"/><path fill="#f291bd" d="M1.303 0l-.65.65c-.547.547-.649.902-.649 2.26 0 1.359.102 1.714.65 2.261.357.357.833.65 1.058.65.225 0 .409.119.409.264 0 .17 2.244.265 6.202.265 3.85 0 6.264-.1 6.366-.265.09-.145.34-.264.557-.264.216 0 .685-.293 1.042-.65.548-.547.65-.902.65-2.26 0-1.359-.102-1.714-.65-2.261l-.65-.65H8.472zm13.915.983l.595.366c.385.237.595.623.595 1.096 0 .401-.06.73-.132.73-.135 0-.187-.708-.066-.898.036-.058-.172-.372-.463-.7zM.898 3.543c.097.003.164.108.164.278 0 .465-.158.533-.385.166-.084-.136-.031-.321.117-.413a.188.188 0 0 1 .104-.032zm.6.502c.039-.013.065.073.073.254.011.255.11.45.22.432.108-.017 2.103-.009 4.43.019 2.704.031 4.043.134 3.705.283-.291.128-2.22.227-4.288.22-3.826-.013-4.575-.204-4.225-1.077.033-.08.061-.123.085-.131z"/><path fill="#a3809c" d="M1.303 0l-.65.65c-.547.547-.649.902-.649 2.26 0 1.359.102 1.714.65 2.261.357.357.833.65 1.058.65.225 0 .409.119.409.264 0 .17 2.244.265 6.202.265 3.85 0 6.264-.1 6.366-.265.09-.145.34-.264.557-.264.216 0 .685-.293 1.042-.65.548-.547.65-.902.65-2.26 0-1.359-.102-1.714-.65-2.261l-.65-.65H8.472zm1.1.53H15.11l.65.649c.639.64.9 1.996.384 1.996-.146 0-.265-.178-.265-.395 0-.217-.26-.693-.577-1.058l-.576-.664H8.873c-6.265 0-6.941.117-7.496 1.293-.44.931-.4 1.181.298 1.836.575.54.865.575 4.762.575 2.59 0 4.15.1 4.15.265 0 .167-1.642.259-4.431.249-4.328-.016-4.446-.032-5.027-.653-.924-.986-.797-2.193.34-3.236z"/><path fill="#a8769a" d="M1.303 0l-.65.65c-.547.547-.649.902-.649 2.26 0 1.359.102 1.714.65 2.261.357.357.826.65 1.043.65.216 0 .46.108.542.241.082.133.476.196.876.142.4-.055 3.368-.151 6.598-.214l5.872-.115.676-.677c.577-.577.676-.912.676-2.288 0-1.358-.101-1.713-.649-2.26l-.65-.65H8.472zm.766.53h13.04l.65.649c.742.742.92 2.157.239 1.895-.234-.09-.342-.045-.25.102.088.143-.139.558-.504.923-.591.591-.881.663-2.66.663-1.154 0-1.997.112-1.997.265 0 .167-1.642.259-4.431.249-4.328-.016-4.446-.032-5.027-.653-.863-.92-.793-2.239.172-3.272zm12.487.528c-.013.014.067.121.231.331.2.255.408.463.463.463.218 0 .078-.217-.363-.563-.21-.164-.317-.244-.33-.23zM1.184 3.44c-.117 0 .066.297.408.661.341.364.714.661.827.661.113 0-.07-.297-.407-.661-.337-.364-.71-.661-.828-.661zM6.09 4.528c-.6 0-1.2.013-1.654.039-.91.051-.165.094 1.654.094s2.563-.043 1.653-.094a31.07 31.07 0 0 0-1.653-.04z"/><path fill="#2f99a1" d="M1.303 0l-.65.65c-.546.547-.649.902-.649 2.258 0 1.303.113 1.73.595 2.245l.596.635 7.144.008 7.143.008.728-.64c.644-.567.727-.826.727-2.253 0-1.359-.101-1.714-.649-2.261l-.65-.65H8.472zm.53.53H15.11l.65.649c.885.886.815 1.583-.269 2.666-.884.884-.989.917-2.91.917-1.153 0-1.994.112-1.994.265 0 .167-1.642.259-4.431.249-4.328-.016-4.446-.032-5.027-.653-.845-.902-.819-2.572.054-3.444z"/><path fill="#5b3b6a" d="M1.303 0l-.65.65c-.546.547-.649.902-.649 2.258 0 1.303.113 1.73.595 2.245l.596.635 7.144.008 7.143.008.728-.64c.644-.567.727-.826.727-2.253 0-1.359-.101-1.714-.649-2.261l-.65-.65H8.472zm.53.53H15.11l.65.649c.477.478.648.935.648 1.731 0 .797-.17 1.254-.649 1.732l-.65.65-6.692-.016-6.693-.017-.595-.635C.284 3.72.31 2.05 1.183 1.179z"/><path d="M16.673 1.587c-.146 0-.265.542-.265 1.203 0 .924-.15 1.353-.649 1.852l-.65.65H1.833l-.65-.65C.827 4.285.534 3.81.534 3.584c0-.225-.119-.409-.264-.409-.533 0-.243.831.595 1.709l.86.9 6.69.019 6.689.018.917-.917c.777-.777.917-1.101.917-2.117 0-.66-.119-1.2-.264-1.2z"/><path fill="#5b3b6a" d="M3.773 1.723c-.1.007-.2.056-.304.175-.243.263-.34-.344-.645-.087-.219.159-.07.434-.108.658v1.597h.56c.051-.533-.12-1.11.123-1.61.36-.45 1.038.15.82.609.04.378-.212 1.192.456 1.001h.105c.056-.535-.13-1.11.133-1.612.335-.39.855.064.83.478.034.347-.282.99.169 1.135.545.15.278-.472.348-.78-.008-.428.044-.943-.287-1.27-.348-.327-.983-.361-1.302.025-.313.015-.599-.34-.898-.319zm4.12.001c-.599.022-1.183.496-1.174 1.125-.051.62.434 1.27 1.082 1.27.367.008.959.003 1.073-.427-.266-.54-.722.142-1.15-.112-.45-.06-.384-.634.083-.451.419.035.842-.01 1.263.007.127-.605-.26-1.348-.923-1.392a1.13 1.13 0 0 0-.255-.02zm1.927.028c-.04-.012-.09-.002-.154.047-.34.104-.115.567-.174.837v1.431h.555c.06-.543-.157-1.163.19-1.642.384-.399 1.11.097.933.6.106.316-.215.898.167 1.042h.393c-.056-.651.16-1.385-.237-1.963-.328-.396-1.002-.468-1.362-.076-.147.001-.19-.238-.311-.276zm2.315.054c.05.645-.141 1.359.213 1.944.299.387.96.513 1.314.132.25-.084.356.443.641.157.17-.234.03-.55.07-.826V1.806h-.555c-.06.543.156 1.163-.19 1.642-.385.398-1.11-.097-.933-.601-.106-.318.256-1.05-.27-1.041h-.29zm-4.228.424c.268-.015.542.11.618.389-.382.126-.79.025-1.183.054h-.028c.06-.275.324-.429.593-.443z" font-family="Nexa Bold" font-size="15.875" font-weight="400" letter-spacing="0" style="line-height:125%;-inkscape-font-specification:'Nexa Bold, '" word-spacing="0"/></svg>