<svg xmlns="http://www.w3.org/2000/svg" viewBox="0 0 13.533 13.246"><path fill="#ff8135" stroke="#5c406c" stroke-linecap="round" stroke-linejoin="round" stroke-width=".861" d="M13.099 6.602c.1 2.457-1.61 4.712-3.813 5.662a6.152 6.152 0 0 1-4.661.175C1.38 11.444-.431 7.43.85 4.317c.68-1.583 1.982-2.925 3.63-3.485 2.494-.914 5.612-.248 7.246 1.923a6.112 6.112 0 0 1 1.372 3.847z"/><path fill="#e5cdc4" fill-rule="evenodd" stroke="#e5cdc4" stroke-width=".265" d="M2.454 2.619C.284 4.916 1.146 7.611 1.146 7.611c.792-4.598 3.68-6.217 8.39-6.006 0 0-4.269-1.965-7.082 1.014z"/><path fill="#af4282" d="M8.745 9.825h1.423l-1.72-6.914H7.027L2.542 9.825h1.412c.444-.507.61-1.53 1.45-1.304H8.42l.326 1.304zm-.602-2.519H5.574c.621-.807 1.397-2.523 1.92-2.76l.649 2.76z" font-family="Nexa Bold" font-size="15.875" font-weight="400" letter-spacing="0" style="line-height:125%;-inkscape-font-specification:'Nexa Bold, '" word-spacing="0"/></svg>