<svg xmlns="http://www.w3.org/2000/svg" viewBox="0 0 24 24" width="24" height="24"><path fill="#009900" stroke="none" d="M13.922 2.495V19.3a2.35 2.35 0 11-3.845 0V2.495c0-.826.67-1.495 1.495-1.495h.855c.825 0 1.495.67 1.495 1.495zm-1.923 16.723a1.431 1.431 0 100 2.863 1.431 1.431 0 000-2.863zm5.426.001a1.431 1.431 0 100 2.863 1.431 1.431 0 000-2.863zm1.922-14.587V19.3a2.35 2.35 0 11-3.844 0V4.632c0-.826.67-1.495 1.495-1.495h.854c.826 0 1.495.67 1.495 1.495zM7.002 1.002c.826 0 1.495.669 1.495 1.494V19.3a2.35 2.35 0 11-3.848.006l.004-.006V2.496C4.653 1.67 5.323 1 6.148 1zM6.575 19.22a1.431 1.431 0 100 2.862 1.431 1.431 0 000-2.862z"/></svg>